<?xml version="1.0" encoding="UTF-8"?>
<svg id="Capa_1" xmlns="http://www.w3.org/2000/svg" viewBox="0 0 800 800">
  <defs>
    <style>
      .cls-1 {
        fill: #182b54;
      }
    </style>
  </defs>
  <g id="_4._Computer_games">
    <path class="cls-1" d="M386.67,316.85v-114.35c.03-28.06,22.77-50.81,50.83-50.83,32.03,0,52.5,24.57,52.5,50.83v50c0,13.35,10.82,24.17,24.17,24.17s24.17-10.82,24.17-24.17V96.67H53.33c-14.73,0-26.67,11.94-26.67,26.67v501.67c0,14.73,11.94,26.67,26.67,26.67h693.33c14.73,0,26.67-11.94,26.67-26.67V123.33c0-14.73-11.94-26.67-26.67-26.67h-76.67c-7.36,0-13.33-5.97-13.33-13.33s5.97-13.33,13.33-13.33h76.67c29.46,0,53.33,23.88,53.33,53.33v501.67c0,29.46-23.88,53.33-53.33,53.33H53.33c-29.46,0-53.33-23.88-53.33-53.33V123.33c0-29.46,23.88-53.33,53.33-53.33h485V13.33c0-7.36,5.97-13.33,13.33-13.33s13.33,5.97,13.33,13.33v239.17c0,28.07-22.76,50.83-50.83,50.83s-50.83-22.76-50.83-50.83v-50c0-12.27-9.23-24.17-25.83-24.17-13.34,0-24.16,10.82-24.17,24.17v113.22M413.33,315.72v44.28h88.33c60.75,0,110,49.25,110,110,0,60.75-49.25,110-110,110-37.21,0-71.9-18.81-92.19-50h-18.93c-33.14,50.92-101.28,65.33-152.2,32.2-50.92-33.14-65.33-101.28-32.2-152.2,20.3-31.19,54.98-50,92.19-50h25c7.36,0,13.33,5.97,13.33,13.33s-5.97,13.33-13.33,13.33h-25c-46.02,0-83.33,37.32-83.32,83.35,0,46.02,37.32,83.33,83.35,83.32,30.36,0,58.32-16.52,72.97-43.12,2.35-4.25,6.82-6.88,11.67-6.88h34c4.85,0,9.32,2.64,11.67,6.88,22.21,40.31,72.89,54.98,113.2,32.77,40.31-22.21,54.98-72.89,32.77-113.2-14.65-26.59-42.61-43.11-72.97-43.12h-101.67c-7.36,0-13.33-5.97-13.33-13.33v-56.49M526.67,773.33h-39.22l-11.42-53.33c-1.89-7.12-9.18-11.36-16.3-9.47-6.67,1.77-10.89,8.33-9.73,15.12l10.17,47.68h-120.33l10.17-47.68c1.23-7.26-3.65-14.15-10.91-15.38-6.8-1.16-13.36,3.06-15.12,9.73l-11.42,53.33h-39.22c-7.36,0-13.33,5.97-13.33,13.33s5.97,13.33,13.33,13.33h253.33c7.36,0,13.33-5.97,13.33-13.33s-5.97-13.33-13.33-13.33ZM298.33,513.33c7.36,0,13.33-5.97,13.33-13.33v-16.67h16.67c7.36,0,13.33-5.97,13.33-13.33s-5.97-13.33-13.33-13.33h-16.67v-16.67c0-7.36-5.97-13.33-13.33-13.33s-13.33,5.97-13.33,13.33v16.67h-16.67c-7.36,0-13.33,5.97-13.33,13.33s5.97,13.33,13.33,13.33h16.67v16.67c0,7.36,5.97,13.33,13.33,13.33ZM496.55,481.8c-5.35-5.2-13.91-5.08-19.11.27-5.2,5.35-5.08,13.91.27,19.11,2.41,2.34,5.6,3.7,8.96,3.82,11.53,0,18.65-14.42,9.88-23.2ZM539.43,438.92c-5.35-5.2-13.91-5.08-19.11.27-5.2,5.35-5.08,13.91.27,19.11,2.41,2.34,5.6,3.7,8.96,3.82,11.52,0,18.65-14.42,9.88-23.2Z"/>
  </g>
</svg>