<?xml version="1.0" encoding="UTF-8"?>
<svg id="Capa_1" xmlns="http://www.w3.org/2000/svg" viewBox="0 0 799.07 800">
  <defs>
    <style>
      .cls-1 {
        fill: #182b54;
      }
    </style>
  </defs>
  <g id="_4._Backpack">
    <path class="cls-1" d="M490.26,558.52h46.61c22.07,0,39.95-17.89,39.95-39.95v-73.25c0-22.07-17.89-39.95-39.95-39.95h-46.61c-22.07,0-39.95,17.89-39.95,39.95v22.84h-34.13c-7.36,0-13.32,5.96-13.32,13.32s5.96,13.32,13.32,13.32h34.13v23.77c0,22.07,17.89,39.95,39.95,39.95ZM476.94,445.31c0-7.36,5.96-13.32,13.32-13.32h46.61c7.36,0,13.32,5.96,13.32,13.32v73.25c0,7.36-5.96,13.32-13.32,13.32h-46.61c-7.36,0-13.32-5.96-13.32-13.32v-73.25ZM297.99,672.55h203.1c7.36,0,13.32,5.96,13.32,13.32s-5.96,13.32-13.32,13.32h-203.1c-7.36,0-13.32-5.96-13.32-13.32s5.96-13.32,13.32-13.32ZM690.51,169.8c-11.01-25.8-33.75-44.74-61.11-50.89-8.33-1.83-16.7-3.56-25.1-5.18V39.95C604.3,17.89,586.41,0,564.34,0h-59.93C482.35,0,464.46,17.89,464.46,39.95v56c-81.24-4.96-162.79-.62-243.05,12.93V39.95c0-7.36,5.96-13.32,13.32-13.32h59.93c7.36,0,13.32,5.96,13.32,13.32v20.28c0,7.36,5.96,13.32,13.32,13.32s13.32-5.96,13.32-13.32v-20.28c0-22.07-17.89-39.95-39.95-39.95h-59.93c-22.07,0-39.95,17.89-39.95,39.95,0,90.74-.1,85.5.22,87.2,1.24,6.76,7.43,11.47,14.28,10.85,17.13-1.5,189.51-42.48,414.4,6.93,27.51,6.18,47.09,30.55,47.21,58.75v204.33c-.04,33.2-26.94,60.11-60.15,60.15-7.36,0-13.32,5.96-13.32,13.32s5.96,13.32,13.32,13.32c8.71,0,17.38-1.3,25.7-3.88v222.31c-.04,29.16-20.96,54.1-49.66,59.21-22.44,0-22.49-.32-25.65.93H222.76c-33.2-.05-60.09-26.95-60.13-60.15v-148.88c0-7.36-5.96-13.32-13.32-13.32h-49.43c-36.78,0-66.59,29.81-66.59,66.59v114.87c0,36.78,29.81,66.59,66.59,66.59h16.65c7.36,0,13.32-5.96,13.32-13.32s-5.96-13.32-13.32-13.32h-16.65c-22.07,0-39.95-17.89-39.95-39.95v-114.87c0-22.07,17.89-39.95,39.95-39.95h36.11v135.56c.05,47.9,38.86,86.73,86.77,86.78,319.63,0,423.37-.93,476.43-.93,36.78,0,66.59-29.81,66.59-66.59v-114.87c0-36.78-29.81-66.59-66.59-66.59-7.36,0-13.32,5.96-13.32,13.32s5.96,13.32,13.32,13.32c22.07,0,39.95,17.89,39.95,39.95v114.87c0,22.07-17.89,39.95-39.95,39.95h-59.53c15.06-16.04,23.44-37.21,23.42-59.21v-236.04c21.69-16.38,34.44-41.99,34.44-69.17,0-220.83.13-206.16-.3-211.42,42.21,2.53,75.16,37.47,75.21,79.76v83.24c.04,24.16-10.88,47.03-29.7,62.18-5.78,4.55-6.77,12.92-2.22,18.7,4.55,5.78,12.92,6.77,18.7,2.22.09-.07.18-.14.27-.22,25.08-20.19,39.65-50.68,39.59-82.89v-83.24c0-56.1-44.38-106.54-108.56-106.54h0ZM491.09,39.95c0-7.36,5.96-13.32,13.32-13.32h59.93c7.36,0,13.32,5.96,13.32,13.32v68.95c-28.69-4.84-57.54-8.51-86.57-11v-57.95ZM65.46,444.33c4.11-6.09,2.51-14.36-3.58-18.48-22.04-14.86-35.25-39.7-35.24-66.27v-83.24c.06-42.28,33-77.22,75.21-79.76-.43,5.24-.3-9.66-.3,211.42.05,47.91,38.87,86.74,86.78,86.78h33.91v23.77c0,22.07,17.89,39.95,39.95,39.95h46.61c22.07,0,39.95-17.89,39.95-39.95v-73.25c0-22.07-17.89-39.95-39.95-39.95h-46.61c-22.07,0-39.95,17.89-39.95,39.95v22.84h-33.91c-33.2-.04-60.11-26.94-60.15-60.15,0-222.29-.88-209.62,2.31-220.84,1.8-5.67-.37-11.84-5.33-15.13-4.15-2.75-6.98-2.23-18.63-2.23C47.73,169.87.06,217.53,0,276.34v83.24c0,35.42,17.6,68.52,46.96,88.33,6.09,4.12,14.37,2.52,18.49-3.57,0,0,0,0,0,0ZM248.88,445.31c0-7.36,5.96-13.32,13.32-13.32h46.61c7.36,0,13.32,5.96,13.32,13.32v73.25c0,7.36-5.96,13.32-13.32,13.32h-46.61c-7.36,0-13.32-5.96-13.32-13.32v-73.25Z"/>
  </g>
</svg>