<svg id="Lineal" viewBox="0 0 512 512" xmlns="http://www.w3.org/2000/svg"><g id="_8._Test_and_checkboxes" data-name="8. Test and checkboxes"><path d="m440 172v292a32 32 0 0 1 -32 32h-304a32 32 0 0 1 -32-32v-416a32 32 0 0 1 32-32h240.14c4.52.08-1-4.17 93.52 90.33a8 8 0 0 1 -2.15 12.84c-2.38 1.17 1.56.82-67.51.82-30.5 0-40.8-40-24-40a8 8 0 0 1 8 8 16 16 0 0 0 16 16h44.69c-11.69-11.72-64.69-64.72-72-71.99h-236.69a16 16 0 0 0 -16 16v416a16 16 0 0 0 16 16h304a16 16 0 0 0 16-16v-292a8 8 0 0 1 16 0zm-310 2v-57a8 8 0 0 1 8-8h57a8 8 0 0 1 8 8v57a8 8 0 0 1 -8 8h-57a8 8 0 0 1 -8-8zm16-8h41v-41h-41zm-16 71a8 8 0 0 1 8-8h57a8 8 0 0 1 8 8v57a8 8 0 0 1 -8 8h-57a8 8 0 0 1 -8-8zm16 49h41v-41h-41zm-16 128a8 8 0 0 0 8 8h57a8 8 0 0 0 0-16h-49v-49a8 8 0 0 0 -16 0zm101.16-76.16a8 8 0 0 0 -11.32 0l-32.84 32.85-11.34-11.35a8 8 0 0 0 -11.32 11.32l17 17a8 8 0 0 0 11.32 0l38.5-38.5a8 8 0 0 0 0-11.32zm112.84-89.84h-82a8 8 0 0 0 0 16h82a8 8 0 0 0 0-16zm0 130h-82a8 8 0 0 0 0 16h82a8 8 0 0 0 0-16zm-82-228h52a8 8 0 0 0 0-16h-52a8 8 0 0 0 0 16z" fill="#404a66"/></g></svg>