<?xml version="1.0" encoding="UTF-8"?>
<svg id="Capa_1" xmlns="http://www.w3.org/2000/svg" viewBox="0 0 800 800">
  <defs>
    <style>
      .cls-1 {
        fill: #182b54;
      }
    </style>
  </defs>
  <path class="cls-1" d="M800,268.2c0-72.27-100.69-205.55-143.98-259.49-4.44-5.53-11.05-8.7-18.13-8.71h-.02c-7.09,0-13.7,3.17-18.16,8.71-10.46,13.03-26.74,33.83-44.87,58.93-3.79,5.25-2.61,12.57,2.64,16.36,5.24,3.79,12.57,2.61,16.36-2.64,17.77-24.59,33.73-45,44.02-57.83,67.08,83.61,138.7,191.73,138.7,244.67,0,76.48-62.22,138.7-138.7,138.7-3.17,0-6.34-.12-9.46-.33-16-33.29-37.04-70.46-63.11-111.41-17.35-27.25-35.37-53.73-52.81-78.35,10.69-25.41,27.61-55.84,50.41-90.62,3.55-5.41,2.04-12.68-3.38-16.23-5.41-3.55-12.68-2.04-16.23,3.38-19.86,30.29-35.47,57.57-46.63,81.41-29-39.93-55.17-73.36-72.27-94.67-5.97-7.44-14.86-11.7-24.39-11.7h0c-9.53,0-18.42,4.26-24.39,11.7-17.1,21.3-43.27,54.74-72.27,94.66C270.5,124.51,207.56,42.68,180.28,8.7c-4.45-5.53-11.06-8.7-18.15-8.7h-.02c-7.09,0-13.7,3.18-18.13,8.71C100.69,62.65,0,195.92,0,268.2c0,88.94,71.99,161.38,160.76,162.12-17.86,41.46-26.88,76.1-26.88,103.56,0,72.06,28.34,139.54,79.8,190.01,4.62,4.53,12.04,4.46,16.57-.16,4.53-4.62,4.46-12.04-.16-16.57-46.93-46.02-72.77-107.56-72.77-173.27,0-48.11,33.6-126.31,97.16-226.13,18.3-28.74,37.36-56.64,55.69-82.35.15-.2.29-.39.43-.6,33.29-46.69,64.08-86.1,83.3-110.05,2.05-2.55,4.71-2.93,6.11-2.93s4.06.38,6.11,2.93c19.22,23.95,50.02,63.38,83.32,110.08.11.17.23.33.35.49,18.34,25.74,37.42,53.66,55.74,82.43,63.56,99.82,97.16,178.02,97.16,226.13,0,133.81-108.87,242.68-242.68,242.68-45.64,0-90.1-12.73-128.58-36.83-5.48-3.43-12.72-1.77-16.15,3.72-3.43,5.49-1.77,12.72,3.71,16.15,42.21,26.43,90.98,40.4,141.02,40.4,146.74,0,266.12-119.38,266.12-266.12,0-27.46-9.02-62.09-26.88-103.56,88.77-.74,160.76-73.18,160.76-162.12ZM234.71,295.16c-26.07,40.94-47.11,78.11-63.11,111.41-3.13.21-6.29.33-9.46.33-76.48,0-138.7-62.22-138.7-138.7,0-52.93,71.62-161.06,138.7-244.67,22.28,27.77,95.06,121.24,125.38,193.27-17.44,24.62-35.46,51.11-52.81,78.36Z"/>
</svg>