<?xml version="1.0" encoding="UTF-8"?>
<svg id="Capa_1" xmlns="http://www.w3.org/2000/svg" viewBox="0 0 170 146.27">
  <defs>
    <style>
      .cls-1 {
        fill: #182b54;
      }
    </style>
  </defs>
  <g id="_2._Save_Money">
    <path class="cls-1" d="M167.17,62.69h-9.31c-1.29-3.77-3-7.39-5.1-10.78,2.02-2.39,3.33-5.17,3.22-8.19-.31-7.93-10.65-15.78-19.15-13.86-11.92,2.7-15.52,23.66-8.68,29.25,4.82,3.94,14.54.78,20.33-3.33,1.95,3.32,3.5,6.87,4.6,10.56.36,1.2,1.46,2.02,2.72,2.02h8.55v23.73h-8.55c-1.25,0-2.36.82-2.72,2.02-3.18,10.59-9.89,19.77-19,26.03-.78.55-1.25,1.44-1.26,2.4v12.4c0,3.13-2.54,5.67-5.67,5.67h-12.4c-3.13,0-5.67-2.54-5.67-5.67v-3.54c0-1.56-1.27-2.83-2.83-2.83h-21.25c-1.56,0-2.83,1.27-2.83,2.83s1.27,2.83,2.83,2.83h18.42v.71c0,6.26,5.07,11.33,11.33,11.33h12.4c6.26,0,11.33-5.07,11.33-11.33v-10.98c8.99-6.54,15.76-15.69,19.37-26.21h9.31c1.56,0,2.83-1.27,2.83-2.83v-29.4c0-1.56-1.27-2.83-2.83-2.83ZM142.05,53.03c-5.03,2.5-9.23,2.59-10.33,1.69s-1.98-4.82-.79-9.85c.95-4.02,3.32-8.62,7.13-9.49.35,0,3.79-1,8.28,2.45,2.37,1.82,3.9,4.15,3.96,6.1.11,2.93-3.21,6.58-8.26,9.1h0ZM74.02,131.4v3.54c0,6.26-5.07,11.33-11.33,11.33h-12.4c-6.26,0-11.33-5.07-11.33-11.33v-10.95c-13.04-9.62-21.08-24.58-21.92-40.76h-2.06c-4.91,0-8.9-3.99-8.9-8.9,0-1.79-1.45-3.24-3.24-3.24-1.56,0-2.83-1.27-2.83-2.83s1.27-2.83,2.83-2.83c4.91,0,8.9,3.99,8.9,8.9,0,1.79,1.45,3.24,3.24,3.24h2.07c.89-16.32,9.12-31.37,22.4-40.91,1.29-.88,3.06-.55,3.94.74.85,1.25.57,2.95-.64,3.86-26.85,19.27-26.97,59.59.68,78.98.75.53,1.2,1.38,1.21,2.3v12.4c0,3.13,2.54,5.67,5.67,5.67h12.4c3.13,0,5.67-2.54,5.67-5.67v-3.54c0-1.56,1.27-2.83,2.83-2.83s2.83,1.27,2.83,2.83h0ZM52.42,53.83h4.25c-11.34-14.47-8.81-35.4,5.66-46.74C68.19,2.5,75.42,0,82.88,0,104.12,0,120.1,19.81,115.33,40.73c-.35,1.53-1.87,2.48-3.39,2.13-1.53-.35-2.48-1.87-2.13-3.39,3.96-17.35-9.3-33.79-26.93-33.79-15.26,0-27.62,12.37-27.62,27.63,0,7.84,3.33,15.3,9.15,20.54h48.93c1.56,0,2.83,1.27,2.83,2.83s-1.27,2.83-2.83,2.83h-60.92c-1.56,0-2.83-1.27-2.83-2.83s1.27-2.83,2.83-2.83h0Z"/>
  </g>
</svg>