<?xml version="1.0" encoding="UTF-8"?>
<svg id="Capa_1" xmlns="http://www.w3.org/2000/svg" viewBox="0 0 800 734.15">
  <defs>
    <style>
      .cls-1 {
        fill: #182b54;
      }
    </style>
  </defs>
  <path class="cls-1" d="M199.49,518.57c-5.95,6.25-5.71,16.14.53,22.09s16.14,5.71,22.09-.53,5.71-16.14-.53-22.09c-6.25-5.95-16.14-5.71-22.09.53Z"/>
  <path class="cls-1" d="M729.57,70.44c-90.31-90.31-235.07-93.77-329.57-10.4C305.51-23.34,160.75-19.87,70.43,70.44c-93.91,93.92-93.91,246.73,0,340.64l79.85,79.85c6.12,6.11,16.03,6.11,22.15,0,6.12-6.12,6.12-16.03,0-22.15l-79.85-79.85c-81.7-81.7-81.7-214.64,0-296.34,81.71-81.7,214.65-81.7,296.34,0,6.12,6.11,16.03,6.11,22.15,0,81.7-81.7,214.64-81.7,296.34,0,81.7,81.7,81.7,214.64,0,296.34l-307.42,307.42-128.38-128.38c-6.12-6.11-16.03-6.11-22.15,0-6.12,6.12-6.12,16.03,0,22.15l139.46,139.46c3.06,3.06,7.07,4.59,11.07,4.59s8.02-1.53,11.07-4.59l318.49-318.49c93.91-93.91,93.91-246.72,0-340.64h0Z"/>
  <path class="cls-1" d="M344.73,305.24l-66.76,66.76c-36.7,36.7-36.7,96.41,0,133.1,18.35,18.35,42.45,27.52,66.55,27.52,19.51,0,39.02-6.01,55.48-18.03,36.79,26.87,88.83,23.71,122.03-9.49,36.7-36.7,36.7-96.41,0-133.1l-66.76-66.76c-30.48-30.48-80.06-30.48-110.54,0h0ZM499.88,394.15c24.48,24.48,24.48,64.32,0,88.81-24.48,24.49-64.32,24.49-88.81,0-6.12-6.11-16.03-6.11-22.15,0-24.48,24.49-64.32,24.49-88.81,0-24.48-24.49-24.48-64.32,0-88.81l66.76-66.76c9.13-9.13,21.13-13.7,33.12-13.7s23.99,4.57,33.12,13.7l66.76,66.76Z"/>
  <path class="cls-1" d="M475.9,127.44c-33.06,0-59.96,31.52-59.96,70.27s26.9,70.27,59.96,70.27,59.96-31.52,59.96-70.27-26.9-70.27-59.96-70.27ZM475.9,236.67c-15.52,0-28.64-17.84-28.64-38.95s13.11-38.95,28.64-38.95,28.64,17.84,28.64,38.95-13.11,38.95-28.64,38.95Z"/>
  <path class="cls-1" d="M576.32,368.28c28.22,0,51.17-26.67,51.17-59.44s-22.96-59.44-51.17-59.44-51.17,26.67-51.17,59.44,22.96,59.44,51.17,59.44ZM576.32,280.72c10.76,0,19.85,12.88,19.85,28.12s-9.09,28.12-19.85,28.12-19.85-12.88-19.85-28.12,9.09-28.12,19.85-28.12h0Z"/>
  <path class="cls-1" d="M223.68,249.4c-28.22,0-51.17,26.67-51.17,59.44s22.96,59.44,51.17,59.44,51.17-26.67,51.17-59.44-22.96-59.44-51.17-59.44ZM223.68,336.96c-10.76,0-19.85-12.88-19.85-28.12s9.09-28.12,19.85-28.12,19.85,12.88,19.85,28.12-9.09,28.12-19.85,28.12Z"/>
  <path class="cls-1" d="M324.1,127.44c-33.06,0-59.96,31.52-59.96,70.27s26.9,70.27,59.96,70.27,59.96-31.52,59.96-70.27-26.9-70.27-59.96-70.27h0ZM324.1,236.67c-15.52,0-28.64-17.84-28.64-38.95s13.11-38.95,28.64-38.95,28.64,17.84,28.64,38.95-13.11,38.95-28.64,38.95Z"/>
  <path class="cls-1" d="M698.42,316.93c7.97,3.09,17.18-.99,20.26-8.95,18.36-47.4,14.38-99.85-10.9-143.89-4.3-7.5-13.87-10.09-21.38-5.79-7.5,4.3-10.09,13.88-5.79,21.38,20.25,35.28,23.56,79.02,8.85,116.99-3.12,8.07.88,17.14,8.95,20.26h0Z"/>
</svg>