<svg width="37" height="35" viewBox="0 0 37 35" fill="none" xmlns="http://www.w3.org/2000/svg">
<path d="M0.54001 34.4223H33.3056C33.6054 34.4223 33.8452 34.1799 33.8452 33.8849V7.42492C33.8452 7.22822 33.7394 7.04908 33.5666 6.95424C33.3938 6.85941 33.1822 6.86643 33.0165 6.97181L22.0958 13.888L11.4642 20.6532L0.832693 13.888C0.66696 13.7826 0.455388 13.7756 0.282603 13.8704C0.109818 13.9653 0.000488282 14.1444 0.000488282 14.3411V33.8849C0.000488282 34.1835 0.243808 34.4223 0.54001 34.4223ZM32.7661 33.3475H22.9245V14.6362L32.7661 8.40141V33.3475ZM21.8454 33.3475H12.0038V21.5875L21.8454 15.3246V33.3475ZM1.07953 15.3246L10.9212 21.5875V33.3475H1.07953V15.3246Z" fill="#2057F2"/>
<path d="M32.4665 2.62617L11.5013 15.9311L0.831072 9.16029C0.5798 8.99782 0.243575 9.07553 0.0843184 9.3263C-0.0749383 9.57706 -0.000607312 9.9126 0.250664 10.0715L11.5048 17.2132L33.054 3.54095L34.2148 5.35991L36.7134 0.577637L31.3128 0.807214L32.4736 2.62617H32.4665Z" fill="#2057F2"/>
</svg>
