<?xml version="1.0" encoding="UTF-8"?>
<svg id="Capa_1" xmlns="http://www.w3.org/2000/svg" viewBox="0 0 131.75 170">
  <defs>
    <style>
      .cls-1 {
        fill: #456bd6;
      }
    </style>
  </defs>
  <g id="_10._Calculator">
    <path class="cls-1" d="M131.75,30.28v128.39c0,6.26-5.07,11.33-11.33,11.33H11.33c-6.26,0-11.33-5.07-11.33-11.33V11.33C0,5.07,5.07,0,11.33,0h109.08c1.56,0,2.83,1.27,2.83,2.83s-1.27,2.83-2.83,2.83H11.33c-3.13,0-5.67,2.54-5.67,5.67v147.33c0,3.13,2.54,5.67,5.67,5.67h109.08c3.13,0,5.67-2.54,5.67-5.67V30.28c0-1.56,1.27-2.83,2.83-2.83s2.83,1.27,2.83,2.83ZM115.1,19.12c0-1.56-1.27-2.83-2.83-2.83H19.48c-1.56,0-2.83,1.27-2.83,2.83v11.16c0,1.56,1.27,2.83,2.83,2.83s2.83-1.27,2.83-2.83v-8.32h87.12v24.79H19.48c-1.56,0-2.83,1.27-2.83,2.83s1.27,2.83,2.83,2.83h92.79c1.56,0,2.83-1.27,2.83-2.83v-30.46ZM95.98,99.88h2.83c1.56,0,2.83-1.27,2.83-2.83s-1.27-2.83-2.83-2.83h-2.83c-4.69,0-8.5,3.81-8.5,8.5v40.38c0,4.69,3.81,8.5,8.5,8.5h10.62c4.69,0,8.5-3.81,8.5-8.5v-40.38c0-1.56-1.27-2.83-2.83-2.83s-2.83,1.27-2.83,2.83v40.38c0,1.56-1.27,2.83-2.83,2.83h-10.62c-1.56,0-2.83-1.27-2.83-2.83v-40.38c0-1.56,1.27-2.83,2.83-2.83ZM115.1,76.85c0,4.69-3.81,8.5-8.5,8.5h-10.62c-4.69,0-8.5-3.81-8.5-8.5v-7.44c0-4.69,3.81-8.5,8.5-8.5h10.62c4.69,0,8.5,3.81,8.5,8.5v7.44ZM109.44,69.42c0-1.56-1.27-2.83-2.83-2.83h-10.62c-1.56,0-2.83,1.27-2.83,2.83v7.44c0,1.56,1.27,2.83,2.83,2.83h10.62c1.56,0,2.83-1.27,2.83-2.83v-7.44ZM79.69,76.85c0,4.69-3.81,8.5-8.5,8.5h-10.62c-4.69,0-8.5-3.81-8.5-8.5v-7.44c0-4.69,3.81-8.5,8.5-8.5h10.62c4.69,0,8.5,3.81,8.5,8.5v7.44ZM74.02,69.42c0-1.56-1.27-2.83-2.83-2.83h-10.62c-1.56,0-2.83,1.27-2.83,2.83v7.44c0,1.56,1.27,2.83,2.83,2.83h10.62c1.56,0,2.83-1.27,2.83-2.83v-7.44ZM35.77,60.92h-10.62c-4.69,0-8.5,3.81-8.5,8.5v7.44c0,4.69,3.81,8.5,8.5,8.5h10.62c1.56,0,2.83-1.27,2.83-2.83s-1.27-2.83-2.83-2.83h-10.62c-1.56,0-2.83-1.27-2.83-2.83v-7.44c0-1.56,1.27-2.83,2.83-2.83h10.62c1.56,0,2.83,1.27,2.83,2.83s1.27,2.83,2.83,2.83c5.46,0,2.72-11.33-5.67-11.33ZM79.69,110.15c0,4.69-3.81,8.5-8.5,8.5h-10.62c-4.69,0-8.5-3.81-8.5-8.5v-7.44c0-4.69,3.81-8.5,8.5-8.5h10.62c4.69,0,8.5,3.81,8.5,8.5v7.44ZM74.02,102.71c0-1.56-1.27-2.83-2.83-2.83h-10.62c-1.56,0-2.83,1.27-2.83,2.83v7.44c0,1.56,1.27,2.83,2.83,2.83h10.62c1.56,0,2.83-1.27,2.83-2.83v-7.44ZM44.27,110.15c0,4.69-3.81,8.5-8.5,8.5h-10.62c-4.69,0-8.5-3.81-8.5-8.5v-7.44c0-4.69,3.81-8.5,8.5-8.5h10.62c4.69,0,8.5,3.81,8.5,8.5v7.44ZM38.6,102.71c0-1.56-1.27-2.83-2.83-2.83h-10.62c-1.56,0-2.83,1.27-2.83,2.83v7.44c0,1.56,1.27,2.83,2.83,2.83h10.62c1.56,0,2.83-1.27,2.83-2.83v-7.44ZM79.69,135.65v7.44c0,4.69-3.81,8.5-8.5,8.5h-10.62c-4.69,0-8.5-3.81-8.5-8.5v-7.44c0-4.69,3.81-8.5,8.5-8.5h10.62c4.69,0,8.5,3.81,8.5,8.5ZM74.02,135.65c0-1.56-1.27-2.83-2.83-2.83h-10.62c-1.56,0-2.83,1.27-2.83,2.83v7.44c0,1.56,1.27,2.83,2.83,2.83h10.62c1.56,0,2.83-1.27,2.83-2.83v-7.44ZM25.15,132.81h10.62c1.56,0,2.83,1.27,2.83,2.83s1.27,2.83,2.83,2.83c5.46,0,2.72-11.33-5.67-11.33h-10.62c-4.69,0-8.5,3.81-8.5,8.5v7.44c0,4.69,3.81,8.5,8.5,8.5h10.62c1.56,0,2.83-1.27,2.83-2.83s-1.27-2.83-2.83-2.83h-10.62c-1.56,0-2.83-1.27-2.83-2.83v-7.44c0-1.56,1.27-2.83,2.83-2.83Z"/>
  </g>
</svg>