<svg width="37" height="35" viewBox="0 0 37 35" fill="none" xmlns="http://www.w3.org/2000/svg">
<path d="M6.64119 34.4457H30.6469C34.1496 34.4457 37.0005 31.5949 37.0005 28.0921V9.73235C37.0005 6.22961 34.1496 3.37875 30.6469 3.37875H28.5283V2.6733C28.5283 1.50572 27.5772 0.554688 26.4097 0.554688C25.2421 0.554688 24.2911 1.50572 24.2911 2.6733V3.37875H15.1134C14.7227 3.37875 14.4079 3.69577 14.4079 4.08421C14.4079 4.47266 14.7249 4.78967 15.1134 4.78967H24.2911V6.90828C24.2911 8.07586 25.2421 9.02689 26.4097 9.02689C27.5772 9.02689 28.5283 8.07586 28.5283 6.90828V4.78967H30.6469C33.3727 4.78967 35.5896 7.00651 35.5896 9.73235V10.4378H3.81712C3.42644 10.4378 3.11166 10.7548 3.11166 11.1433C3.11166 11.5317 3.42867 11.8487 3.81712 11.8487H35.5896V28.0877C35.5896 30.8135 33.3727 33.0303 30.6469 33.0303H6.64119C3.91535 33.0303 1.69851 30.8135 1.69851 28.0877V9.73235C1.69851 7.00651 3.91535 4.78967 6.64119 4.78967H8.7598V6.90828C8.7598 8.07586 9.71082 9.02689 10.8784 9.02689C12.046 9.02689 12.997 8.07586 12.997 6.90828V2.6733C12.997 1.50572 12.046 0.554688 10.8784 0.554688C9.71082 0.554688 8.7598 1.50572 8.7598 2.6733V3.37875H6.64119C3.13845 3.37875 0.287598 6.22961 0.287598 9.73235V28.0899C0.287598 31.5926 3.13845 34.4435 6.64119 34.4435V34.4457ZM27.1174 6.90828C27.1174 7.29673 26.8003 7.61374 26.4119 7.61374C26.0234 7.61374 25.7064 7.29673 25.7064 6.90828V2.6733C25.7064 2.28485 26.0234 1.96784 26.4119 1.96784C26.8003 1.96784 27.1174 2.28485 27.1174 2.6733V6.91051V6.90828ZM10.1707 2.6733C10.1707 2.28485 10.4877 1.96784 10.8762 1.96784C11.2646 1.96784 11.5816 2.28485 11.5816 2.6733V6.91051C11.5816 7.29896 11.2646 7.61597 10.8762 7.61597C10.4877 7.61597 10.1707 7.29896 10.1707 6.91051V2.6733Z" fill="#2057F2"/>
<path d="M7.34657 23.8553C8.12703 23.8553 8.75972 23.2226 8.75972 22.4422C8.75972 21.6617 8.12703 21.029 7.34657 21.029C6.56611 21.029 5.93342 21.6617 5.93342 22.4422C5.93342 23.2226 6.56611 23.8553 7.34657 23.8553Z" fill="#456BD6"/>
<path d="M7.34657 29.5046C8.12703 29.5046 8.75972 28.8719 8.75972 28.0915C8.75972 27.311 8.12703 26.6783 7.34657 26.6783C6.56611 26.6783 5.93342 27.311 5.93342 28.0915C5.93342 28.8719 6.56611 29.5046 7.34657 29.5046Z" fill="#456BD6"/>
<path d="M12.9947 18.2061C13.7752 18.2061 14.4079 17.5734 14.4079 16.7929C14.4079 16.0124 13.7752 15.3798 12.9947 15.3798C12.2143 15.3798 11.5816 16.0124 11.5816 16.7929C11.5816 17.5734 12.2143 18.2061 12.9947 18.2061Z" fill="#456BD6"/>
<path d="M12.9947 23.8553C13.7752 23.8553 14.4079 23.2226 14.4079 22.4422C14.4079 21.6617 13.7752 21.029 12.9947 21.029C12.2143 21.029 11.5816 21.6617 11.5816 22.4422C11.5816 23.2226 12.2143 23.8553 12.9947 23.8553Z" fill="#456BD6"/>
<path d="M12.9947 29.5046C13.7752 29.5046 14.4079 28.8719 14.4079 28.0915C14.4079 27.311 13.7752 26.6783 12.9947 26.6783C12.2143 26.6783 11.5816 27.311 11.5816 28.0915C11.5816 28.8719 12.2143 29.5046 12.9947 29.5046Z" fill="#456BD6"/>
<path d="M18.6428 18.2061C19.4233 18.2061 20.056 17.5734 20.056 16.7929C20.056 16.0124 19.4233 15.3798 18.6428 15.3798C17.8624 15.3798 17.2297 16.0124 17.2297 16.7929C17.2297 17.5734 17.8624 18.2061 18.6428 18.2061Z" fill="#456BD6"/>
<path d="M18.6428 23.8553C19.4233 23.8553 20.056 23.2226 20.056 22.4422C20.056 21.6617 19.4233 21.029 18.6428 21.029C17.8624 21.029 17.2297 21.6617 17.2297 22.4422C17.2297 23.2226 17.8624 23.8553 18.6428 23.8553Z" fill="#456BD6"/>
<path d="M18.6428 29.5046C19.4233 29.5046 20.056 28.8719 20.056 28.0915C20.056 27.311 19.4233 26.6783 18.6428 26.6783C17.8624 26.6783 17.2297 27.311 17.2297 28.0915C17.2297 28.8719 17.8624 29.5046 18.6428 29.5046Z" fill="#456BD6"/>
<path d="M24.5221 18.1903C25.2922 18.0636 25.8138 17.3367 25.6872 16.5665C25.5605 15.7964 24.8335 15.2748 24.0634 15.4015C23.2933 15.5281 22.7717 16.2551 22.8983 17.0252C23.025 17.7953 23.752 18.317 24.5221 18.1903Z" fill="#456BD6"/>
<path d="M24.5215 23.8418C25.2916 23.7152 25.8133 22.9882 25.6866 22.2181C25.5599 21.4479 24.833 20.9263 24.0628 21.053C23.2927 21.1797 22.7711 21.9066 22.8978 22.6767C23.0244 23.4469 23.7514 23.9685 24.5215 23.8418Z" fill="#456BD6"/>
<path d="M24.5226 29.4889C25.2928 29.3622 25.8144 28.6352 25.6877 27.8651C25.5611 27.095 24.8341 26.5734 24.064 26.7C23.2938 26.8267 22.7722 27.5537 22.8989 28.3238C23.0255 29.0939 23.7525 29.6155 24.5226 29.4889Z" fill="#456BD6"/>
<path d="M29.9414 18.2061C30.7218 18.2061 31.3545 17.5734 31.3545 16.7929C31.3545 16.0124 30.7218 15.3798 29.9414 15.3798C29.1609 15.3798 28.5282 16.0124 28.5282 16.7929C28.5282 17.5734 29.1609 18.2061 29.9414 18.2061Z" fill="#456BD6"/>
<path d="M29.9414 23.8553C30.7218 23.8553 31.3545 23.2226 31.3545 22.4422C31.3545 21.6617 30.7218 21.029 29.9414 21.029C29.1609 21.029 28.5282 21.6617 28.5282 22.4422C28.5282 23.2226 29.1609 23.8553 29.9414 23.8553Z" fill="#456BD6"/>
</svg>
