<?xml version="1.0" encoding="UTF-8"?>
<svg id="Capa_1" xmlns="http://www.w3.org/2000/svg" viewBox="0 0 470.02 800">
  <defs>
    <style>
      .cls-1 {
        fill: #182b54;
      }
    </style>
  </defs>
  <g id="_50._Chocolate">
    <path class="cls-1" d="M453.36,325.43l-18.33,4.82V40c0-22.09-17.91-40-40-40h-145c-7.36,0-13.33,5.97-13.33,13.33s5.97,13.33,13.33,13.33h38.33v106.67h-106.67V13.33c0-7.36-5.97-13.33-13.33-13.33h-93.33c-22.09,0-40,17.91-40,40v156.23c0,7.36,5.97,13.33,13.33,13.33s13.33-5.97,13.33-13.33v-36.23h93.33v106.67H48.36c-7.36,0-13.33,5.97-13.33,13.33v155.52l-25,6.57c-13.33,3.33-13.2,22.35,0,25.8.65.18,317.38,79.75,318.03,79.92,17.97,4.57,36.71-3.85,45.23-20.32l47.55-91.32c3.33-6.57.7-14.59-5.87-17.92-6.47-3.28-14.36-.79-17.78,5.6l-47.6,91.32c-2.85,5.48-9.1,8.28-15.08,6.77l-267.62-67.23,376.47-99.07v404.37c0,7.36-5.97,13.33-13.33,13.33H40.02c-7.36,0-13.33-5.97-13.33-13.33v-190.4l167.85,152.75c5.37,5.04,13.81,4.77,18.85-.6,5.04-5.37,4.77-13.81-.6-18.85-.1-.09-.2-.18-.3-.27C7.34,515.95,21.36,527.33,15.67,526.32c-6.75-1.19-13.31,2.94-15.15,9.55-.68,2.45-.5-12.3-.5,224.13,0,22.09,17.91,40,40,40h390c22.09,0,40-17.91,40-40v-421.67c0-7.36-5.98-13.33-13.34-13.32-1.12,0-2.24.14-3.32.42h0ZM315.02,26.67h80c7.36,0,13.33,5.97,13.33,13.33v297.27l-93.33,24.57v-68.5h32.5c7.36,0,13.33-5.97,13.33-13.33s-5.97-13.33-13.33-13.33h-32.5v-106.67h32.5c7.36,0,13.33-5.97,13.33-13.33s-5.97-13.33-13.33-13.33h-32.5V26.67ZM288.36,368.85l-106.67,28.07v-103.58h106.67v75.52ZM61.69,133.33V40c0-7.36,5.97-13.33,13.33-13.33h80v106.67H61.69ZM181.69,160h106.67v106.67h-106.67v-106.67ZM61.69,293.33h93.33v110.6l-93.33,24.57v-135.17Z"/>
  </g>
</svg>