<?xml version="1.0" encoding="UTF-8"?>
<svg id="Capa_1" xmlns="http://www.w3.org/2000/svg" viewBox="0 0 800 773.33">
  <defs>
    <style>
      .cls-1 {
        fill: #182b54;
      }
    </style>
  </defs>
  <g id="_5._Cigarettes">
    <path class="cls-1" d="M746.67,596.67h-380c-7.36,0-13.33,5.97-13.33,13.33s5.97,13.33,13.33,13.33h315v136.67c0,7.36,5.97,13.33,13.33,13.33h51.67c29.46,0,53.33-23.88,53.33-53.33v-70c0-29.46-23.88-53.33-53.33-53.33ZM773.33,720c0,14.73-11.94,26.67-26.67,26.67h-38.33v-123.33h38.33c14.73,0,26.67,11.94,26.67,26.67v70ZM630.83,760c0,7.36-5.97,13.33-13.33,13.33H53.33c-29.46,0-53.33-23.88-53.33-53.33v-70c0-29.46,23.88-53.33,53.33-53.33h241.67c7.36,0,13.33,5.97,13.33,13.33v83.33c0,7.36-5.97,13.33-13.33,13.33s-13.33-5.97-13.33-13.33v-70h-56.67v70c0,7.36-5.97,13.33-13.33,13.33s-13.33-5.97-13.33-13.33v-70H53.33c-14.73,0-26.67,11.94-26.67,26.67v70c0,14.73,11.94,26.67,26.67,26.67h564.17c7.36,0,13.33,5.97,13.33,13.33ZM310,288.33c.2-62.83,44.62-116.84,106.23-129.17C398.8,77.58,461.13,0,545,0c64.35.15,119.22,46.67,129.88,110.13,45.95,2.63,81.07,42.01,78.44,87.96-2.24,39.16-31.49,71.46-70.24,77.56.28,4.66.28,9.33,0,13.98,40.02,15.86,63.21,57.84,55.32,100.17,26.28,33.45,27.52,77.3,14.18,117.72-2.3,7-9.84,10.8-16.83,8.5-7-2.3-10.8-9.84-8.5-16.83,11.07-33.48,10.72-70.38-13.22-96.92-3.03-3.36-4.15-8.03-2.97-12.4,9.11-33.77-10.87-68.53-44.64-77.65-.32-.09-.64-.17-.96-.25-6.69-1.68-10.99-8.19-9.92-15,4.15-27.27-5.37-33.33,2.22-42.33,2.77-3.28,6.95-5.02,11.23-4.68,30,1,57.58-23.95,57.58-56.67,0-31.3-25.37-56.67-56.67-56.67-1.89,0-3.77.09-5.65.28-7.33.73-13.86-4.63-14.58-11.96-.01-.14-.03-.28-.04-.43-3.85-55-49.51-97.7-104.65-97.85-71.67,0-122.88,70.9-99.23,139.32,2.4,6.96-1.29,14.55-8.25,16.95-1.1.38-2.25.61-3.41.7-54.83,4.11-97.27,49.71-97.43,104.7,0,91.15,108.52,138.47,175.45,77.85,4.05-3.68,9.94-4.5,14.85-2.08,14.41,7.13,30.48,10.22,46.5,8.95,6.86-.51,12.98,4.27,14.13,11.05,5.94,34.47,38.7,57.6,73.17,51.66,3.86-.67,7.66-1.69,11.33-3.06,6.9-2.57,14.58.95,17.15,7.85.11.3.21.61.3.92,6.42,22.1,5.05,45.74-3.88,66.95-2.81,6.81-10.61,10.06-17.42,7.25-6.81-2.81-10.06-10.61-7.25-17.42h0c4.85-11.49,6.73-24.02,5.48-36.43-44.91,8.45-89-18.15-102.47-61.82-13.95-.29-27.74-3.11-40.68-8.33-85.92,67.9-213.33,6.67-213.33-103.33h0Z"/>
  </g>
</svg>