<?xml version="1.0" encoding="UTF-8"?>
<svg id="Capa_1" xmlns="http://www.w3.org/2000/svg" viewBox="0 0 800.46 774.06">
  <defs>
    <style>
      .cls-1 {
        fill: #404a66;
      }
    </style>
  </defs>
  <g id="_29._Gas_station">
    <path class="cls-1" d="M228.92,476.2c-16.88,20.99-13.54,51.68,7.45,68.56,20.99,16.88,51.68,13.54,68.56-7.45,14.35-17.84,14.35-43.27,0-61.11-4.35-5.95-3.06-14.3,2.89-18.65,5.58-4.08,13.35-3.23,17.91,1.97,26.11,32.48,20.95,79.97-11.53,106.08-32.48,26.11-79.97,20.95-106.08-11.53-22.2-27.61-22.2-66.95,0-94.56l48.38-60.22c4.79-5.61,13.21-6.27,18.82-1.48,5.36,4.58,6.24,12.53,2,18.17l-48.4,60.22ZM53.38,599.45c7.37,0,13.35-5.98,13.35-13.35V53.38c0-14.74,11.95-26.69,26.69-26.69h346.99c14.74,0,26.69,11.95,26.69,26.69v305.84c0,7.37,5.98,13.35,13.35,13.35s13.35-5.98,13.35-13.35V53.38c0-29.48-23.9-53.38-53.38-53.38H93.42c-29.48,0-53.38,23.9-53.38,53.38v532.72c0,7.37,5.98,13.35,13.35,13.35ZM368.18,325.31h-202.52c-22.11,0-40.04-17.93-40.04-40.04V125.12c0-22.11,17.93-40.04,40.04-40.04h202.52c22.11,0,40.04,17.93,40.04,40.04h0v160.15c0,22.11-17.93,40.04-40.04,40.04h0ZM165.66,298.61h202.52c7.37,0,13.35-5.98,13.35-13.35V125.12c0-7.37-5.98-13.35-13.35-13.35h-202.52c-7.37,0-13.35,5.98-13.35,13.35v160.15c0,7.37,5.98,13.35,13.35,13.35ZM790.89,111.3l-31.6,8.54v65.06c-.06,47.48-34.99,87.7-81.99,94.41v302.9c0,35.01-28.38,63.39-63.39,63.39s-63.39-28.38-63.39-63.39v-90.64c0-20.27-16.43-36.7-36.7-36.7h-20.02v197.4c22.11,0,40.04,17.93,40.04,40.04v41.71c0,22.11-17.93,40.04-40.04,40.04H40.04c-22.11,0-40.04-17.93-40.04-40.04v-41.71c0-22.11,17.93-40.04,40.04-40.04h427.07v-210.75c0-7.37,5.98-13.35,13.35-13.35h33.36c35.01,0,63.39,28.38,63.39,63.39v90.64c0,20.27,16.43,36.7,36.7,36.7s36.7-16.43,36.7-36.7h0V178.75c.05-33.73,22.66-63.25,55.2-72.1l78.11-21.1c7.16-1.76,14.39,2.61,16.15,9.77,1.71,6.93-2.34,13.97-9.18,15.99h0ZM493.8,678.97H40.04c-7.37,0-13.35,5.98-13.35,13.35v41.71c0,7.37,5.98,13.35,13.35,13.35h453.76c7.37,0,13.35-5.98,13.35-13.35v-41.71c0-7.37-5.98-13.35-13.35-13.35ZM732.61,127.05l-19.84,5.37c-20.92,5.68-35.44,24.65-35.47,46.33v73.5c32.12-6.41,55.26-34.58,55.3-67.33v-57.87Z"/>
  </g>
</svg>