<?xml version="1.0" encoding="UTF-8"?>
<svg id="Capa_1" xmlns="http://www.w3.org/2000/svg" viewBox="0 0 800 686.71">
  <defs>
    <style>
      .cls-1 {
        fill: #182b54;
      }
    </style>
  </defs>
  <g id="_38._Fastfood">
    <path class="cls-1" d="M800,313.1l-35.3,325.97c-2.93,27.08-25.79,47.6-53.03,47.6h-253.33c-7.36,0-13.33-5.97-13.33-13.33s5.97-13.33,13.33-13.33h253.33c13.61,0,25.04-10.27,26.5-23.8l4.12-37.87h-255.62c-7.36,0-13.33-5.97-13.33-13.33s5.97-13.33,13.33-13.33h258.5l26.67-246.67h-106c-3.74,22.91-14.86,43.98-31.67,60-67.65,65-177.5,17.53-181.28-72.78-.3-7.36,5.42-13.58,12.78-13.88,7.36-.3,13.58,5.42,13.88,12.78,1.67,42.58,37.85,77.22,80.47,77.22s78.72-34.63,80.47-77.22c.3-7.15,6.18-12.79,13.33-12.78h132.85c7.36,0,13.33,5.98,13.33,13.34,0,.48-.03.95-.08,1.43h.08ZM13.33,388.33h386.67c7.36,0,13.33-5.97,13.33-13.33v-40c0-7.36-5.97-13.33-13.33-13.33s-13.33,5.97-13.33,13.33v26.67H26.67v-43.33c.06-63.49,51.51-114.94,115-115h130c37.44.04,72.53,18.26,94.1,48.87,4.23,6.03,12.54,7.49,18.57,3.26,2.46-1.73,4.27-4.24,5.13-7.13.8-2.75.53,8.33.53-185.6l65,11.82v158.78c0,7.36,5.97,13.33,13.33,13.33s13.33-5.97,13.33-13.33v-77.33l65-23.63v172.63c0,7.36,5.97,13.33,13.33,13.33s13.33-5.97,13.33-13.33V82.36l65,23.63v138.45c0,7.36,5.97,13.33,13.33,13.33s13.33-5.97,13.33-13.33V41.11l65-11.82v212.92c0,7.36,5.97,13.33,13.33,13.33s13.33-5.97,13.33-13.33V13.33C756.67,5.97,750.7,0,743.33,0c-.8,0-1.6.07-2.38.21l-91.67,16.67c-6.34,1.15-10.95,6.67-10.95,13.12v47.63l-73.78-26.83c-6.92-2.51-14.57,1.06-17.08,7.98-.53,1.46-.8,3-.8,4.55v40.67l-65,23.63V63.33c0-6.44-4.61-11.96-10.95-13.12l-91.67-16.67c-7.25-1.32-14.19,3.49-15.5,10.74-.14.79-.21,1.58-.21,2.38v163.7c-25.6-21.73-58.09-33.67-91.67-33.7h-130C63.46,176.76.09,240.13,0,318.33v56.67c0,7.36,5.97,13.33,13.33,13.33ZM400,571.66H13.33c-7.36,0-13.33,5.97-13.33,13.33v48.33c0,50.83,66.67,68,66.67,40,0-7.36-5.97-13.33-13.33-13.33-14.73,0-26.67-11.94-26.67-26.67v-35h360v35c0,14.73-11.94,26.67-26.67,26.67h-223.88c-7.36,0-13.33,5.97-13.33,13.33s5.97,13.33,13.33,13.33h223.88c29.46,0,53.33-23.88,53.33-53.33v-48.33c0-7.36-5.97-13.33-13.33-13.33ZM401.67,505H13.33c-7.36,0-13.33,5.97-13.33,13.33s5.97,13.33,13.33,13.33h388.33c7.36,0,13.33-5.97,13.33-13.33s-5.97-13.33-13.33-13.33ZM334.43,435.68c-7.09,4.87-16.44,4.87-23.53,0-16.22-11.09-37.58-11.09-53.8,0-7.09,4.87-16.44,4.87-23.53,0-16.22-11.08-37.58-11.08-53.8,0-7.09,4.87-16.44,4.87-23.53,0-16.22-11.08-37.58-11.08-53.8,0-7.09,4.87-16.44,4.87-23.53,0-16.22-11.08-37.58-11.08-53.8,0-6.07,4.18-7.6,12.48-3.42,18.55,4.18,6.07,12.48,7.6,18.55,3.42,7.09-4.87,16.44-4.87,23.53,0,16.22,11.08,37.58,11.08,53.8,0,7.09-4.87,16.44-4.87,23.53,0,16.22,11.08,37.58,11.08,53.8,0,7.09-4.87,16.44-4.87,23.53,0,16.22,11.09,37.58,11.09,53.8,0,7.09-4.87,16.44-4.87,23.53,0,16.22,11.09,37.58,11.09,53.8,0,7.09-4.87,16.44-4.87,23.53,0,6.07,4.18,14.37,2.65,18.55-3.42,4.18-6.07,2.65-14.37-3.42-18.55-16.22-11.09-37.58-11.09-53.8,0h0ZM98.33,266.66c0,7.36,5.98,13.33,13.34,13.32,7.36,0,13.33-5.98,13.32-13.34,0-3.53-1.41-6.91-3.9-9.41-5.2-5.21-13.65-5.21-18.86-.01-2.51,2.5-3.91,5.9-3.91,9.44ZM168.9,276.1c5.21,5.21,13.65,5.2,18.86,0,5.21-5.21,5.2-13.65,0-18.86-.62-.62-1.29-1.17-2.02-1.66-13.07-8.8-28.15,8.87-16.83,20.52ZM137.6,305.58c-6.13,4.09-7.78,12.37-3.69,18.49,4.09,6.13,12.37,7.78,18.49,3.69,5.3-3.53,7.35-10.32,4.92-16.2-2.82-6.8-10.62-10.03-17.42-7.21-.8.33-1.57.74-2.29,1.23Z"/>
  </g>
</svg>