<svg id="Lineal" viewBox="0 0 512 512" xmlns="http://www.w3.org/2000/svg"><g id="_27._Checklist_on_computer" data-name="27. Checklist on computer"><path d="m496 73v301a32 32 0 0 1 -32 32h-416a32 32 0 0 1 -32-32v-224.5a8 8 0 0 1 16 0v224.5a16 16 0 0 0 16 16h416a16 16 0 0 0 16-16v-301a16 16 0 0 0 -16-16h-416a16 16 0 0 0 -16 16v16.67h409a8 8 0 0 1 0 16h-417a8 8 0 0 1 -8-8v-24.67a32 32 0 0 1 32-32h416a32 32 0 0 1 32 32zm-149 405h-38.33l-9.17-50.1a8 8 0 0 0 -15.74 2.88l8.64 47.22h-72.8l8.64-47.22a8 8 0 0 0 -15.74-2.88l-9.17 50.1h-38.33a8 8 0 0 0 0 16h182a8 8 0 0 0 0-16zm-225.5-215a32 32 0 1 1 32 32 32 32 0 0 1 -32-32zm16 0a16 16 0 1 0 16-16 16 16 0 0 0 -16 16zm-8 100a8 8 0 0 0 8-8 16 16 0 0 1 32 0 8 8 0 0 0 8 8c16.81 0 6.5-40-24-40s-40.8 40-24 40zm98-194h149a8 8 0 0 0 0-16h-149a8 8 0 0 0 0 16zm0 40h49a8 8 0 0 0 0-16h-49a8 8 0 0 0 0 16zm0 100h49a8 8 0 0 0 0-16h-49a8 8 0 0 0 0 16zm0-40h149a8 8 0 0 0 0-16h-149a8 8 0 0 0 0 16zm149.5 78h-149a8 8 0 0 0 0 16h149a8 8 0 0 0 0-16zm-224.22-160.51 34.64-38.11a8 8 0 1 0 -11.84-10.76l-29.24 32.16-7.93-7.27a8 8 0 1 0 -10.82 11.79l13.86 12.7a8 8 0 0 0 11.33-.51z" fill="#404a66"/></g></svg>