<?xml version="1.0" encoding="UTF-8"?>
<svg id="Capa_1" xmlns="http://www.w3.org/2000/svg" viewBox="0 0 800 796.57">
  <defs>
    <style>
      .cls-1 {
        fill: #182b54;
      }
    </style>
  </defs>
  <g id="_14._Shopping_cart_with_boxes">
    <path class="cls-1" d="M786.67,248.63h-53.98V41.02C732.7,18.37,714.35,0,691.7,0c-.01,0-.02,0-.03,0h-210.53c-22.6.03-40.92,18.35-40.95,40.95,0,7.36,5.97,13.33,13.33,13.33s13.33-5.97,13.33-13.33c0-7.89,6.39-14.28,14.28-14.28h210.53c7.88,0,14.27,6.4,14.28,14.28v207.68h-75.12v-62.62c0-22.63-18.32-40.99-40.95-41.02h-24.17c-7.36,0-13.33,5.97-13.33,13.33s5.97,13.33,13.33,13.33h24.17c7.89,0,14.28,6.39,14.28,14.28h0v62.62h-154.58v-62.55c0-7.89,6.39-14.28,14.28-14.28h36.25c7.36,0,13.33-5.97,13.33-13.33v-41.43c-.03-22.6-18.35-40.92-40.95-40.95h-145c-22.6.03-40.92,18.35-40.95,40.95v58.68c0,7.36,5.97,13.33,13.33,13.33s13.33-5.97,13.33-13.33v-58.68c0-7.89,6.39-14.28,14.28-14.28h145c7.89,0,14.28,6.39,14.28,14.28h0v28.03h-22.92c-22.6.03-40.92,18.35-40.95,40.95v62.62h-123.03c-7.36,0-13.33,5.97-13.33,13.33s5.97,13.33,13.33,13.33h469.84l-74.63,307.52c-3.03,12.62-14.32,21.5-27.3,21.48h-401.12l-49.02-380.35c-3.58-27.28-26.8-47.69-54.32-47.75H53.9C24.13,176.13,0,200.27,0,230.04c0,29.77,24.13,53.9,53.9,53.9h87.17c7.36,0,13.33-5.97,13.33-13.33s-5.97-13.33-13.33-13.33H53.9c-15.04,0-27.23-12.19-27.23-27.23s12.19-27.23,27.23-27.23h109.43c14.12.03,26.03,10.5,27.87,24.5l48.65,377.04c-39.24,2.25-69.23,35.88-66.98,75.12,2.15,37.61,33.24,67.02,70.91,67.1h11.38c7.36,34.19,41.05,55.94,75.25,48.58,34.19-7.36,55.94-41.05,48.58-75.25-7.36-34.19-41.05-55.94-75.25-48.58-24.33,5.24-43.34,24.25-48.58,48.58h-11.38c-24.57.48-44.88-19.06-45.35-43.63-.48-24.57,19.06-44.88,43.63-45.35.57-.01,1.15-.01,1.72,0h424c25.29.05,47.3-17.27,53.22-41.85l78.62-323.93c1.74-7.16-2.65-14.37-9.81-16.11-1.03-.25-2.08-.38-3.14-.38h0ZM317.15,696.49c20.25,0,36.67,16.42,36.67,36.67s-16.42,36.67-36.67,36.67-36.67-16.42-36.67-36.67h0c.05-20.23,16.44-36.61,36.67-36.67ZM725.77,733.15c-.06,34.95-28.38,63.27-63.33,63.33-7.36,0-13.33-5.97-13.33-13.33s5.97-13.33,13.33-13.33c20.25,0,36.67-16.42,36.67-36.67s-16.42-36.67-36.67-36.67-36.67,16.42-36.67,36.67h0c0,7.36-5.97,13.33-13.33,13.33h-192.3c-7.36,0-13.33-5.97-13.33-13.33s5.97-13.33,13.33-13.33h180.28c7.09-34.25,40.6-56.27,74.86-49.18,29.59,6.12,50.73,32.3,50.49,62.51h0Z"/>
  </g>
</svg>