<?xml version="1.0" encoding="UTF-8"?>
<svg id="Capa_1" xmlns="http://www.w3.org/2000/svg" viewBox="0 0 161.13 160.99">
  <defs>
    <style>
      .cls-1 {
        fill: #182b54;
      }
    </style>
  </defs>
  <path class="cls-1" d="M65.09,126.95c.81-.16,1.55-.56,2.14-1.14l91.31-91.31c4.61-4.61,4.61-12.12,0-16.73l-15.16-15.16c-2.23-2.24-5.21-3.47-8.37-3.47h0c-3.16,0-6.13,1.23-8.37,3.46L35.33,93.91c-.59.59-.98,1.33-1.14,2.14l-6.39,32.4c-.22,1.09,0,2.2.63,3.13.62.92,1.56,1.55,2.65,1.77.54.11,1.08.11,1.61,0l32.4-6.39ZM132.53,8.49c1.37-1.36,3.59-1.36,4.95,0l15.16,15.16c1.36,1.36,1.37,3.59,0,4.95l-12.57,12.57-20.11-20.11,12.57-12.57ZM42.12,98.91l.32-.32L114.07,26.95l20.11,20.11L62.23,119.02l-25.06,4.94,4.94-25.06Z"/>
  <path class="cls-1" d="M161.13,132.11v-65.83c0-2.3-1.87-4.17-4.17-4.17s-4.17,1.87-4.17,4.17v65.84c-.01,11.4-9.29,20.68-20.69,20.69H29.02c-11.4-.01-20.68-9.29-20.69-20.69V29.02c.01-11.4,9.29-20.68,20.69-20.69h65.84c2.3,0,4.17-1.87,4.17-4.17s-1.87-4.17-4.17-4.17H29.02C13.04.02.02,13.04,0,29.03v103.08c.02,15.99,13.04,29.01,29.03,29.02h103.08c15.98-.02,29.01-13.04,29.02-29.03Z"/>
</svg>