<?xml version="1.0" encoding="UTF-8"?>
<svg id="Capa_1" xmlns="http://www.w3.org/2000/svg" viewBox="0 0 800 562.65">
  <defs>
    <style>
      .cls-1 {
        fill: #182b54;
      }
    </style>
  </defs>
  <g id="_20._Delivery_truck">
    <path class="cls-1" d="M787.69,299.48l-49.05-71.88c-13.09-19.18-34.8-30.66-58.02-30.68h-95.12c-7.77,0-14.07,6.3-14.07,14.07s6.3,14.07,14.07,14.07h19.34v61.54c0,31.07,25.19,56.26,56.26,56.26h42.2c7.77,0,14.07-6.3,14.07-14.07s-6.3-14.07-14.07-14.07h-42.2c-15.54,0-28.13-12.6-28.13-28.13v-61.54h47.65c13.94,0,26.99,6.89,34.85,18.41l49.05,71.88c4.8,7,7.37,15.3,7.35,23.79v125.05h-20.54c-7.77-45.96-51.32-76.92-97.28-69.15-45.96,7.77-76.92,51.32-69.15,97.28,7.77,45.96,51.32,76.92,97.28,69.15,35.42-5.99,63.16-33.73,69.15-69.15h34.6c7.77,0,14.07-6.3,14.07-14.07v-139.11c0-14.16-4.3-27.98-12.31-39.65h0ZM668.13,534.51c-31.07,0-56.26-25.19-56.26-56.26s25.19-56.26,56.26-56.26,56.26,25.19,56.26,56.26-25.19,56.26-56.26,56.26ZM546.81,56.26v348.13c0,7.77-6.3,14.07-14.07,14.07s-14.07-6.3-14.07-14.07V56.26c0-15.54-12.6-28.13-28.13-28.13H151.21c-15.54,0-28.13,12.6-28.13,28.13v19.34h58.02c7.77,0,14.07,6.3,14.07,14.07s-6.3,14.07-14.07,14.07H14.07c-7.77,0-14.07-6.3-14.07-14.07s6.3-14.07,14.07-14.07h80.88v-19.34C94.95,25.19,120.14,0,151.21,0h339.34c31.07,0,56.26,25.19,56.26,56.26ZM502.86,464.18h-173.5c-7.77-45.96-51.32-76.92-97.28-69.15-45.96,7.77-76.92,51.32-69.15,97.28,7.77,45.96,51.32,76.92,97.28,69.15,35.42-5.99,63.16-33.73,69.15-69.15h173.5c7.77,0,14.07-6.3,14.07-14.07s-6.3-14.07-14.07-14.07ZM246.15,534.51c-31.07,0-56.26-25.19-56.26-56.26s25.19-56.26,56.26-56.26,56.26,25.19,56.26,56.26-25.19,56.26-56.26,56.26ZM52.75,177.58c0-7.77,6.3-14.07,14.07-14.07h114.29c7.77,0,14.07,6.3,14.07,14.07s-6.3,14.07-14.07,14.07h-114.29c-7.77,0-14.07-6.3-14.07-14.07ZM188.13,279.56h-59.2c-7.77,0-14.07-6.3-14.07-14.07s6.3-14.07,14.07-14.07h59.2c7.77,0,14.07,6.3,14.07,14.07s-6.3,14.07-14.07,14.07ZM31.65,251.43h22.28c7.77,0,14.07,6.3,14.07,14.07s-6.3,14.07-14.07,14.07h-22.28c-7.77,0-14.07-6.3-14.07-14.07s6.3-14.07,14.07-14.07ZM123.08,353.41v124.84c0,7.77-6.3,14.07-14.07,14.07s-14.07-6.3-14.07-14.07v-110.77H14.07c-7.77,0-14.07-6.3-14.07-14.07s6.3-14.07,14.07-14.07h94.95c7.77,0,14.07,6.3,14.07,14.07ZM223.3,339.34c7.77,0,14.07,6.3,14.07,14.07s-6.3,14.07-14.07,14.07h-40.44c-7.77,0-14.07-6.3-14.07-14.07s6.3-14.07,14.07-14.07h40.44ZM230.33,177.58c0-7.77,6.3-14.07,14.07-14.07h21.1c7.77,0,14.07,6.3,14.07,14.07s-6.3,14.07-14.07,14.07h-21.1c-7.77,0-14.07-6.3-14.07-14.07Z"/>
  </g>
</svg>