<?xml version="1.0" encoding="UTF-8"?>
<svg id="Capa_1" xmlns="http://www.w3.org/2000/svg" viewBox="0 0 170 170">
  <defs>
    <style>
      .cls-1 {
        fill: #182b54;
      }
    </style>
  </defs>
  <g id="_19._Long_bill">
    <path class="cls-1" d="M114.5,62.62c0-2.8-2.27-5.06-5.06-5.06-5.93-.02-10.72-4.84-10.7-10.76.01-4.81,3.23-9.03,7.87-10.31v-2.34c0-1.56,1.27-2.83,2.83-2.83s2.83,1.27,2.83,2.83v2.34c4.66,1.28,7.89,5.52,7.9,10.35,0,1.56-1.27,2.83-2.83,2.83s-2.83-1.27-2.83-2.83c0-2.8-2.26-5.07-5.06-5.07-2.8,0-5.07,2.26-5.07,5.06,0,2.8,2.26,5.07,5.06,5.07,0,0,0,0,0,0,5.93.02,10.72,4.84,10.7,10.76-.01,4.81-3.23,9.03-7.87,10.31v2.34c0,1.56-1.27,2.83-2.83,2.83s-2.83-1.27-2.83-2.83v-2.34c-4.66-1.28-7.89-5.52-7.9-10.35,0-1.56,1.27-2.83,2.83-2.83s2.83,1.27,2.83,2.83c0,2.8,2.27,5.06,5.06,5.06s5.06-2.27,5.06-5.06h0ZM169.16,165.15l-14.34-14.17c-1.1-1.09-2.88-1.09-3.98,0l-12.35,12.2-12.35-12.2c-1.1-1.09-2.88-1.09-3.98,0l-12.35,12.2-12.35-12.2c-1.1-1.09-2.88-1.09-3.98,0l-12.35,12.2-12.35-12.2c-1.1-1.09-2.88-1.09-3.98,0l-9.52,9.4V15.23c0-8.41-6.82-15.23-15.23-15.23s-15.23,6.82-15.23,15.23v91.73c0,5.28-4.28,9.56-9.56,9.56s-9.56-4.28-9.56-9.56v-42.15h9.56c1.56,0,2.83-1.27,2.83-2.83s-1.27-2.83-2.83-2.83H2.83c-1.56,0-2.83,1.27-2.83,2.83v44.98c0,8.41,6.82,15.23,15.23,15.23h23.02c1.56,0,2.83-1.27,2.83-2.83s-1.27-2.83-2.83-2.83h-11.18c2.2-2.7,3.39-6.08,3.39-9.56V15.23c0-5.28,4.28-9.56,9.56-9.56s9.56,4.28,9.56,9.56v151.94c0,1.56,1.27,2.83,2.83,2.83.74,0,1.46-.29,1.99-.82l12.35-12.2,12.35,12.2c1.1,1.09,2.88,1.09,3.98,0l12.35-12.2,12.35,12.2c1.1,1.09,2.88,1.09,3.98,0l12.35-12.2,12.35,12.2c1.1,1.09,2.88,1.09,3.98,0l12.35-12.2,12.35,12.2c1.14,1.07,2.93,1.02,4.01-.12,1.03-1.1,1.02-2.82-.02-3.91ZM69.06,5.67h85.71c5.28,0,9.56,4.28,9.56,9.56h0v120.42c0,1.56,1.27,2.83,2.83,2.83s2.83-1.27,2.83-2.83V15.23c0-8.41-6.82-15.23-15.23-15.23h-85.71c-1.56,0-2.83,1.27-2.83,2.83s1.27,2.83,2.83,2.83ZM134.58,94.21h-34.18c-1.56,0-2.83,1.27-2.83,2.83s1.27,2.83,2.83,2.83h34.18c1.56,0,2.83-1.27,2.83-2.83s-1.27-2.83-2.83-2.83ZM85.71,94.21h-1.42c-1.56,0-2.83,1.27-2.83,2.83s1.27,2.83,2.83,2.83h1.42c1.56,0,2.83-1.27,2.83-2.83s-1.27-2.83-2.83-2.83ZM134.58,115.46h-34.18c-1.56,0-2.83,1.27-2.83,2.83s1.27,2.83,2.83,2.83h34.18c1.56,0,2.83-1.27,2.83-2.83s-1.27-2.83-2.83-2.83ZM85.71,115.46h-1.42c-1.56,0-2.83,1.27-2.83,2.83s1.27,2.83,2.83,2.83h1.42c1.56,0,2.83-1.27,2.83-2.83s-1.27-2.83-2.83-2.83Z"/>
  </g>
</svg>