<?xml version="1.0" encoding="UTF-8"?>
<svg id="Capa_1" xmlns="http://www.w3.org/2000/svg" viewBox="0 0 800.12 800">
  <defs>
    <style>
      .cls-1 {
        fill: #182b54;
      }
    </style>
  </defs>
  <g id="_1._Graph_growth_happynes">
    <path class="cls-1" d="M800,786.67c0,7.36-5.97,13.33-13.33,13.33H236.18c-7.36,0-13.33-5.97-13.33-13.33v-210c0-7.36-5.97-13.33-13.33-13.33h-76.18c-7.36,0-13.33,5.97-13.33,13.33v143.33c0,7.36-5.97,13.33-13.33,13.33s-13.33-5.97-13.33-13.33v-143.33c0-22.09,17.91-40,40-40h76.18c22.09,0,40,17.91,40,40v196.67h201.92v-255c0-7.36-5.97-13.33-13.33-13.33h-76.2c-7.36,0-13.33,5.97-13.33,13.33v201.67c0,7.36-5.97,13.33-13.33,13.33s-13.33-5.97-13.33-13.33v-201.67c0-22.09,17.91-40,40-40h76.2c22.09,0,40,17.91,40,40v255h72.38v-346.67c0-22.09,17.91-40,40-40h76.18c22.09,0,40,17.91,40,40v293.33c0,7.36-5.97,13.33-13.33,13.33s-13.33-5.97-13.33-13.33v-293.33c0-7.36-5.97-13.33-13.33-13.33h-76.18c-7.36,0-13.33,5.97-13.33,13.33v346.67h209.52c7.36,0,13.33,5.97,13.33,13.33h0ZM159.45,773.33H13.33c-7.36,0-13.33,5.97-13.33,13.33s5.97,13.33,13.33,13.33h146.12c7.36,0,13.33-5.97,13.33-13.33s-5.97-13.33-13.33-13.33ZM728.97,303.18c6.03-4.23,7.49-12.55,3.26-18.58-4.23-6.03-12.55-7.49-18.57-3.26-92.17,64.68-220.32-1.35-220.32-114.68.08-77.29,62.71-139.92,140-140,94.37,0,162.07,92.1,133.5,182.32-2.08,7.06,1.96,14.48,9.03,16.55,6.86,2.02,14.09-1.73,16.39-8.5C826.32,109.45,745.52,0,633.33,0c-92.01.1-166.57,74.66-166.67,166.67,0,134.67,152.35,213.67,262.3,136.52ZM576.67,214.85c-4.42,5.89-3.22,14.25,2.67,18.67,32.01,23.97,75.99,23.97,108,0,5.89-4.42,7.08-12.78,2.67-18.67-4.42-5.89-12.78-7.08-18.67-2.67-22.52,16.89-53.48,16.89-76,0-5.9-4.41-14.25-3.2-18.66,2.69,0,0,0,0,0,0v-.03ZM597.55,149.3c7.36,0,13.33-5.97,13.33-13.33v-17.85c0-7.36-5.97-13.33-13.33-13.33s-13.33,5.97-13.33,13.33v17.88c0,7.36,5.97,13.33,13.33,13.33v-.03ZM682.45,135.97v-17.85c0-7.36-5.97-13.33-13.33-13.33s-13.33,5.97-13.33,13.33v17.88c0,7.36,5.97,13.33,13.33,13.33s13.33-5.97,13.33-13.33v-.03ZM96.67,449.9c104.61-13.33,204.63-51,292.03-110l-3.52,19.35c-1.44,7.22,3.25,14.24,10.47,15.68,7.22,1.44,14.24-3.25,15.68-10.47.03-.15.06-.29.08-.44l10-55c1.32-7.24-3.48-14.19-10.73-15.51-.54-.1-1.08-.16-1.62-.19l-58.33-3.33c-7.36-.42-13.68,5.2-14.1,12.57-.42,7.36,5.2,13.68,12.57,14.1l24.27,1.38c-83.86,56.54-179.8,92.64-280.13,105.4-7.31.92-12.49,7.59-11.57,14.9.92,7.31,7.59,12.49,14.9,11.57Z"/>
  </g>
</svg>