<?xml version="1.0" encoding="UTF-8"?>
<svg id="Capa_1" xmlns="http://www.w3.org/2000/svg" viewBox="0 0 453.33 800">
  <defs>
    <style>
      .cls-1 {
        fill: #404a66;
      }
    </style>
  </defs>
  <g id="_36._Melting_ice_cream">
    <path class="cls-1" d="M453.33,421.67c0,22.09-17.91,40-40,40s-40-17.91-40-40v-80c0-11.97-9.7-21.67-21.67-21.67s-21.67,9.7-21.67,21.67v7.5c-.04,25.3-20.54,45.8-45.83,45.83-10.58,0-19.16,8.59-19.17,19.17,0,7.36-5.97,13.33-13.33,13.33-26.92,0-11.83-59.17,32.5-59.17,10.58,0,19.16-8.59,19.17-19.17v-7.5c0-26.69,21.64-48.33,48.33-48.33s48.33,21.64,48.33,48.33h0v80c0,7.36,5.97,13.33,13.33,13.33s13.33-5.97,13.33-13.33v-195c0-110.46-89.54-200-200-200S26.67,116.21,26.67,226.67c0,7.36-5.97,13.33-13.33,13.33s-13.33-5.97-13.33-13.33C0,101.67,101.67,0,226.67,0s226.67,101.67,226.67,226.67v195ZM440,510c-7.36,0-13.33,5.97-13.33,13.33v33.33c0,22.09-17.91,40-40,40h-218.33c-7.36,0-13.33,5.97-13.33,13.33v118.33c0,39.58,32.09,71.67,71.67,71.67s71.67-32.09,71.67-71.67v-51.67c0-7.36-5.97-13.33-13.33-13.33s-13.33,5.97-13.33,13.33v51.67c0,24.85-20.15,45-45,45s-45-20.15-45-45v-105h205c36.82,0,66.67-29.85,66.67-66.67v-33.33c0-7.36-5.97-13.33-13.33-13.33ZM166.67,340v164.17c.03,27.14,22.02,49.14,49.17,49.17,47.2,0,63.33-62.5,35.83-62.5-7.36,0-13.33,5.97-13.33,13.33,0,12.43-10.07,22.5-22.5,22.5s-22.5-10.07-22.5-22.5v-164.17c0-30.38-24.62-55-55-55s-55,24.62-55,55v39.45c0,15.65-12.69,28.33-28.33,28.33s-28.33-12.69-28.33-28.33v-61.12c0-7.36-5.97-13.33-13.33-13.33s-13.33,5.97-13.33,13.33v238.33c0,36.82,29.85,66.67,66.67,66.67h37.08c7.36,0,13.33-5.97,13.33-13.33s-5.97-13.33-13.33-13.33h-37.08c-22.09,0-40-17.91-40-40v-130.1c36.37,21.95,83.33-4.32,83.33-47.12v-39.45c0-15.65,12.69-28.33,28.33-28.33s28.33,12.69,28.33,28.33Z"/>
  </g>
</svg>