<svg width="38" height="37" viewBox="0 0 38 37" fill="none" xmlns="http://www.w3.org/2000/svg">
<path d="M13.8714 36.5638C13.8626 36.5638 13.8522 36.5638 13.8433 36.5638C13.2161 36.534 12.5816 36.5221 11.9678 36.5102C10.5785 36.4849 9.14038 36.4581 7.7556 36.2112C5.35819 35.7842 3.65761 33.5259 3.62055 30.7216C3.59831 29.0569 3.60276 27.3654 3.6072 25.7304C3.60869 25.0118 3.61165 24.2948 3.61017 23.5762V19.8897C2.1824 19.7439 1.19793 18.9926 0.762038 17.7132C0.314284 16.4011 0.668632 15.1663 1.78653 14.1427C3.13276 12.9094 4.47899 11.6747 5.82373 10.4399C6.73703 9.60081 7.65033 8.76175 8.56512 7.92418C10.6616 6.00208 12.7595 4.08147 14.8574 2.16234C17.3779 -0.143583 20.5077 -0.140608 23.0252 2.1668C24.367 3.39713 25.7073 4.62745 27.0476 5.85777C29.9031 8.47909 32.855 11.1897 35.7684 13.8437C36.701 14.6932 37.6958 15.8938 37.1146 17.6567C36.6787 18.9777 35.7091 19.7261 34.2294 19.8882V21.6169C34.2294 22.5244 34.2294 23.4304 34.2294 24.3379C34.2294 26.3954 34.2324 28.5228 34.2265 30.616C34.2161 34.0332 31.8305 36.4403 28.4264 36.47C27.4301 36.479 26.453 36.476 25.4182 36.4745C24.9511 36.4745 24.4782 36.473 23.9993 36.473C23.6716 36.473 23.4062 36.2067 23.4062 35.8779V35.0032C23.4062 33.941 23.4062 32.8787 23.4092 31.8165C23.4122 29.3529 23.4151 26.8045 23.3973 24.3007C23.3825 22.2745 22.0333 20.5651 20.0422 20.0474C18.0658 19.5327 15.9842 20.4163 15.0931 22.1465C14.7343 22.8443 14.5164 23.7577 14.4971 24.6503C14.4423 27.1452 14.4512 29.6862 14.4601 32.1438C14.463 33.087 14.4675 34.0287 14.4675 34.9719V35.9702C14.4675 36.1323 14.4007 36.2885 14.2836 36.4016C14.1724 36.5072 14.0271 36.5653 13.8744 36.5653L13.8714 36.5638ZM18.9376 1.60892C17.8182 1.60892 16.6988 2.08647 15.6551 3.04008C13.5571 4.95921 11.4592 6.87982 9.36425 8.80192C8.44947 9.63949 7.53617 10.4785 6.62287 11.3176C5.27813 12.5524 3.9319 13.7887 2.58567 15.022C1.81174 15.7301 1.58935 16.4621 1.88439 17.3279C2.17647 18.1818 2.77841 18.6207 3.77919 18.71C3.90225 18.7204 4.01493 18.7427 4.13354 18.7665C4.18691 18.7769 4.24325 18.7888 4.30701 18.7992C4.59019 18.8498 4.79627 19.0968 4.79627 19.3854V23.5732C4.79627 24.2918 4.79479 25.0118 4.79331 25.7304C4.78886 27.3609 4.78441 29.0479 4.80665 30.7037C4.83482 32.9293 6.1336 34.7116 7.96317 35.0374C9.25602 35.268 10.5845 35.2918 11.99 35.3186C12.4125 35.326 12.844 35.3349 13.2799 35.3483V34.969C13.2799 34.0273 13.2769 33.087 13.2725 32.1453C13.2636 29.6802 13.2547 27.1303 13.3095 24.6206C13.3333 23.536 13.5927 22.4619 14.0375 21.5961C15.1806 19.3764 17.8301 18.2398 20.3372 18.8915C22.8562 19.546 24.5612 21.7151 24.5805 24.2873C24.5998 26.7971 24.5968 29.347 24.5923 31.8136C24.5923 32.8758 24.5894 33.9365 24.5894 34.9987V35.2799C24.8681 35.2799 25.1439 35.2799 25.4182 35.2814C26.4501 35.2844 27.4242 35.2858 28.4131 35.2769C31.1708 35.2531 33.03 33.3771 33.0389 30.6085C33.0448 28.5183 33.0433 26.3909 33.0418 24.3349C33.0418 23.4274 33.0418 22.5199 33.0418 21.6124V19.3214C33.0418 18.9941 33.3043 18.7293 33.6305 18.7263C34.9337 18.7159 35.6602 18.2696 35.9878 17.2773C36.2858 16.3743 36.0012 15.6572 34.9707 14.72C32.0544 12.0644 29.1025 9.35385 26.2455 6.73105C24.9052 5.50073 23.5649 4.2704 22.2246 3.04008C21.1808 2.08349 20.0585 1.60446 18.9376 1.60446V1.60892Z" fill="#2057F2"/>
</svg>
