<?xml version="1.0" encoding="UTF-8"?>
<svg id="Capa_1" xmlns="http://www.w3.org/2000/svg" viewBox="0 0 800 770.51">
  <defs>
    <style>
      .cls-1 {
        fill: #182b54;
      }
    </style>
  </defs>
  <g id="_39._Discount_badge">
    <path class="cls-1" d="M778.42,446.94l-21.97,27.26c-11.04,13.7-16.65,30.98-15.77,48.55l1.75,35.01c2.08,46.13-28.02,87.57-72.54,99.85l-33.79,9.15c-16.99,4.59-31.69,15.27-41.3,30.01l-19.22,29.26c-25.43,38.55-74.14,54.38-117.37,38.15l-32.71-12.47c-16.44-6.26-34.61-6.26-51.05,0l-32.71,12.47c-43.23,16.24-91.95.41-117.37-38.15l-19.14-29.31c-9.62-14.73-24.32-25.41-41.3-30.01l-33.79-9.14c-44.52-12.28-74.62-53.72-72.54-99.85.37-7.37,6.64-13.04,14-12.67,7.37.37,13.04,6.64,12.67,14h0c-1.52,33.61,20.4,63.81,52.83,72.77l33.79,9.14c23.31,6.3,43.48,20.95,56.69,41.16l19.16,29.31c18.53,28.1,54.04,39.64,85.55,27.79l32.68-12.45c22.55-8.6,47.47-8.6,70.02,0l32.73,12.45c31.5,11.85,67.01.31,85.53-27.79l19.16-29.31c13.2-20.21,33.38-34.86,56.69-41.16l33.79-9.15c32.44-8.94,54.39-39.14,52.87-72.76l-1.75-35.01c-1.2-24.11,6.51-47.82,21.67-66.61l21.91-27.18c20.99-26.3,20.99-63.63,0-89.93l-21.97-27.28c-15.16-18.79-22.88-42.49-21.67-66.61l1.75-35.01c1.52-33.62-20.42-63.82-52.87-72.77l-33.79-9.14c-23.31-6.3-43.48-20.95-56.69-41.16l-19.09-29.31c-18.52-28.1-54.03-39.64-85.53-27.79l-32.73,12.45c-22.55,8.6-47.47,8.6-70.02,0l-32.71-12.45c-31.51-11.85-67.02-.31-85.55,27.79l-19.16,29.31c-13.2,20.21-33.38,34.86-56.69,41.16l-33.79,9.15c-32.44,8.94-54.39,39.14-52.87,72.76l1.67,35.01c1.2,24.11-6.51,47.82-21.67,66.61l-21.82,27.18c-20.99,26.3-20.99,63.63,0,89.93l21.97,27.28c4.29,5.99,2.92,14.32-3.06,18.61-5.53,3.97-13.17,3.13-17.71-1.94l-21.97-27.18c-28.78-36.09-28.78-87.28,0-123.37l21.97-27.26c11.04-13.7,16.65-30.98,15.77-48.55l-1.67-35.01c-2.08-46.1,27.99-87.51,72.46-99.82l33.79-9.15c16.99-4.59,31.69-15.27,41.3-30.01l19.14-29.29C249.78,5.92,298.49-9.91,341.72,6.33l32.71,12.47c16.44,6.26,34.61,6.26,51.05,0l32.71-12.47c43.23-16.24,91.95-.4,117.37,38.15l19.14,29.31c9.62,14.73,24.32,25.41,41.3,30.01l33.79,9.14c44.52,12.28,74.62,53.72,72.54,99.85l-1.75,35.01c-.88,17.57,4.74,34.85,15.77,48.55l22.06,27.23c28.78,36.09,28.78,87.28,0,123.37h0ZM270.97,123.9c-176.73,88.15-220.37,323.84-76.93,467.27,114.49,114.5,297.28,114.55,411.8,0,55.39-55.35,85.88-128.48,85.88-205.92,0-160.29-131.53-291.76-291.76-291.76-7.37,0-13.34,5.97-13.34,13.34s5.97,13.34,13.34,13.34c146.17,0,265.09,118.92,265.09,265.09s-118.92,265.09-265.09,265.09-265.09-118.92-265.09-265.09c0-99.43,58.09-192.65,148-237.5,6.49-3.49,8.92-11.58,5.42-18.07-3.34-6.2-10.93-8.74-17.33-5.79h0ZM470.21,296.12l-170.77,170.82c-4.86,5.53-4.31,13.96,1.22,18.82,5.03,4.42,12.57,4.42,17.6,0l170.82-170.77c5.21-5.21,5.21-13.66,0-18.87-5.21-5.21-13.66-5.21-18.87,0ZM471.3,436.17c7.37,0,13.34-5.97,13.34-13.34s-5.97-13.34-13.34-13.34c-25.98,0-47.03,21.06-47.03,47.03,0,25.98,21.06,47.03,47.03,47.03,25.95,0,47-21.02,47.03-46.97,0-7.37-5.97-13.34-13.34-13.34s-13.34,5.97-13.34,13.34c0,11.24-9.1,20.36-20.34,20.37-11.24,0-20.36-9.1-20.37-20.34,0-11.24,9.1-20.36,20.34-20.37h.02v-.08ZM375.63,313.83c.05,25.98-20.97,47.07-46.95,47.12s-47.07-20.97-47.12-46.95c-.05-25.98,20.97-47.07,46.95-47.12.03,0,.07,0,.1,0,25.96.03,47,21.07,47.02,47.03v-.08ZM348.96,313.83c0-11.24-9.1-20.36-20.34-20.37-11.24,0-20.36,9.1-20.37,20.34,0,11.24,9.1,20.36,20.34,20.37h.03c11.19-.03,20.27-9.07,20.34-20.26v-.08Z"/>
  </g>
</svg>