<svg width="37" height="36" viewBox="0 0 37 36" fill="none" xmlns="http://www.w3.org/2000/svg">
<path d="M18.4997 24.2956C15.165 24.2956 12.4519 21.551 12.4519 18.1771C12.4519 14.8032 15.165 12.0591 18.4997 12.0591C21.8344 12.0591 24.5481 14.8037 24.5481 18.1771C24.5481 21.5504 21.835 24.2956 18.4997 24.2956ZM18.4997 13.0437C15.7014 13.0437 13.4252 15.3468 13.4252 18.1771C13.4252 21.0073 15.7019 23.3104 18.4997 23.3104C21.2975 23.3104 23.5742 21.0073 23.5742 18.1771C23.5742 15.3468 21.2975 13.0437 18.4997 13.0437Z" fill="#FAFAFA"/>
<path d="M23.4858 35.9995L21.3675 32.9586C19.4723 33.3238 17.5266 33.3238 15.6314 32.9586L13.5131 35.9995L7.66266 33.1878L8.72427 29.6381C7.26592 28.3943 6.03781 26.8577 5.14763 25.1637L1.44461 25.4066L0 19.0886L3.44476 17.7028C3.5074 15.7609 3.93491 13.8865 4.71738 12.1223L2.2194 9.38525L6.26805 4.31862L9.50125 6.14258C11.0585 4.98163 12.7933 4.14697 14.6665 3.65725L15.2533 0H21.7467L22.3335 3.65725C24.2067 4.14697 25.9415 4.98163 27.4987 6.14258L30.7319 4.31862L34.7806 9.38525L32.2826 12.1223C33.0656 13.8865 33.4931 15.7609 33.5552 17.7028L37 19.0886L35.5554 25.4066L31.8524 25.1637C30.9622 26.8582 29.7341 28.3943 28.2757 29.6381L29.3373 33.1884L23.4869 36L23.4858 35.9995ZM8.84681 32.6652L13.1834 34.7497L15.1951 31.8624L15.516 31.9314C17.4821 32.3548 19.5168 32.3548 21.4824 31.9314L21.8033 31.8624L23.815 34.7497L28.1515 32.6652L27.1432 29.2942L27.3976 29.0869C28.945 27.8262 30.2314 26.2166 31.1182 24.4327L31.2644 24.1393L34.7806 24.3702L35.8516 19.6869L32.5799 18.3707L32.5766 18.0428C32.5546 16.0143 32.109 14.0614 31.2529 12.2396L31.1133 11.9424L33.486 9.34247L30.4852 5.58706L27.4136 7.31944L27.1542 7.11763C25.5552 5.87168 23.7479 5.00192 21.7835 4.53359L21.4637 4.45736L20.9065 0.983822H16.0935L15.5363 4.45736L15.2165 4.53359C13.2521 5.00192 11.4448 5.87168 9.84579 7.11763L9.58643 7.31944L6.51532 5.58706L3.51455 9.34247L5.88725 11.9424L5.74768 12.2396C4.89157 14.062 4.44593 16.0143 4.42395 18.0428L4.42066 18.3707L1.14899 19.6869L2.21994 24.3702L5.73614 24.1393L5.8823 24.4327C6.76918 26.2166 8.05554 27.8262 9.60291 29.0869L9.85733 29.2942L8.84901 32.6652H8.84681Z" fill="#FAFAFA"/>
</svg>
