<?xml version="1.0" encoding="UTF-8"?>
<svg id="Capa_1" xmlns="http://www.w3.org/2000/svg" viewBox="0 0 800 668.33">
  <defs>
    <style>
      .cls-1 {
        fill: #182b54;
      }
    </style>
  </defs>
  <g id="_5._Card_payment">
    <path class="cls-1" d="M121.67,105h561.67c7.36,0,13.33,5.97,13.33,13.33v143.33c0,7.36-5.97,13.33-13.33,13.33s-13.33-5.97-13.33-13.33v-130H121.67c-7.36,0-13.33-5.97-13.33-13.33s5.97-13.33,13.33-13.33ZM13.33,235h576.67c7.36,0,13.33-5.97,13.33-13.33s-5.97-13.33-13.33-13.33H26.67V66.67c0-22.09,17.91-40,40-40h563.33c7.36,0,13.33-5.97,13.33-13.33s-5.97-13.33-13.33-13.33H66.67C29.85,0,0,29.85,0,66.67v155C0,229.03,5.97,235,13.33,235ZM110,373.33h100c7.36,0,13.33-5.97,13.33-13.33s-5.97-13.33-13.33-13.33h-100c-7.36,0-13.33,5.97-13.33,13.33s5.97,13.33,13.33,13.33ZM110,453.33h166.67c7.36,0,13.33-5.97,13.33-13.33s-5.97-13.33-13.33-13.33H110c-7.36,0-13.33,5.97-13.33,13.33s5.97,13.33,13.33,13.33ZM625,554.33c-13.16-.02-23.81-10.68-23.83-23.83,0-7.36-5.97-13.33-13.33-13.33s-13.33,5.97-13.33,13.33c.04,22.73,15.25,42.64,37.17,48.67v11.03c0,7.36,5.97,13.33,13.33,13.33s13.33-5.97,13.33-13.33v-11.03c26.9-7.38,42.72-35.17,35.34-62.06-6.02-21.92-25.94-37.12-48.67-37.14-13.16,0-23.83-10.67-23.83-23.83s10.67-23.83,23.83-23.83,23.83,10.67,23.83,23.83h0c0,7.36,5.97,13.33,13.33,13.33s13.33-5.97,13.33-13.33c-.06-22.72-15.26-42.61-37.17-48.63v-11.03c0-7.36-5.97-13.33-13.33-13.33s-13.33,5.97-13.33,13.33v11.03c-26.9,7.38-42.72,35.17-35.34,62.06,6.02,21.92,25.94,37.12,48.67,37.14,13.16,0,23.83,10.67,23.83,23.83s-10.67,23.83-23.83,23.83v-.03ZM625,318.33c-106.48,0-189.37,95.92-172.93,201.67H66.67c-22.09,0-40-17.91-40-40v-171.12c0-7.36-5.97-13.33-13.33-13.33s-13.33,5.97-13.33,13.33v171.12c0,36.82,29.85,66.67,66.67,66.67,424.6,0,402.87.15,405.08-.42,7.13-1.85,11.41-9.12,9.57-16.25,0,0,0,0,0,0-24.1-93.33,46.95-185,143.68-185,81.92-.26,148.54,65.95,148.8,147.87s-65.95,148.54-147.87,148.8c-35.59.11-70.03-12.58-97.04-35.75-5.62-4.76-14.03-4.06-18.79,1.56-4.72,5.57-4.07,13.9,1.44,18.69,31.59,27.13,71.83,42.08,113.47,42.17,96.15,0,175-78.87,175-175s-78.87-175-175-175h0Z"/>
  </g>
</svg>