<?xml version="1.0" encoding="UTF-8"?>
<svg id="Capa_1" xmlns="http://www.w3.org/2000/svg" viewBox="0 0 783.64 800">
  <defs>
    <style>
      .cls-1 {
        fill: #404a66;
      }
    </style>
  </defs>
  <g id="_11._Umbrella_beach">
    <path class="cls-1" d="M783.64,786.67c0,7.36-6.33,13.33-14.13,13.33H117.18c-7.8,0-14.13-5.97-14.13-13.33s6.33-13.33,14.13-13.33h308.37c4.7-64.23,43.22-121.97,102.57-153.74l-154.65-252.72-295.46,160.96c-6.76,3.68-15.4,1.5-19.3-4.88,0,0,0,0,0,0C-42.79,357.27,16.36,145.37,191.19,48.37c1.84-1.78,4.17-3.05,6.73-3.65,176.37-93.5,399.64-35.67,500.68,129.69,4.08,6.28,1.99,14.49-4.66,18.34-6.65,3.85-15.35,1.88-19.43-4.4-.13-.2-.25-.4-.37-.61C581.1,35.41,375.66-18.21,212.87,67.35c-28.35,84.15-29.68,174.34-3.82,259.21,2.16,7.08-2.17,14.47-9.67,16.51-7.5,2.04-15.34-2.05-17.5-9.12h0c-24.36-79.85-26.02-164.34-4.84-244.99C42.08,182.09-2.24,356.39,76.38,497.93l424.96-231.51c-49.55-72.67-120.41-130.19-203.96-165.58-7.12-3.01-10.3-10.91-7.11-17.62,3.19-6.72,11.56-9.72,18.68-6.71,88.99,37.68,164.38,99.04,216.95,176.56l57.58-31.38c6.76-3.68,15.4-1.5,19.31,4.88,3.9,6.38,1.59,14.53-5.18,18.22l-199.6,108.75c172.01,281.09,162.51,265.36,163.13,267.11,2.34,6.42-.81,13.48-7.31,16.38-56.62,25.44-94.65,77.35-99.89,136.31h315.58c7.8,0,14.13,5.97,14.13,13.33ZM36.55,773.33H14.13c-7.8,0-14.13,5.97-14.13,13.33s6.33,13.33,14.13,13.33h22.42c7.8,0,14.13-5.97,14.13-13.33s-6.33-13.33-14.13-13.33ZM625.97,594.56c-7.8.1-14.05,6.14-13.95,13.51.1,7.36,6.51,13.25,14.32,13.16h87.15c7.8,0,14.13-5.97,14.13-13.33s-6.33-13.33-14.13-13.33c-62.78-.02-85.37-.03-87.52,0ZM626.43,669.29c-7.8,0-14.13,5.97-14.13,13.33s6.33,13.33,14.13,13.33h12.68c7.8,0,14.13-5.97,14.13-13.33s-6.33-13.33-14.13-13.33h-12.68ZM561.07,709.29c-7.8,0-14.13,5.97-14.13,13.33s6.33,13.33,14.13,13.33h12.68c7.8,0,14.13-5.97,14.13-13.33s-6.33-13.33-14.13-13.33h-12.68Z"/>
  </g>
</svg>