<?xml version="1.0" encoding="UTF-8"?>
<svg id="Capa_1" xmlns="http://www.w3.org/2000/svg" viewBox="0 0 800 771.67">
  <defs>
    <style>
      .cls-1 {
        fill: #404a66;
      }
    </style>
  </defs>
  <g id="_50._Bagage_with_stickers">
    <path class="cls-1" d="M101.67,758.33c0,7.36-5.97,13.33-13.33,13.33h-21.67c-36.82,0-66.67-29.85-66.67-66.67V205c0-36.82,29.85-66.67,66.67-66.67h118.62c7.36,0,13.33,5.97,13.33,13.33s-5.97,13.33-13.33,13.33h-18.62v76.67c0,7.36-5.97,13.33-13.33,13.33s-13.33-5.97-13.33-13.33v-76.67h-73.33c-22.09,0-40,17.91-40,40v500c0,22.09,17.91,40,40,40h21.67c7.36,0,13.33,5.97,13.33,13.33ZM800,205v500c0,36.82-29.85,66.67-66.67,66.67h-86.67c-7.36,0-13.33-5.97-13.33-13.33v-226.67c0-7.36,5.97-13.33,13.33-13.33s13.33,5.97,13.33,13.33v213.33h73.33c22.09,0,40-17.91,40-40V205c0-22.09-17.91-40-40-40h-73.33v90c0,7.36-5.97,13.33-13.33,13.33s-13.33-5.97-13.33-13.33v-90h-63.33v150.48l96.82-25.93c21.58-5.79,43.76,7.01,49.55,28.59,1.84,6.87,1.84,14.1,0,20.96l-26.35,98.33c-5.78,21.59-27.97,34.4-49.56,28.62-6.86-1.84-13.12-5.45-18.14-10.47l-72.02-72.02c-12.71-12.63-15.55-32.14-6.97-47.87v-170.7h-286.67v143.33c19.45,16.93,30.62,41.46,30.62,67.25,0,62.28-62.42,105.52-120.62,83.72v285.7h63.33v-251.67c0-7.36,5.97-13.33,13.33-13.33s13.33,5.97,13.33,13.33v251.67h286.67v-285c0-7.36,5.97-13.33,13.33-13.33s13.33,5.97,13.33,13.33v285h16.67c7.36,0,13.33,5.97,13.33,13.33s-5.97,13.33-13.33,13.33H153.33c-7.36,0-13.33-5.97-13.33-13.33v-314.72c-19.96-16.94-31.46-41.8-31.45-67.98,0-62.57,63.03-105.93,121.45-83.33v-140.63c0-7.36,5.97-13.33,13.33-13.33h26.67v-71.67c0-36.82,29.85-66.67,66.67-66.67h133.33c36.82,0,66.67,29.85,66.67,66.67v16.67c0,7.36-5.97,13.33-13.33,13.33h-171.67c-7.36,0-13.33-5.97-13.33-13.33s5.97-13.33,13.33-13.33h158.33v-3.33c0-22.09-17.91-40-40-40h-133.33c-22.09,0-40,17.91-40,40v71.67h436.67c36.82,0,66.67,29.85,66.67,66.67h0ZM260.62,375.63c-.05-34.61-28.09-62.65-62.7-62.7-58.97,0-85.23,74.38-39.35,111.47,1.86.8,3.51,2.02,4.83,3.55,41.47,27.43,97.22-2.43,97.22-52.32ZM575.35,341.67c-7.36,1.96-11.73,9.51-9.77,16.86.63,2.35,1.87,4.5,3.59,6.22l72,72c5.39,5.39,14.13,5.39,19.52,0,1.71-1.71,2.94-3.84,3.57-6.18l26.37-98.33c1.97-7.38-2.42-14.96-9.8-16.93-1.1-.29-2.23-.45-3.37-.47-2.87-.03,5.4-1.97-102.1,26.83h0ZM485.75,619.78l-19.88,47.13c-11.44,27.14-42.71,39.87-69.85,28.43-.17,0,2.67,1.13-47.13-19.87-27.14-11.44-39.88-42.72-28.44-69.86,0,0,0,0,0,0l19.87-47.13c11.41-27.15,42.68-39.91,69.83-28.5.01,0,.02,0,.03.01l47.13,20c27.1,11.44,39.82,42.66,28.43,69.78ZM446.97,574.5l-47.13-19.87c-13.56-5.76-29.21.57-34.97,14.12-.01.03-.02.05-.03.08l-19.83,47.13c-5.76,13.56.57,29.21,14.12,34.97.03.01.05.02.08.03l47.13,19.87c13.56,5.76,29.21-.57,34.97-14.12.01-.03.02-.05.03-.08l19.87-47.13c5.75-13.56-.58-29.21-14.14-34.96-.03-.01-.06-.03-.09-.04h0Z"/>
  </g>
</svg>