<?xml version="1.0" encoding="UTF-8"?>
<svg id="Capa_1" xmlns="http://www.w3.org/2000/svg" viewBox="0 0 165.98 165.99">
  <defs>
    <style>
      .cls-1 {
        fill: #fff;
      }
    </style>
  </defs>
  <path class="cls-1" d="M22.41,97.48c-.38.35-.63.73-.78,1.14L.8,150.49c-2.31,5.79.53,12.39,6.33,14.7,1.32.52,2.71.79,4.13.8,1.44-.02,2.88-.29,4.25-.83l51.79-20.79c.47-.17.85-.42,1.14-.74l91.99-91.94c7.4-7.45,7.4-19.58,0-27.04l-19.1-19.1c-3.73-3.7-8.62-5.55-13.52-5.55s-9.8,1.85-13.53,5.55L22.41,97.48ZM136.16,10.71l19.1,19.1c4.57,4.59,4.57,12.06,0,16.65l-91.37,91.37-.38.15-50.46,20.41c-.69.49-1.49.74-2.29.74-1.08,0-2.16-.44-2.94-1.32-1.23-1.39-1.32-3.42-.26-4.9l18.59-46.36,22.21,22.21c.68.67,1.62,1.06,2.58,1.06h.02c.97,0,1.88-.38,2.57-1.06,1.41-1.42,1.41-3.74-.01-5.16l-23.34-23.64,63.76-63.7,22.33,22.63c.67.67,1.58,1.04,2.55,1.05.88-.02,1.77-.4,2.44-1.06,1.44-1.42,1.45-3.75.02-5.19l-22.17-22.6,20.39-20.39c4.6-4.57,12.06-4.57,16.65,0Z"/>
</svg>