<svg width="170" height="144" viewBox="0 0 170 144" fill="none" xmlns="http://www.w3.org/2000/svg">
<path d="M168.422 132.509L91.3391 4.03202C89.8092 1.48514 87.4976 0.0246582 84.9999 0.0246582C82.5001 0.0246582 80.1907 1.48514 78.6607 4.03202L1.57563 132.509C0.0300281 135.085 -0.158131 137.803 1.06491 139.962C2.28571 142.121 4.71163 143.36 7.71995 143.36H162.28C165.288 143.36 167.714 142.121 168.935 139.962C170.158 137.805 169.97 135.088 168.422 132.509ZM162.28 136.64H7.71995C7.42651 136.64 7.20251 136.611 7.04571 136.577C7.09723 136.427 7.18683 136.221 7.33691 135.968L84.422 7.49282C84.7043 7.02466 84.935 6.83426 84.9596 6.76706C85.0604 6.83426 85.2934 7.02466 85.5756 7.49282L162.661 135.968C162.811 136.219 162.9 136.425 162.954 136.575C162.795 136.611 162.573 136.64 162.28 136.64Z" fill="black"/>
<path d="M84.9999 105C86.8569 105 88.3599 103.495 88.3599 101.64V38.64C88.3599 36.7831 86.8569 35.28 84.9999 35.28C83.1429 35.28 81.6399 36.7831 81.6399 38.64V101.64C81.6399 103.495 83.1429 105 84.9999 105Z" fill="black"/>
<path d="M85 118.998C86.9324 118.998 88.4989 117.431 88.4989 115.499C88.4989 113.566 86.9324 112 85 112C83.0676 112 81.5011 113.566 81.5011 115.499C81.5011 117.431 83.0676 118.998 85 118.998Z" fill="black"/>
</svg>
