<svg width="34" height="42" viewBox="0 0 34 42" fill="none" xmlns="http://www.w3.org/2000/svg">
<path d="M33.5973 34.1139C34.2426 32.8258 34.104 31.3082 33.2412 30.1564L31.3222 27.5993C30.5838 26.6123 30.1249 25.4436 29.9982 24.2177L28.9587 14.1541C28.3421 8.19633 23.3593 3.70347 17.3705 3.70347C11.3816 3.70347 6.3988 8.19633 5.78223 14.1541L4.74266 24.2177C4.616 25.4436 4.15715 26.6123 3.41869 27.5993L1.49968 30.1564C0.634562 31.3082 0.498345 32.8258 1.1436 34.1139C1.78885 35.402 3.08173 36.2026 4.52279 36.2026H30.2205C31.6616 36.2026 32.9569 35.402 33.5997 34.1139H33.5973ZM2.49144 33.4376C2.09951 32.6537 2.17838 31.7647 2.70653 31.0621L4.62556 28.505C5.52891 27.3005 6.09051 25.8714 6.24585 24.373L7.28543 14.3095C7.82314 9.12597 12.1583 5.21383 17.3705 5.21383C22.5826 5.21383 26.9178 9.12358 27.4555 14.3095L28.4951 24.373C28.6504 25.8714 29.2096 27.3005 30.1154 28.505L32.0344 31.0621C32.5601 31.7647 32.6414 32.6537 32.2495 33.4376C31.8575 34.2214 31.0976 34.6899 30.2205 34.6899H4.52279C3.64572 34.6899 2.88815 34.2214 2.49383 33.4376H2.49144Z" fill="#FAFAFA"/>
<path d="M19.6356 37.7163C19.6356 38.9662 18.6175 39.9843 17.3676 39.9843C16.1178 39.9843 15.0997 38.9662 15.0997 37.7163C15.0997 37.2981 14.7627 36.9612 14.3445 36.9612C13.9263 36.9612 13.5893 37.2981 13.5893 37.7163C13.5893 39.8002 15.2837 41.4946 17.3676 41.4946C19.4516 41.4946 21.1459 39.8002 21.1459 37.7163C21.1459 37.2981 20.809 36.9612 20.3908 36.9612C19.9725 36.9612 19.6356 37.2981 19.6356 37.7163Z" fill="#FAFAFA"/>
<path d="M19.6364 2.19005C20.0546 2.19005 20.3915 1.85308 20.3915 1.43486C20.3915 1.01665 20.0546 0.679688 19.6364 0.679688H15.1005C14.6823 0.679688 14.3453 1.01665 14.3453 1.43486C14.3453 1.85308 14.6823 2.19005 15.1005 2.19005H19.6364Z" fill="#FAFAFA"/>
</svg>
