<?xml version="1.0" encoding="UTF-8"?>
<svg id="Capa_1" xmlns="http://www.w3.org/2000/svg" viewBox="0 0 166 166">
  <defs>
    <style>
      .cls-1 {
        fill: #182b54;
      }
    </style>
  </defs>
  <path class="cls-1" d="M90.1,116.43c0,8.27,6.73,15,15,15h11.33c8.27,0,15-6.73,15-15v-11.33c0-8.27-6.73-15-15-15h-11.33c-8.27,0-15,6.73-15,15v11.33ZM97.43,105.1c0-4.23,3.44-7.67,7.67-7.67h11.33c4.23,0,7.67,3.44,7.67,7.67v11.33c0,4.23-3.44,7.67-7.67,7.67h-11.33c-4.23,0-7.67-3.44-7.67-7.67v-11.33Z"/>
  <path class="cls-1" d="M131.43,49.57c0-8.27-6.73-15-15-15h-11.33c-8.27,0-15,6.73-15,15v11.33c0,8.27,6.73,15,15,15h11.33c8.27,0,15-6.73,15-15v-11.33ZM124.1,60.9c0,4.23-3.44,7.67-7.67,7.67h-11.33c-4.23,0-7.67-3.44-7.67-7.67v-11.33c0-4.23,3.44-7.67,7.67-7.67h11.33c4.23,0,7.67,3.44,7.67,7.67v11.33Z"/>
  <path class="cls-1" d="M34.57,116.43c0,8.27,6.73,15,15,15h11.33c8.27,0,15-6.73,15-15v-11.33c0-8.27-6.73-15-15-15h-11.33c-8.27,0-15,6.73-15,15v11.33ZM41.9,105.1c0-4.23,3.44-7.67,7.67-7.67h11.33c4.23,0,7.67,3.44,7.67,7.67v11.33c0,4.23-3.44,7.67-7.67,7.67h-11.33c-4.23,0-7.67-3.44-7.67-7.67v-11.33Z"/>
  <path class="cls-1" d="M145.33,0H20.67C9.27,0,0,9.27,0,20.67v124.67c0,11.4,9.27,20.67,20.67,20.67h124.67c11.4,0,20.67-9.27,20.67-20.67,0-2.02-1.64-3.67-3.67-3.67s-3.67,1.64-3.67,3.67c0,7.35-5.98,13.33-13.33,13.33H20.67c-7.35,0-13.33-5.98-13.33-13.33V20.67c0-7.35,5.98-13.33,13.33-13.33h124.67c7.35,0,13.33,5.98,13.33,13.33v92.59c0,2.02,1.64,3.67,3.67,3.67s3.67-1.64,3.67-3.67V20.67c0-11.4-9.27-20.67-20.67-20.67Z"/>
  <path class="cls-1" d="M75.9,49.57c0-8.27-6.73-15-15-15h-11.33c-8.27,0-15,6.73-15,15v11.33c0,8.27,6.73,15,15,15h11.33c8.27,0,15-6.73,15-15v-11.33ZM68.57,60.9c0,4.23-3.44,7.67-7.67,7.67h-11.33c-4.23,0-7.67-3.44-7.67-7.67v-11.33c0-4.23,3.44-7.67,7.67-7.67h11.33c4.23,0,7.67,3.44,7.67,7.67v11.33Z"/>
</svg>