<svg width="89" height="89" viewBox="0 0 89 89" fill="none" xmlns="http://www.w3.org/2000/svg">
<path d="M4.30804 16.5771H10.8158C11.5879 18.9589 13.0946 21.035 15.1198 22.5074C17.1449 23.9798 19.5845 24.7729 22.0883 24.7729C24.5921 24.7729 27.0316 23.9798 29.0568 22.5074C31.082 21.035 32.5887 18.9589 33.3608 16.5771H84.708C85.7026 16.5771 86.6564 16.182 87.3597 15.4787C88.063 14.7755 88.458 13.8216 88.458 12.8271C88.458 11.8325 88.063 10.8787 87.3597 10.1754C86.6564 9.47217 85.7026 9.07709 84.708 9.07709H33.3428C32.5635 6.70628 31.0557 4.642 29.0342 3.17856C27.0128 1.71513 24.5809 0.927246 22.0853 0.927246C19.5897 0.927246 17.1578 1.71513 15.1364 3.17856C13.1149 4.642 11.607 6.70628 10.8278 9.07709H4.30804C3.31348 9.07709 2.35966 9.47217 1.65639 10.1754C0.953133 10.8787 0.558044 11.8325 0.558044 12.8271C0.558044 13.8216 0.953133 14.7755 1.65639 15.4787C2.35966 16.182 3.31348 16.5771 4.30804 16.5771ZM22.0883 8.42608C23.2557 8.42804 24.375 8.8912 25.2024 9.71469C26.0298 10.5382 26.4983 11.6552 26.5058 12.8226L26.5125 12.8593C26.5109 13.7342 26.25 14.5889 25.7628 15.3155C25.2756 16.0421 24.5839 16.608 23.7752 16.9416C22.9665 17.2753 22.077 17.3617 21.2192 17.1901C20.3614 17.0184 19.5737 16.5963 18.9557 15.9771C18.3377 15.3579 17.917 14.5695 17.747 13.7113C17.5769 12.8532 17.665 11.9639 18.0002 11.1558C18.3353 10.3477 18.9025 9.65712 19.63 9.17126C20.3575 8.6854 21.2135 8.42609 22.0883 8.42608ZM84.7133 40.8028H70.8428C70.0635 38.432 68.5557 36.3677 66.5342 34.9043C64.5128 33.4409 62.0809 32.653 59.5853 32.653C57.0897 32.653 54.6578 33.4409 52.6364 34.9043C50.6149 36.3677 49.107 38.432 48.3278 40.8028H4.30804C3.31348 40.8028 2.35966 41.1979 1.65639 41.9012C0.953133 42.6045 0.558044 43.5583 0.558044 44.5528C0.558044 45.5474 0.953133 46.5012 1.65639 47.2045C2.35966 47.9077 3.31348 48.3028 4.30804 48.3028H48.3158C49.0879 50.6847 50.5946 52.7607 52.6198 54.2331C54.6449 55.7055 57.0845 56.4986 59.5883 56.4986C62.0921 56.4986 64.5316 55.7055 66.5568 54.2331C68.5819 52.7607 70.0887 50.6847 70.8608 48.3028H84.708C85.7026 48.3028 86.6564 47.9077 87.3597 47.2045C88.063 46.5012 88.458 45.5474 88.458 44.5528C88.458 43.5583 88.063 42.6045 87.3597 41.9012C86.6564 41.1979 85.7079 40.8028 84.7133 40.8028ZM59.5883 49.0026C58.7141 49.0041 57.859 48.7465 57.131 48.2625C56.403 47.7785 55.8347 47.0897 55.4977 46.283C55.1608 45.4763 55.0704 44.5879 55.2379 43.7299C55.4053 42.8719 55.8232 42.0827 56.4388 41.4619C57.0543 40.8411 57.8399 40.4166 58.6965 40.2419C59.5531 40.0671 60.4422 40.1501 61.2517 40.4802C62.0612 40.8103 62.7548 41.3727 63.245 42.0966C63.7351 42.8205 63.9999 43.6734 64.0058 44.5476L64.0125 44.5843C64.0094 45.7561 63.542 46.8788 62.7128 47.7066C61.8835 48.5344 60.76 49.0014 59.5883 49.0026ZM84.7133 72.5278H55.8428C55.0635 70.157 53.5557 68.0928 51.5342 66.6293C49.5128 65.1659 47.0809 64.378 44.5853 64.378C42.0897 64.378 39.6578 65.1659 37.6364 66.6293C35.6149 68.0928 34.107 70.157 33.3278 72.5278H4.30804C3.31348 72.5278 2.35966 72.9229 1.65639 73.6262C0.953133 74.3294 0.558044 75.2833 0.558044 76.2778C0.558044 77.2724 0.953133 78.2262 1.65639 78.9295C2.35966 79.6327 3.31348 80.0278 4.30804 80.0278H33.3128C34.0849 82.4097 35.5916 84.4857 37.6168 85.9581C39.6419 87.4305 42.0814 88.2236 44.5853 88.2236C47.0891 88.2236 49.5286 87.4305 51.5538 85.9581C53.579 84.4857 55.0857 82.4097 55.8578 80.0278H84.708C85.7026 80.0278 86.6564 79.6327 87.3597 78.9295C88.063 78.2262 88.458 77.2724 88.458 76.2778C88.458 75.2833 88.063 74.3294 87.3597 73.6262C86.6564 72.9229 85.7079 72.5278 84.7133 72.5278ZM44.5883 80.7276C43.7141 80.7291 42.859 80.4715 42.131 79.9875C41.403 79.5035 40.8347 78.8147 40.4977 78.008C40.1608 77.2013 40.0704 76.3129 40.2379 75.4549C40.4053 74.5969 40.8232 73.8077 41.4388 73.1869C42.0543 72.5661 42.8399 72.1416 43.6965 71.9669C44.5531 71.7922 45.4422 71.8751 46.2517 72.2052C47.0612 72.5353 47.7548 73.0978 48.245 73.8216C48.7351 74.5455 48.9999 75.3984 49.0058 76.2726L49.0125 76.3093C49.0094 77.4811 48.542 78.6038 47.7128 79.4316C46.8835 80.2594 45.76 80.7264 44.5883 80.7276Z" fill="#182B54"/>
</svg>
