<svg id="Lineal" viewBox="0 0 512 512" xmlns="http://www.w3.org/2000/svg"><g id="_25._Checklist_on_smartphone" data-name="25. Checklist on smartphone"><path d="m390 56v400a40 40 0 0 1 -40 40h-188a40 40 0 0 1 -40-40v-400a8 8 0 0 1 16 0v400a24 24 0 0 0 24 24h188a24 24 0 0 0 24-24v-400a24 24 0 0 0 -24-24h-157.4l7.68 13.83a12 12 0 0 0 10.49 6.17h80.23a8 8 0 0 1 0 16h-80.23a28 28 0 0 1 -24.48-14.4l-14.29-25.74a8 8 0 0 1 3-10.77c2.78-1.62-9.46-1.09 175-1.09a40 40 0 0 1 40 40zm-123 121h59a8 8 0 0 0 0-16h-59a8 8 0 0 0 0 16zm0 100h59a8 8 0 0 0 0-16h-59a8 8 0 0 0 0 16zm0 100h59a8 8 0 0 0 0-16h-59a8 8 0 0 0 0 16zm-64.08-187.62 30-33a8 8 0 1 0 -11.84-10.76l-24.6 27-6.07-5.57a8 8 0 0 0 -10.82 11.8l12 11a8 8 0 0 0 11.33-.47zm-31.42 79.62a32 32 0 1 1 32 32 32 32 0 0 1 -32-32zm16 0a16 16 0 1 0 16-16 16 16 0 0 0 -16 16zm-16 100a32 32 0 1 1 32 32 32 32 0 0 1 -32-32zm16 0a16 16 0 1 0 16-16 16 16 0 0 0 -16 16z" fill="#404a66"/></g></svg>