<svg width="175" height="161" viewBox="0 0 175 161" fill="none" xmlns="http://www.w3.org/2000/svg">
<path d="M58.0741 1.01733C58.3535 0.948263 58.6441 0.935212 58.9286 0.979248L79.0536 4.06226L103.048 7.75366L123.148 10.8318C123.714 10.9178 124.224 11.2223 124.569 11.6794C124.914 12.1367 125.067 12.711 124.994 13.2791C124.149 19.7316 122.963 26.6385 121.461 33.8035C118.946 45.5153 115.788 57.0801 112 68.4441L118.412 64.7888C120.453 63.6251 122.723 62.9218 125.064 62.7273C127.406 62.5328 129.762 62.8526 131.967 63.6638L173.388 78.9011C173.708 79.0186 173.997 79.2103 174.23 79.4597C174.464 79.7091 174.635 80.0098 174.731 80.3376C174.828 80.6667 174.846 81.0141 174.784 81.3513C174.722 81.6884 174.581 82.0062 174.374 82.2791C174.278 82.3935 166.585 92.4079 154.791 90.5144C154.683 90.8546 154.494 91.1642 154.241 91.4158C152.052 93.5678 147.559 96.255 142.17 95.9597C142.503 96.3961 142.66 96.9415 142.61 97.488C142.56 98.0348 142.307 98.5437 141.9 98.9128C141.634 99.1534 138.463 101.939 132.303 101.939C126.142 101.939 117.006 98.9861 105.009 87.9119C97.4487 107.107 88.279 125.705 77.9911 142.272C74.2444 148.311 70.4271 153.97 66.662 159.137C66.3254 159.6 65.8208 159.912 65.2567 160.006C64.6928 160.099 64.1145 159.968 63.6464 159.64L46.6141 147.776L27.4188 134.394L10.3495 122.486C10.1131 122.322 9.91137 122.114 9.75574 121.872C9.60016 121.63 9.49334 121.36 9.44226 121.077C9.39127 120.794 9.39669 120.504 9.45789 120.223C9.51913 119.943 9.63545 119.676 9.79968 119.44C13.8122 113.685 17.3966 108.325 20.7557 103.047C29.5449 89.2852 36.0826 76.9004 41.2284 63.9363L24.953 62.198C17.2676 61.3785 12.2102 59.1377 9.91785 55.5349C8.89484 53.9675 8.46386 52.0866 8.703 50.2302C5.58391 48.7537 3.70459 46.856 3.01062 44.5378C2.19509 41.8581 3.36173 39.3772 4.41003 38.0115C2.66602 36.3982 1.36419 34.3646 0.629761 32.1052C-0.56965 28.0858 0.99168 25.1476 1.17273 24.8298C1.43187 24.3702 1.84906 24.0203 2.34656 23.8445C2.84403 23.6687 3.38845 23.679 3.87878 23.8738L33.288 35.4939C37.2045 37.0701 40.4161 39.9645 42.1141 43.4343L45.8055 50.9685C48.7306 41.7226 51.1215 32.316 52.9667 22.7957C54.2217 16.4723 55.329 9.93118 56.4364 2.81421C56.5261 2.24224 56.8366 1.72777 57.3007 1.38159C57.5318 1.21019 57.7948 1.08639 58.0741 1.01733ZM68.3856 140.138C63.7785 139.226 58.9966 140.041 54.953 142.43L54.7089 142.586C53.8875 143.098 53.1098 143.677 52.3837 144.317C52.1659 144.505 51.9627 144.686 51.745 144.896C51.5273 145.107 51.343 145.362 51.1327 145.587L64.3915 154.815C67.2782 150.788 70.1871 146.454 73.0848 141.895C72.7674 141.729 72.4684 141.526 72.1473 141.379C71.889 141.268 71.6527 141.164 71.4091 141.068C70.4372 140.669 69.4314 140.359 68.4042 140.138H68.3856ZM39.6044 78.4294C35.4081 87.0888 30.7246 95.5036 25.577 103.634C25.6396 103.681 25.6835 103.752 25.746 103.8C26.9097 104.738 27.9784 105.789 28.9354 106.937C29.1015 107.137 29.2681 107.333 29.4305 107.536C30.3319 108.687 31.1196 109.924 31.7821 111.227C31.8928 111.449 31.9925 111.674 32.0995 111.899C32.7289 113.248 33.2236 114.657 33.576 116.103C33.6167 116.262 33.6387 116.458 33.6757 116.632C34.2725 119.187 34.3816 121.832 33.9969 124.427C33.9527 124.749 33.8785 125.059 33.8231 125.377C33.6976 126.059 33.5572 126.739 33.369 127.407C33.2694 127.765 33.1511 128.101 33.0331 128.469C32.8288 129.099 32.5952 129.715 32.3319 130.315C32.1843 130.662 32.0332 131.002 31.8671 131.342C31.76 131.545 31.6929 131.755 31.5858 131.958L47.4335 142.999C47.4814 142.947 47.5408 142.907 47.5887 142.855C48.3966 141.95 49.2751 141.11 50.2167 140.344L50.243 140.327C54.252 137.04 59.2709 135.234 64.455 135.214C66.9632 135.224 69.4517 135.659 71.8153 136.499C71.9849 136.554 72.1435 136.639 72.3094 136.698C73.2224 137.034 74.1135 137.428 74.9755 137.879C75.123 137.96 75.2851 138.001 75.4364 138.086C82.9788 125.623 89.6884 112.675 95.5214 99.3259C91.2633 104.227 85.6094 107.71 79.3173 109.309C73.0253 110.909 66.3946 110.548 60.3134 108.275C54.2321 106.002 48.99 101.926 45.2889 96.5925C41.5879 91.2588 39.6049 84.9215 39.6044 78.4294ZM23.1112 107.476C20.4645 111.577 17.6698 115.756 14.6503 120.145L27.9393 129.419C27.9614 129.375 27.9905 129.33 28.0126 129.286C28.5343 128.193 28.9464 127.05 29.2421 125.875C29.3085 125.613 29.3644 125.347 29.4198 125.081C30.0235 122.452 29.983 119.717 29.3016 117.107C29.2093 116.65 28.9873 116.225 28.8397 115.779C28.5606 114.87 28.2104 113.983 27.7919 113.129C27.5372 112.641 27.219 112.19 26.9237 111.725C26.4622 110.984 25.9494 110.276 25.3885 109.606C25.0084 109.167 24.5876 108.761 24.1669 108.355C23.8494 108.038 23.4803 107.768 23.1112 107.476ZM71.5048 50.8503C66.06 50.8497 60.7374 52.4638 56.2098 55.488C51.6821 58.5125 48.1526 62.8123 46.0682 67.8425C43.9839 72.8727 43.4374 78.4083 44.4989 83.7488C45.5605 89.0892 48.1825 93.9948 52.0321 97.8455C55.8818 101.696 60.7867 104.319 66.1268 105.382C71.467 106.445 77.0023 105.9 82.0331 103.817C87.0639 101.734 91.3648 98.2064 94.3905 93.6794C97.4162 89.1525 99.0314 83.8295 99.0321 78.3845C99.0252 71.0856 96.1231 64.0874 90.9628 58.9255C85.8022 53.7636 78.8039 50.8591 71.5048 50.8503ZM71.4999 52.9666C72.0648 52.9666 72.6079 53.1857 73.0155 53.5769C73.423 53.9681 73.6632 54.5017 73.6864 55.0662V58.0564C81.2519 59.1894 82.8182 64.7644 82.8817 65.0291C82.9958 65.5826 82.8918 66.1591 82.5907 66.6375C82.2896 67.1158 81.815 67.459 81.2665 67.5955C80.718 67.7319 80.1375 67.6505 79.6473 67.3689C79.1575 67.0873 78.795 66.6271 78.6366 66.0847C78.5327 65.7362 77.3838 62.3459 71.4423 62.1873C68.3601 62.132 65.1381 64.6637 64.5399 67.6609C63.8644 71.0164 66.6883 74.1799 72.2919 76.3357C83.3473 80.5956 83.2959 87.2774 82.7606 89.95C81.8894 94.3169 78.0499 97.8904 73.6903 98.7468V101.7C73.667 102.264 73.4269 102.798 73.0194 103.189C72.6119 103.58 72.0686 103.798 71.5038 103.799C70.9388 103.799 70.3948 103.58 69.9872 103.189C69.5797 102.798 69.3396 102.264 69.3163 101.7V98.7058C61.7545 97.5728 60.1884 91.9939 60.1249 91.7292C59.9943 91.1713 60.0874 90.5843 60.3846 90.0945C60.682 89.6047 61.1595 89.2508 61.7147 89.1091C62.2699 88.9676 62.8588 89.0492 63.3544 89.3367C63.85 89.6243 64.2135 90.0949 64.3661 90.6472C64.4805 91.0533 65.6396 94.4162 71.5643 94.575C74.6687 94.6598 77.8688 92.1019 78.4706 89.0935C79.1424 85.7417 76.3148 82.5821 70.7186 80.4226C59.6593 76.1627 59.7115 69.4809 60.243 66.8083C61.1143 62.4711 64.9788 58.9203 69.3124 58.0417V55.0662C69.3356 54.5016 69.5766 53.9681 69.9843 53.5769C70.3919 53.1857 70.9349 52.9666 71.4999 52.9666ZM130.479 67.7683C128.872 67.1761 127.154 66.9422 125.447 67.0837C123.74 67.2253 122.085 67.7389 120.598 68.5876L109.974 74.6414C108.936 77.6129 107.803 80.5477 106.695 83.5007C122.937 99.0893 132.941 98.1745 136.965 96.698L133.004 92.3533C132.639 91.9525 132.436 91.4304 132.433 90.8884C132.431 90.3465 132.631 89.8225 132.992 89.4187C133.354 89.0152 133.852 88.7603 134.391 88.7029C134.929 88.6454 135.471 88.7897 135.909 89.1082C141.501 93.1612 146.481 91.3862 149.146 89.7878L144.285 85.8816C143.843 85.5236 143.557 85.0077 143.489 84.4431C143.421 83.8786 143.576 83.31 143.92 82.8572C144.264 82.4043 144.771 82.1031 145.333 82.0173C145.895 81.9317 146.468 82.0676 146.932 82.3972C157.29 89.828 165.186 85.081 168.796 81.8621L130.479 67.7683ZM80.453 8.72046C80.3644 9.06729 80.2136 9.38103 80.1102 9.72046C79.9404 10.2852 79.7513 10.847 79.5409 11.3933C79.2788 12.0687 78.988 12.7187 78.6669 13.3572C78.4085 13.8775 78.1386 14.3939 77.8397 14.8884C77.478 15.4975 77.0752 16.0661 76.6581 16.6345C76.3185 17.0959 75.9755 17.5581 75.6063 17.99C75.1376 18.5252 74.6391 19.0126 74.1298 19.4998C73.7238 19.9057 73.3282 20.2742 72.8964 20.6433C72.3391 21.1009 71.7452 21.4998 71.1473 21.9021C70.6933 22.2048 70.2573 22.5303 69.7811 22.8035C69.1084 23.1683 68.4174 23.4986 67.7108 23.7927C67.242 23.9994 66.7911 24.2396 66.3075 24.4167C65.4905 24.6925 64.6587 24.9222 63.8163 25.1062C63.3918 25.2059 62.9854 25.3537 62.5536 25.4275C61.2405 25.6667 59.9088 25.7902 58.5741 25.7966C57.9798 25.7966 57.3999 25.7641 56.8241 25.7087C54.7999 35.9565 52.1273 46.0656 48.8212 55.9744C53.2639 51.4699 58.9465 48.3883 65.1454 47.1228C71.3445 45.8573 77.7808 46.4651 83.6337 48.8679C89.4863 51.2707 94.4919 55.3601 98.0135 60.616C101.535 65.8721 103.414 72.0576 103.41 78.3845C103.41 78.9308 103.355 79.4628 103.325 80.0017C108.91 65.0552 113.483 49.8612 116.724 35.0144C116.407 34.9258 116.123 34.7781 115.813 34.6785C115.263 34.5013 114.732 34.3015 114.204 34.0837C113.542 33.8106 112.894 33.5087 112.262 33.1765C111.767 32.9145 111.28 32.6485 110.807 32.3533C110.202 31.9731 109.63 31.5625 109.069 31.1306C108.634 30.7947 108.198 30.4704 107.788 30.1013C107.257 29.6252 106.766 29.1158 106.282 28.5955C105.913 28.2005 105.54 27.8163 105.204 27.3992C104.746 26.8307 104.348 26.225 103.945 25.616C103.661 25.1804 103.354 24.7592 103.099 24.3015C102.727 23.6373 102.428 22.9362 102.122 22.2351C101.926 21.7811 101.697 21.3452 101.527 20.8728C101.258 20.0665 101.033 19.2452 100.855 18.4138C100.759 17.9968 100.616 17.5982 100.542 17.1775C100.314 15.8881 100.198 14.5815 100.195 13.2722C100.195 12.7591 100.22 12.2567 100.265 11.7546L80.453 8.72046ZM4.5614 28.8464C4.53808 29.5619 4.63757 30.2762 4.85632 30.9578C5.74597 33.7594 8.62927 36.4725 13.1805 38.8054C13.6632 39.0564 14.0358 39.4779 14.2245 39.988C14.4131 40.4982 14.4051 41.0606 14.202 41.5652C13.9988 42.0698 13.6145 42.4805 13.1249 42.7175C12.6352 42.9546 12.0745 43.001 11.5526 42.8474L7.35925 41.5847C7.10277 42.1247 7.04706 42.7385 7.20105 43.3162C7.48159 44.2132 8.94671 46.4914 16.4843 48.2263C17.0324 48.3444 17.5152 48.6683 17.8309 49.1316C18.1466 49.5949 18.2721 50.1623 18.1815 50.7156C18.0909 51.2688 17.7906 51.7658 17.3436 52.1042C16.8966 52.4427 16.3363 52.5968 15.7792 52.5339L13.1737 52.2712C13.2862 52.629 13.4505 52.9687 13.661 53.2791C14.5543 54.6153 17.286 56.9895 25.4071 57.8533L42.4647 59.6726C42.57 59.6982 42.674 59.7309 42.7753 59.7693C43.1296 58.8133 43.4982 57.8643 43.8378 56.8972L38.1864 45.3542C36.9572 42.8404 34.5833 40.7291 31.6708 39.5515L4.5614 28.8464ZM104.64 12.4451C104.617 12.7293 104.551 13.0028 104.551 13.2908C104.554 14.3402 104.648 15.3874 104.831 16.4207C104.89 16.7603 105 17.0818 105.078 17.4177C105.221 18.0841 105.401 18.742 105.617 19.3884C105.754 19.7575 105.935 20.1268 106.094 20.4958C106.337 21.0532 106.578 21.6106 106.873 22.1384C107.08 22.5112 107.323 22.8436 107.556 23.2126C107.873 23.6961 108.183 24.1764 108.552 24.6267C108.825 24.9663 109.121 25.2839 109.416 25.6013C109.8 26.0184 110.198 26.4353 110.623 26.8044C110.948 27.0961 111.292 27.3736 111.639 27.6394C112.081 27.9887 112.549 28.3173 113.041 28.6248C113.414 28.861 113.812 29.086 114.182 29.2927C114.702 29.5655 115.235 29.8119 115.78 30.031C116.182 30.2007 116.588 30.3634 117.009 30.5037C117.208 30.5701 117.419 30.6067 117.618 30.6658C118.725 25.1768 119.637 19.8761 120.353 14.8337L104.64 12.4451ZM60.4022 5.66772C59.5392 11.1548 58.6467 16.3105 57.6952 21.3298C57.9941 21.352 58.2786 21.4226 58.5848 21.4226C59.6519 21.4207 60.7174 21.3242 61.7675 21.1345C62.1142 21.0755 62.4388 20.9608 62.7782 20.8796C63.4527 20.735 64.1191 20.5516 64.7723 20.3298C65.1414 20.1896 65.5107 20.0049 65.8798 19.8425C66.4453 19.6052 66.9986 19.3394 67.537 19.0457C67.9098 18.8353 68.249 18.5836 68.618 18.3474C69.1016 18.0226 69.5857 17.6941 70.036 17.325C70.3756 17.0481 70.6971 16.7419 71.0145 16.4392C71.4316 16.0443 71.8408 15.6415 72.2098 15.2097C72.5051 14.8701 72.7822 14.5271 73.0516 14.158C73.3912 13.7002 73.7165 13.2273 74.0155 12.74C74.2516 12.3489 74.4769 11.9542 74.6835 11.5447C74.9492 11.0317 75.1776 10.4925 75.3954 9.94995C75.5651 9.51817 75.7317 9.08984 75.8719 8.64331C75.931 8.45512 75.9612 8.25197 76.0165 8.0564L60.4022 5.66772Z" fill="#182B54"/>
</svg>
