<svg width="106" height="106" viewBox="0 0 106 106" fill="none" xmlns="http://www.w3.org/2000/svg">
<path d="M69.1847 31.5809C68.7225 31.5775 68.2664 31.4748 67.8473 31.2798C67.4283 31.0847 67.0561 30.8018 66.7559 30.4503C64.3415 27.5104 61.3054 25.1425 57.8659 23.5169C54.4265 21.8913 50.6695 21.0486 46.8653 21.0493C46.0323 21.0493 45.2335 20.7184 44.6445 20.1295C44.0556 19.5405 43.7247 18.7416 43.7247 17.9087C43.7247 17.0758 44.0556 16.2769 44.6445 15.6879C45.2335 15.099 46.0323 14.7681 46.8653 14.7681C51.5956 14.7642 56.268 15.808 60.5469 17.8244C64.8259 19.8408 68.6052 22.7798 71.6134 26.4303C72.1365 27.0801 72.3836 27.9094 72.3013 28.7396C72.2191 29.5697 71.8142 30.3344 71.1737 30.869C70.6164 31.3352 69.9112 31.5875 69.1847 31.5809Z" fill="#182B54"/>
<path d="M46.8653 93.6187C37.6183 93.6187 28.579 90.8767 20.8905 85.7393C13.2019 80.602 7.20942 73.3001 3.67076 64.757C0.132104 56.214 -0.793769 46.8134 1.01022 37.7441C2.81421 28.6749 7.26705 20.3442 13.8056 13.8056C20.3442 7.26702 28.6749 2.81418 37.7442 1.01019C46.8134 -0.7938 56.214 0.132074 64.7571 3.67073C73.3001 7.20939 80.602 13.2019 85.7394 20.8905C90.8767 28.579 93.6187 37.6183 93.6187 46.8653C93.6327 53.6729 92.1458 60.4 89.2637 66.5675C89.0891 66.9414 88.8426 67.2773 88.5382 67.556C88.2338 67.8346 87.8775 68.0506 87.4896 68.1915C87.1017 68.3325 86.6899 68.3957 86.2776 68.3775C85.8653 68.3593 85.4607 68.26 85.0867 68.0854C84.7128 67.9108 84.3769 67.6643 84.0982 67.3599C83.8196 67.0555 83.6036 66.6992 83.4626 66.3113C83.3217 65.9234 83.2585 65.5116 83.2767 65.0993C83.2949 64.687 83.3941 64.2823 83.5687 63.9084C87.8154 54.7404 88.4734 44.3141 85.4131 34.6849C82.3528 25.0558 75.7962 16.9224 67.036 11.8881C58.2757 6.85391 47.9473 5.2841 38.0868 7.48818C28.2264 9.69225 19.5493 15.5103 13.7663 23.7954C7.98321 32.0804 5.51371 42.2314 6.84458 52.2471C8.17546 62.2629 13.2102 71.4167 20.9562 77.904C28.7022 84.3913 38.5975 87.7415 48.6913 87.2941C58.7852 86.8467 68.3452 82.6341 75.4869 75.4868C75.777 75.1931 76.1226 74.9599 76.5036 74.8007C76.8846 74.6416 77.2934 74.5596 77.7062 74.5596C78.1191 74.5596 78.5279 74.6416 78.9089 74.8007C79.2899 74.9599 79.6355 75.1931 79.9256 75.4868C80.5087 76.0784 80.8355 76.8756 80.8355 77.7062C80.8355 78.5368 80.5087 79.334 79.9256 79.9256C75.5909 84.2763 70.4381 87.7261 64.764 90.0763C59.0899 92.4264 53.0068 93.6303 46.8653 93.6187Z" fill="#182B54"/>
<path d="M102.747 105.888C101.915 105.885 101.118 105.554 100.528 104.967L75.4031 79.8419C75.0946 79.5544 74.8471 79.2077 74.6754 78.8224C74.5038 78.4372 74.4115 78.0213 74.404 77.5996C74.3966 77.1779 74.4742 76.759 74.6321 76.368C74.7901 75.9769 75.0252 75.6217 75.3234 75.3234C75.6216 75.0252 75.9769 74.7901 76.3679 74.6321C76.759 74.4742 77.1779 74.3966 77.5996 74.4041C78.0213 74.4115 78.4371 74.5038 78.8224 74.6755C79.2076 74.8471 79.5544 75.0946 79.8419 75.4032L104.967 100.528C105.261 100.818 105.494 101.164 105.653 101.545C105.812 101.926 105.894 102.335 105.894 102.748C105.894 103.16 105.812 103.569 105.653 103.95C105.494 104.331 105.261 104.677 104.967 104.967C104.377 105.554 103.58 105.885 102.747 105.888Z" fill="#182B54"/>
</svg>
