<svg width="84" height="74" viewBox="0 0 84 74" fill="none" xmlns="http://www.w3.org/2000/svg">
<path d="M21.128 63.898C20.3371 63.898 19.5787 63.5838 19.0194 63.0246C18.4602 62.4653 18.146 61.7068 18.146 60.9159V3.1439C18.146 2.35302 18.4602 1.59452 19.0194 1.03528C19.5787 0.476043 20.3371 0.161865 21.128 0.161865C21.9189 0.161865 22.6774 0.476043 23.2367 1.03528C23.7959 1.59452 24.1101 2.35302 24.1101 3.1439V60.9159C24.1101 61.7068 23.7959 62.4653 23.2367 63.0246C22.6774 63.5838 21.9189 63.898 21.128 63.898Z" fill="#182B54"/>
<path d="M3.13481 23.5177C2.54071 23.5176 1.96019 23.34 1.46769 23.0078C0.975187 22.6755 0.593152 22.2037 0.370574 21.6529C0.147996 21.1021 0.0950209 20.4973 0.218441 19.9162C0.341861 19.335 0.636051 18.804 1.06329 18.3912L19.0565 0.99993C19.6286 0.4685 20.3862 0.18263 21.1667 0.203727C21.9472 0.224823 22.6883 0.551204 23.2308 1.11276C23.7733 1.67431 24.074 2.42624 24.0681 3.20702C24.0623 3.9878 23.7504 4.73514 23.1996 5.2885L5.20633 22.6799C4.65101 23.2179 3.90798 23.5184 3.13481 23.5177Z" fill="#182B54"/>
<path d="M39.1212 23.5177C38.348 23.5188 37.6048 23.2182 37.0497 22.6799L19.0565 5.2885C18.5056 4.73514 18.1938 3.9878 18.188 3.20702C18.1821 2.42624 18.4827 1.67431 19.0252 1.11276C19.5677 0.551204 20.3088 0.224823 21.0893 0.203727C21.8699 0.18263 22.6275 0.4685 23.1995 0.99993L41.1928 18.3912C41.62 18.804 41.9142 19.335 42.0376 19.9162C42.161 20.4973 42.1081 21.1021 41.8855 21.6529C41.6629 22.2037 41.2809 22.6755 40.7884 23.0078C40.2959 23.34 39.7153 23.5176 39.1212 23.5177Z" fill="#182B54"/>
<path d="M62.8766 73.8382C62.0857 73.8382 61.3272 73.524 60.7679 72.9647C60.2087 72.4055 59.8945 71.647 59.8945 70.8561V13.0841C59.8945 12.2932 60.2087 11.5347 60.7679 10.9755C61.3272 10.4162 62.0857 10.1021 62.8766 10.1021C63.6675 10.1021 64.426 10.4162 64.9852 10.9755C65.5444 11.5347 65.8586 12.2932 65.8586 13.0841V70.8561C65.8586 71.647 65.5444 72.4055 64.9852 72.9647C64.426 73.524 63.6675 73.8382 62.8766 73.8382Z" fill="#182B54"/>
<path d="M62.8766 73.8381C62.1034 73.8391 61.3602 73.5386 60.8051 73.0003L42.8118 55.6079C42.2598 55.0548 41.947 54.3071 41.9406 53.5256C41.9342 52.7442 42.2348 51.9915 42.7778 51.4295C43.3207 50.8674 44.0626 50.541 44.8438 50.5203C45.625 50.4997 46.383 50.7865 46.9549 51.3191L64.9481 68.7106C65.3757 69.1233 65.6702 69.6544 65.7938 70.2357C65.9174 70.817 65.8646 71.422 65.6419 71.9731C65.4193 72.5241 65.0371 72.9961 64.5444 73.3284C64.0517 73.6607 63.4709 73.8382 62.8766 73.8381Z" fill="#182B54"/>
<path d="M62.8766 73.8381C62.2826 73.8379 61.7021 73.6604 61.2096 73.3281C60.7172 72.9959 60.3352 72.5241 60.1126 71.9733C59.89 71.4225 59.837 70.8178 59.9604 70.2367C60.0838 69.6556 60.3779 69.1246 60.8051 68.7118L78.7983 51.3203C79.3702 50.7877 80.1282 50.5009 80.9094 50.5215C81.6906 50.5422 82.4325 50.8686 82.9754 51.4307C83.5184 51.9927 83.819 52.7454 83.8126 53.5269C83.8062 54.3083 83.4934 55.056 82.9414 55.6091L64.9481 73.0004C64.3928 73.5383 63.6498 73.8388 62.8766 73.8381Z" fill="#182B54"/>
</svg>
