<?xml version="1.0" encoding="UTF-8"?>
<svg id="Capa_1" xmlns="http://www.w3.org/2000/svg" viewBox="0 0 800 800">
  <defs>
    <style>
      .cls-1 {
        fill: #404a66;
      }
    </style>
  </defs>
  <g id="_5._Suitcase_and_bag">
    <path class="cls-1" d="M746.67,205h-28.33V53.33c0-29.46-23.88-53.33-53.33-53.33h-156.67c-29.46,0-53.33,23.88-53.33,53.33v151.67h-26.67c-50.83,0-67.98,66.67-40,66.67,7.36,0,13.33-5.97,13.33-13.33,0-14.73,11.94-26.67,26.67-26.67h318.33c14.73,0,26.67,11.94,26.67,26.67v421.67c0,14.73-11.94,26.67-26.67,26.67h-83.33c-7.36,0-13.33,5.97-13.33,13.33v33.33c0,25.77,20.89,46.67,46.67,46.67s46.67-20.89,46.67-46.67h0v-20c36.1,0,56.67-26.23,56.67-53.33v-421.67c0-29.46-23.88-53.33-53.33-53.33ZM481.67,205v-115h161.12c7.36,0,13.33-5.97,13.33-13.33s-5.97-13.33-13.33-13.33h-161.12v-10c0-14.73,11.94-26.67,26.67-26.67h156.67c14.73,0,26.67,11.94,26.67,26.67v151.67h-210ZM716.67,753.33c0,11.05-8.95,20-20,20s-20-8.95-20-20v-20h40v20ZM540,383.33h-126.67v-28.33c0-29.46-23.88-53.33-53.33-53.33h-126.67c-29.46,0-53.33,23.88-53.33,53.33v28.33H53.33c-29.46,0-53.33,23.88-53.33,53.33v310c0,29.46,23.88,53.33,53.33,53.33h136.67c7.36,0,13.33-5.97,13.33-13.33v-294.17c0-7.36-5.97-13.33-13.33-13.33s-13.33,5.97-13.33,13.33v280.83h-68.33v-363.33h281.67v363.33h-107.5c-7.36,0-13.33,5.97-13.33,13.33s5.97,13.33,13.33,13.33h257.5c29.46,0,53.33-23.88,53.33-53.33v-310c0-29.46-23.88-53.33-53.33-53.33ZM206.67,355c0-14.73,11.94-26.67,26.67-26.67h126.67c14.73,0,26.67,11.94,26.67,26.67v28.33h-180v-28.33ZM81.67,773.33h-28.33c-14.73,0-26.67-11.94-26.67-26.67v-310c0-14.73,11.94-26.67,26.67-26.67h28.33v363.33ZM566.67,746.67c0,14.73-11.94,26.67-26.67,26.67h-123.33v-363.33h68.33v281.67c0,7.36,5.97,13.33,13.33,13.33s13.33-5.97,13.33-13.33v-281.67h28.33c14.73,0,26.67,11.94,26.67,26.67v310ZM645.83,456.67h59.17c7.36,0,13.33,5.97,13.33,13.33s-5.97,13.33-13.33,13.33h-59.17c-7.36,0-13.33-5.97-13.33-13.33s5.97-13.33,13.33-13.33ZM676.67,320c0,7.36-5.97,13.33-13.33,13.33h-150c-7.36,0-13.33-5.97-13.33-13.33s5.97-13.33,13.33-13.33h150c7.36,0,13.33,5.97,13.33,13.33ZM663.33,633.33h-25c-7.36,0-13.33-5.97-13.33-13.33s5.97-13.33,13.33-13.33h25c7.36,0,13.33,5.97,13.33,13.33s-5.97,13.33-13.33,13.33Z"/>
  </g>
</svg>