<?xml version="1.0" encoding="UTF-8"?>
<svg id="Capa_1" xmlns="http://www.w3.org/2000/svg" viewBox="0 0 800 800">
  <defs>
    <style>
      .cls-1 {
        fill: #404a66;
      }
    </style>
  </defs>
  <g id="_23._Beach">
    <path class="cls-1" d="M190.29,733.72c-.31,7.36-6.53,13.08-13.89,12.77-7.36-.31-13.08-6.53-12.77-13.89,3.83-90.87-45.74-181.36-132.79-223.41-11.57-5.58-8.88-22.11,2.32-25.45,73.33-21.86,124.37-81.82,126.35-169.98.17-7.36,6.27-13.2,13.63-13.03,7.36.17,13.2,6.27,13.03,13.63-1.95,86.99-46.96,152.95-118.32,184.98,84.11,52.88,126.12,146.53,122.44,234.37ZM676.9,623.16h-22.5c-7.36,0-13.33,5.97-13.33,13.33s5.97,13.33,13.33,13.33h22.5c7.36,0,13.33-5.97,13.33-13.33s-5.97-13.33-13.33-13.33ZM601.91,636.49c0-7.36-5.97-13.33-13.33-13.33h-216.64c-7.36,0-13.33,5.97-13.33,13.33s5.97,13.33,13.33,13.33h216.64c7.36,0,13.33-5.97,13.33-13.33ZM635.24,716.48h-80.54c-7.36,0-13.33,5.97-13.33,13.33s5.97,13.33,13.33,13.33h80.54c7.36,0,13.33-5.97,13.33-13.33s-5.97-13.33-13.33-13.33ZM484.7,716.48h-52.78c-7.36,0-13.33,5.97-13.33,13.33s5.97,13.33,13.33,13.33h52.78c7.36,0,13.33-5.97,13.33-13.33s-5.97-13.33-13.33-13.33ZM785.22,529.96h-442.72c-7.31-.06-13.28,5.82-13.33,13.13,0,.02,0,.04,0,.07,0,7.39,5.94,13.4,13.33,13.47h442.72c7.31.06,13.28-5.82,13.33-13.13,0-.03,0-.06,0-.08,0-7.39-5.95-13.39-13.33-13.45ZM226.95,227.79c-5.76,4.59-6.7,12.97-2.12,18.73,71.14,89.22,78.62,223.18-8.02,320.78-4.89,5.52-4.37,13.96,1.15,18.85,5.52,4.89,13.96,4.37,18.85-1.15,93.79-105.67,89.54-253.99,8.93-355.09-4.57-5.77-12.96-6.74-18.73-2.17-.02.02-.05.04-.07.06ZM182.34,253.22l-154.17-4.53c19.88-69.78,93.21-84.24,140.95-49.68,5.98,4.32,14.33,2.97,18.65-3.02,4.32-5.98,2.97-14.33-3.02-18.65h0c-37.21-26.95-86.66-30.58-125.84-9.25C6.57,196.64-.64,253.77-1.36,260.2c-.74,7.33,4.6,13.86,11.93,14.6.31.03.63.05.94.06l169.98,5c7.36.22,13.51-5.57,13.73-12.93.22-7.36-5.57-13.51-12.93-13.73l.05.02ZM391.81,249.89c-7.83-62.14-66.03-108.87-132.92-95.31-7.23,1.39-11.96,8.38-10.57,15.61,1.39,7.23,8.38,11.96,15.61,10.57.09-.02.17-.03.26-.05,43.23-8.75,83.24,14.32,97.74,58.33l-54.89,2.98c-7.36.2-13.17,6.33-12.97,13.69.2,7.36,6.33,13.17,13.69,12.97.57,0,70.96-3.83,71.54-3.87,7.35-.39,13-6.66,12.61-14.01-.02-.31-.04-.62-.08-.94l-.02.02ZM249.5,90.12c29.6-14.55,68.33-4.1,92.14,24.83,4.65,5.71,13.05,6.56,18.76,1.91,5.71-4.65,6.56-13.05,1.91-18.76-.02-.03-.05-.06-.07-.09-43.01-52.31-124.09-57.81-161.65,2.3-57.26-52.91-145.28-37.01-181.95,29.8-3.2,6.63-.43,14.6,6.2,17.8,6.14,2.97,13.53.82,17.13-4.97,30.5-55.49,104.12-64.16,146.8-16.66-1.4,4.24-2.51,8.57-3.33,12.97-1.28,7.25,3.55,14.17,10.81,15.46,7.25,1.28,14.17-3.55,15.46-10.81.75-3.95,7.73-38.93,37.8-53.78ZM507.03,290.1c.06-59.76,48.56-108.15,108.32-108.09s108.15,48.56,108.09,108.32c-.06,59.71-48.49,108.09-108.2,108.09-59.73-.06-108.14-48.47-108.2-108.2v-.12ZM533.7,290.1c-.06,45.03,36.39,81.59,81.42,81.66,45.03.06,81.59-36.39,81.66-81.42.06-45.03-36.39-81.59-81.42-81.66-.04,0-.08,0-.12,0-45.01.06-81.48,36.53-81.54,81.54v-.12ZM731.49,395.09c-4.94,5.47-4.51,13.9.96,18.84,5.47,4.94,13.9,4.51,18.84-.96,47.74-52.87,60.54-128.6,32.85-194.23-2.67-6.86-10.4-10.26-17.26-7.59-6.86,2.67-10.26,10.4-7.59,17.26.09.24.19.48.3.71,23.7,56.12,12.75,120.88-28.1,166.08v-.12ZM580.04,137.53c52.51-12.16,107.58,3.58,145.72,41.66,5.09,5.32,13.53,5.52,18.85.43,5.32-5.09,5.52-13.53.43-18.85-.16-.16-.32-.32-.48-.48-44.63-44.55-109.05-62.97-170.48-48.74-7.21,1.48-11.86,8.53-10.38,15.74,1.48,7.21,8.53,11.86,15.74,10.38.2-.04.4-.09.6-.14h0ZM448.39,325.21c7.3-.93,12.47-7.61,11.53-14.91-6.89-53.12,13.85-106.08,54.99-140.38,5.76-4.59,6.71-12.97,2.13-18.73-4.59-5.76-12.97-6.71-18.73-2.13-.16.13-.32.26-.48.4-48.16,40.11-72.46,102.07-64.41,164.23.93,7.3,7.6,12.46,14.9,11.53h.07ZM655.43,441.75c-35.77,9.45-73.73,5.98-107.19-9.8-6.32-3.77-14.51-1.71-18.28,4.61-3.77,6.32-1.71,14.51,4.61,18.28.74.44,1.52.81,2.33,1.1,39.15,18.49,83.56,22.56,125.42,11.5,7.22-1.44,11.9-8.47,10.46-15.69-1.44-7.22-8.47-11.9-15.69-10.46-.57.11-1.13.26-1.68.45h0Z"/>
  </g>
</svg>