<svg width="169" height="134" viewBox="0 0 169 134" fill="none" xmlns="http://www.w3.org/2000/svg">
<path d="M84.6726 61.4619C84.584 61.4672 84.4952 61.4707 84.406 61.4707C84.4952 61.4707 84.584 61.4672 84.6726 61.4619ZM84.3923 32.5166C85.1919 32.5168 85.9587 32.8341 86.5242 33.3994C87.0898 33.9651 87.408 34.7332 87.408 35.5332V57.3066C87.3394 58.0505 86.9984 58.7436 86.448 59.25C85.8888 59.7645 85.1551 60.0483 84.3953 60.0459H84.3923C83.5924 60.0459 82.8242 59.7287 82.2585 59.1631C81.693 58.5975 81.3749 57.8301 81.3748 57.0303V35.5332C81.3748 34.7332 81.6929 33.9651 82.2585 33.3994C82.8242 32.8338 83.5924 32.5166 84.3923 32.5166ZM79.9548 57.25H79.9558H79.9548ZM79.9617 35.2129C79.954 35.3191 79.95 35.426 79.95 35.5332V35.5322C79.95 35.4253 79.954 35.3188 79.9617 35.2129ZM87.9617 32.8906C88.0048 32.9489 88.0465 33.0082 88.0867 33.0684C88.0465 33.0082 88.0048 32.9489 87.9617 32.8906ZM83.3093 31.2246C83.4498 31.1893 83.5922 31.1611 83.7361 31.1396C83.5922 31.1611 83.4498 31.1893 83.3093 31.2246ZM84.8308 31.1123C84.8684 31.116 84.9057 31.1213 84.9431 31.126C84.9012 31.1207 84.8593 31.1154 84.8171 31.1113L84.8308 31.1123ZM81.8132 60.6455C81.7855 60.6257 81.7575 60.6064 81.7302 60.5859C81.7575 60.6064 81.7855 60.6257 81.8132 60.6455ZM79.9822 57.5605C79.978 57.5258 79.9738 57.491 79.9705 57.4561C79.9738 57.491 79.978 57.5258 79.9822 57.5605ZM80.9558 32.7178L80.9646 32.707C80.9385 32.7387 80.9136 32.7714 80.8884 32.8037C80.9108 32.775 80.9327 32.746 80.9558 32.7178ZM80.8884 32.8037C80.8705 32.8267 80.8512 32.8487 80.8337 32.8721C80.8512 32.8487 80.8705 32.8267 80.8884 32.8037Z" fill="#182B54"/>
<path d="M83.0969 75.2227C83.1395 75.228 83.1822 75.2316 83.2249 75.2354C83.191 75.2323 83.1571 75.2305 83.1233 75.2266L83.0969 75.2227ZM82.7034 75.1523C82.5017 75.0695 82.3083 74.9696 82.1233 74.8564C82.2467 74.932 82.374 75.0013 82.5051 75.0635C82.5705 75.0945 82.6373 75.1238 82.7044 75.1514L82.7034 75.1523ZM84.3909 75.1514L84.3919 75.1523L84.3909 75.1514ZM84.3909 68.0898C85.1773 68.0898 85.9363 68.3801 86.5218 68.9043C87.0875 69.4823 87.4054 70.2595 87.4075 71.0693V71.2266L87.4426 71.3809C87.5136 71.6943 87.52 72.0184 87.4632 72.334C87.3379 72.6192 87.1566 72.8766 86.929 73.0898C86.606 73.3471 86.2348 73.5382 85.8372 73.6504C85.429 73.7654 85.0016 73.7957 84.5813 73.7393L84.3186 73.7041L84.0618 73.7656C83.7593 73.8377 83.4447 73.8441 83.1399 73.7871C82.8317 73.6447 82.553 73.4448 82.3196 73.1973L82.2805 73.1553L82.2385 73.1172C81.9715 72.8757 81.764 72.5751 81.6341 72.2393L81.6175 72.1953L81.5979 72.1523L81.5432 72.0273C81.4256 71.7313 81.3688 71.4141 81.3753 71.0947V71.0693C81.3773 70.2597 81.6945 69.4822 82.26 68.9043C82.8455 68.38 83.6044 68.09 84.3909 68.0898ZM88.8743 71.2744C88.8862 71.3448 88.8957 71.4155 88.9036 71.4863C88.8957 71.4158 88.8861 71.3455 88.8743 71.2754V71.2744ZM81.0755 68.0898C81.0255 68.1468 80.9768 68.2045 80.93 68.2637C80.9768 68.2045 81.0255 68.1468 81.0755 68.0898ZM85.6555 66.8408H85.6565H85.6555ZM84.3919 66.665C84.5356 66.6651 84.6786 66.6713 84.8206 66.6846H84.8196C84.6778 66.6714 84.5344 66.665 84.3909 66.665H84.3919Z" fill="#182B54"/>
<path d="M164.593 106.535C164.51 106.559 164.425 106.58 164.34 106.599C164.214 106.596 164.088 106.588 163.964 106.575C164.088 106.588 164.214 106.596 164.34 106.599C164.425 106.58 164.509 106.559 164.593 106.535ZM166.095 105.853C165.975 105.935 165.85 106.009 165.72 106.074C165.85 106.009 165.976 105.935 166.095 105.853ZM161.538 105.558C161.629 105.633 161.724 105.703 161.82 105.771C161.728 105.706 161.637 105.639 161.549 105.567L161.538 105.558ZM166.879 105.128C166.833 105.175 166.787 105.222 166.739 105.266C166.692 105.322 166.644 105.377 166.593 105.43L166.437 105.582C166.544 105.484 166.645 105.379 166.739 105.266C166.787 105.222 166.833 105.175 166.879 105.128ZM163.985 99.2041C164.775 99.2041 165.533 99.5135 166.097 100.066L166.138 100.106L166.181 100.143C166.413 100.337 166.59 100.586 166.698 100.867C166.764 101.184 166.76 101.512 166.685 101.827L166.644 101.999L166.646 102.175C166.651 102.559 166.576 102.939 166.425 103.292C166.273 103.644 166.049 103.961 165.769 104.222L165.703 104.285L165.645 104.353C165.437 104.602 165.164 104.79 164.857 104.895L164.752 104.931L164.653 104.983C164.508 105.06 164.356 105.121 164.198 105.166C163.459 105.111 162.76 104.792 162.233 104.265C161.666 103.698 161.34 102.932 161.325 102.13L161.321 101.977L161.286 101.827L161.26 101.7C161.211 101.424 161.215 101.142 161.272 100.867C161.38 100.586 161.558 100.337 161.79 100.143L161.833 100.106L161.874 100.066C162.438 99.5136 163.196 99.2042 163.985 99.2041ZM160.555 104.419C160.63 104.542 160.711 104.661 160.798 104.777C160.754 104.719 160.712 104.661 160.671 104.601L160.555 104.419ZM160.05 103.231H160.051H160.05ZM159.899 102.158V102.157V102.158ZM167.798 99.875C167.835 99.9375 167.87 100.001 167.903 100.066L167.994 100.265C167.937 100.13 167.872 100 167.798 99.875ZM160.56 99.3507H160.561H160.56ZM166.599 98.6287C166.715 98.7133 166.828 98.8036 166.936 98.8997C166.828 98.8036 166.715 98.7133 166.599 98.6287ZM165.464 98.0321H165.465H165.464ZM164.203 97.7834H164.202L163.985 97.7778L164.203 97.7834ZM166.964 105.038C166.936 105.068 166.908 105.099 166.879 105.128C166.908 105.099 166.936 105.068 166.964 105.038Z" fill="#182B54"/>
<path d="M116.193 97.7158C147.015 97.7158 167.091 125.071 167.982 126.23C168.321 126.701 168.563 127.234 168.692 127.799C168.822 128.364 168.838 128.949 168.738 129.52C168.639 130.09 168.427 130.635 168.114 131.123C167.801 131.611 167.394 132.032 166.917 132.36C166.185 132.942 165.276 133.255 164.341 133.248C163.63 133.245 162.93 133.074 162.297 132.75C161.664 132.426 161.116 131.958 160.698 131.383C160.647 131.314 149.986 117.123 133.561 110.249C124.85 103.845 113.01 97.9165 98.8682 97.7207L98.1475 97.7158H116.193ZM10.7598 99.0293C11.5163 99.1028 12.2793 99.1416 13.0459 99.1416H98.1475C109.942 99.1417 120.151 103.264 128.275 108.372C124.478 107.264 120.434 106.599 116.193 106.599H109.154C105.671 105.701 101.991 105.174 98.1475 105.174H21.7939C17.758 103.909 13.9969 101.828 10.7598 99.0293ZM31.0918 8.88281C25.2019 8.88283 19.5535 11.2229 15.3887 15.3877C11.2239 19.5525 8.88383 25.2009 8.88379 31.0908V75.5068C8.88379 81.3968 11.2238 87.0461 15.3887 91.2109C19.5535 95.3756 25.202 97.7158 31.0918 97.7158H13.0459L12.4941 97.708C11.2983 97.6783 10.1143 97.551 8.95215 97.333C3.21926 91.5178 0 83.6787 0 75.5068V31.0908C3.72383e-05 22.9186 3.21882 15.079 8.95215 9.26367C10.2926 9.01225 11.6627 8.88281 13.0459 8.88281H31.0918ZM137.691 0C145.937 0.00012048 153.845 3.27578 159.676 9.10645C165.506 14.9372 168.782 22.845 168.782 31.0908V84.3906C168.782 85.5686 168.314 86.6983 167.481 87.5312C166.648 88.3642 165.519 88.832 164.341 88.832C163.163 88.832 162.033 88.3641 161.2 87.5312C160.367 86.6983 159.899 85.5686 159.899 84.3906V31.0908C159.899 25.201 157.559 19.5525 153.395 15.3877C150.208 12.2007 146.151 10.0837 141.783 9.26465C141.732 9.21238 141.682 9.15839 141.63 9.10645C135.981 3.45795 128.383 0.206504 120.417 0.00878906L119.645 0H137.691ZM119.645 1.4248C126.944 1.42484 133.965 4.11629 139.384 8.94727C138.823 8.90439 138.258 8.88282 137.691 8.88281H127.724C125.158 7.94945 122.427 7.45705 119.645 7.45703H13.0459C12.2793 7.45703 11.5163 7.49486 10.7598 7.56836C13.9968 4.77019 17.7581 2.68982 21.7939 1.4248H119.645Z" fill="#182B54"/>
<circle cx="84.5484" cy="71.1438" r="3.16776" fill="#182B54"/>
<circle cx="163.947" cy="102.188" r="3.16776" fill="#182B54"/>
</svg>
