<svg width="170" height="144" viewBox="0 0 170 144" fill="none" xmlns="http://www.w3.org/2000/svg">
<path d="M168.157 133.149L91.0736 4.67191C89.5437 2.12503 87.232 0.664551 84.7344 0.664551C82.2346 0.664551 79.9252 2.12503 78.3952 4.67191L1.31013 133.149C-0.235475 135.725 -0.423634 138.442 0.799406 140.602C2.02021 142.761 4.44613 144 7.45445 144H162.014C165.023 144 167.449 142.761 168.669 140.602C169.893 138.445 169.704 135.728 168.157 133.149ZM162.014 137.28H7.45445C7.16101 137.28 6.93701 137.251 6.78021 137.217C6.83173 137.067 6.92133 136.861 7.07141 136.608L84.1565 8.13271C84.4388 7.66455 84.6695 7.47415 84.6941 7.40695C84.7949 7.47415 85.0279 7.66455 85.3101 8.13271L162.395 136.608C162.545 136.859 162.635 137.065 162.689 137.215C162.53 137.251 162.308 137.28 162.014 137.28Z" fill="#182B54"/>
<path d="M84.7344 105.64C86.5913 105.64 88.0944 104.135 88.0944 102.28V39.2799C88.0944 37.423 86.5913 35.9199 84.7344 35.9199C82.8774 35.9199 81.3744 37.423 81.3744 39.2799V102.28C81.3744 104.135 82.8774 105.64 84.7344 105.64Z" fill="#182B54"/>
<path d="M84.7345 119.638C86.6669 119.638 88.2334 118.071 88.2334 116.139C88.2334 114.206 86.6669 112.64 84.7345 112.64C82.8021 112.64 81.2356 114.206 81.2356 116.139C81.2356 118.071 82.8021 119.638 84.7345 119.638Z" fill="#182B54"/>
</svg>
