<svg width="38" height="27" viewBox="0 0 38 27" fill="none" xmlns="http://www.w3.org/2000/svg">
<path d="M22.5247 16.6291C24.2126 15.5072 25.3314 13.5892 25.3314 11.4147C25.3314 7.96364 22.5247 5.15742 19.0732 5.15742C15.6217 5.15742 12.8151 7.96364 12.8151 11.4147C12.8151 13.5892 13.9305 15.5072 15.6217 16.6291C11.7984 18.0404 9.06088 21.7085 9.06088 26.0149H10.7291C10.7291 21.4158 14.4734 17.6719 19.0732 17.6719C23.673 17.6719 27.4174 21.4158 27.4174 26.0149H29.0856C29.0856 21.7085 26.348 18.0404 22.5247 16.6291ZM14.4833 11.4147C14.4833 8.88479 16.543 6.82536 19.0732 6.82536C21.6035 6.82536 23.6632 8.88479 23.6632 11.4147C23.6632 13.9446 21.6035 16.004 19.0732 16.004C16.543 16.004 14.4833 13.9446 14.4833 11.4147Z" fill="#2057F2"/>
<path d="M30.8687 12.457C32.5566 11.3352 33.6753 9.41718 33.6753 7.2426C33.6753 3.79157 30.8687 0.985352 27.4172 0.985352C25.7457 0.985352 24.2289 1.6466 23.1036 2.71909C22.6891 3.11716 22.3271 3.56787 22.0343 4.06792C22.5542 4.27847 23.051 4.53837 23.5083 4.8509C23.8045 4.37059 24.1828 3.94949 24.627 3.60735C25.4003 3.01189 26.3643 2.65659 27.4139 2.65659C29.9441 2.65659 32.0039 4.71602 32.0039 7.2459C32.0039 9.34481 30.5825 11.118 28.6543 11.6608C28.2595 11.7727 27.8449 11.8352 27.4139 11.8352C27.2658 11.8352 27.1211 11.8253 26.9763 11.8122C26.9467 12.4142 26.8513 12.9965 26.6966 13.5525C26.9335 13.5328 27.1704 13.4999 27.4139 13.4999C27.7528 13.4999 28.0851 13.5262 28.4142 13.5657C32.5435 14.0624 35.7581 17.5825 35.7581 21.8429H37.4263C37.4263 17.5365 34.6887 13.8683 30.8654 12.457H30.8687Z" fill="#2057F2"/>
<path d="M10.729 13.4999C10.9725 13.4999 11.2094 13.5295 11.4463 13.5525C11.2884 12.9932 11.1962 12.4109 11.1666 11.8122C11.0218 11.8253 10.8771 11.8352 10.729 11.8352C10.298 11.8352 9.88341 11.7727 9.48857 11.6608C7.56047 11.118 6.13906 9.3481 6.13906 7.2459C6.13906 4.71602 8.19878 2.65659 10.729 2.65659C11.7786 2.65659 12.7427 3.01518 13.5159 3.60735C13.9601 3.94949 14.3417 4.37059 14.6346 4.8509C15.0952 4.53837 15.5888 4.27847 16.1086 4.06792C15.8125 3.57116 15.4539 3.11716 15.0393 2.71909C13.9173 1.6466 12.3972 0.985352 10.7257 0.985352C7.27421 0.985352 4.46759 3.79157 4.46759 7.2426C4.46759 9.41718 5.583 11.3352 7.27421 12.457C3.45089 13.8683 0.713379 17.5365 0.713379 21.8429H2.38155C2.38155 17.5825 5.59616 14.0624 9.72547 13.5657C10.0545 13.5262 10.3868 13.4999 10.7257 13.4999H10.729Z" fill="#2057F2"/>
</svg>
