<svg width="128" height="96" viewBox="0 0 128 96" fill="none" xmlns="http://www.w3.org/2000/svg">
<path d="M20.5537 95.9609C20.3701 95.9865 20.185 96 20 96C20.1851 96 20.37 95.9865 20.5537 95.9609ZM20.7402 95.9307C20.7091 95.9365 20.6777 95.9412 20.6465 95.9463C20.6777 95.9412 20.7091 95.9365 20.7402 95.9307ZM20.9199 95.8916C20.8878 95.8992 20.8555 95.9063 20.8232 95.9131C20.8555 95.9063 20.8878 95.8992 20.9199 95.8916ZM21.1113 95.8418C21.075 95.8523 21.0385 95.8617 21.002 95.8711C21.0385 95.8617 21.075 95.8523 21.1113 95.8418ZM21.2822 95.7881C21.2485 95.7995 21.2146 95.8098 21.1807 95.8203C21.2146 95.8098 21.2485 95.7995 21.2822 95.7881ZM21.4482 95.7275C21.4232 95.7372 21.3982 95.7467 21.373 95.7559C21.3982 95.7467 21.4232 95.7372 21.4482 95.7275ZM21.6328 95.6504C21.6064 95.6622 21.5803 95.6743 21.5537 95.6855C21.5803 95.6743 21.6064 95.6622 21.6328 95.6504ZM21.8174 95.5625C21.7811 95.581 21.7447 95.5989 21.708 95.6162C21.7447 95.5989 21.7811 95.581 21.8174 95.5625ZM21.9521 95.4902C21.9301 95.5026 21.9079 95.5145 21.8857 95.5264C21.9079 95.5145 21.9301 95.5026 21.9521 95.4902ZM22.2227 95.3242C22.1342 95.3835 22.044 95.4388 21.9521 95.4902C22.044 95.4388 22.1342 95.3835 22.2227 95.3242ZM22.6787 94.9697C22.6289 95.0147 22.5778 95.0576 22.5264 95.0996C22.5778 95.0576 22.6289 95.0147 22.6787 94.9697ZM106.232 2.2334C107.21 1.25609 108.791 1.25613 109.767 2.23242C110.683 3.14911 110.74 4.59605 109.939 5.57715L109.768 5.76758L21.7676 93.7676C21.2789 94.2563 20.641 94.5 20 94.5C19.359 94.5 18.7211 94.2563 18.2324 93.7676C17.2552 92.7902 17.2559 91.2083 18.2324 90.2324L30.7832 77.6826L29.1436 76.6924C12.4849 66.6355 3.49807 52.1056 2.0127 49.5596L1.81543 49.2148L1.74121 49.0713C1.39648 48.3449 1.42154 47.4938 1.81543 46.7852L2.19141 46.1357C3.60837 43.7536 8.80488 35.5888 17.8672 27.5693C28.2131 18.414 43.5325 9.50001 64 9.5C74.5906 9.5 83.758 11.9147 91.6006 15.4873L92.5469 15.9189L106.232 2.2334ZM16.2236 93.3223H16.2246H16.2236ZM16.293 90.4951C16.2441 90.6154 16.2017 90.7377 16.165 90.8613C16.2017 90.7377 16.2441 90.6154 16.293 90.4951ZM16.6592 89.7988V89.7998V89.7988ZM51.042 86.751C52.6681 87.0684 54.3336 87.3325 56.04 87.5342C55.1868 87.4334 54.3437 87.3172 53.5107 87.1865C52.6778 87.0558 51.855 86.9107 51.042 86.752V86.751ZM77.8525 86.6113H77.8535H77.8525ZM48.6318 86.2354C49.0285 86.3278 49.4276 86.4169 49.8291 86.5029C49.4276 86.4169 49.0285 86.3278 48.6318 86.2354ZM106.512 24.5771C119.236 34.5804 125.752 46.0074 126.185 46.7861C126.578 47.4948 126.604 48.345 126.259 49.0713L126.185 49.2148C125.797 49.9129 120.489 59.2665 110.133 68.4307C99.7869 77.5861 84.4675 86.5 64 86.5C57.7989 86.5 52.1018 85.6459 46.8477 84.2412L51.0342 80.0547C55.0856 80.947 59.3887 81.5 64 81.5C96.7685 81.5 115.758 56.1235 120.548 48.8301L121.09 48.0039L120.546 47.1797C118.125 43.5116 112.178 35.4494 102.844 28.2461L106.512 24.5771ZM46.2803 85.6445C47.0545 85.8537 47.8384 86.0505 48.6318 86.2354C47.8384 86.0505 47.0545 85.8537 46.2803 85.6445ZM82.0859 85.5986C81.5837 85.7361 81.0771 85.8681 80.5664 85.9951C81.0771 85.8681 81.5837 85.7361 82.0859 85.5986ZM93.6377 81.2725V81.2734V81.2725ZM56.2188 79.4619H56.2197H56.2188ZM51.3486 78.5879C51.8767 78.7043 52.4088 78.8149 52.9453 78.9189C52.4088 78.815 51.8767 78.7043 51.3486 78.5879ZM99.0986 78.3506H99.0977H99.0986ZM25.8818 76.4082C26.6909 76.9408 27.52 77.4635 28.3682 77.9756H28.3672C28.0848 77.8051 27.8044 77.6338 27.5264 77.4609C26.9695 77.1146 26.4214 76.7634 25.8818 76.4082ZM102.265 76.3682C101.971 76.5621 101.674 76.7519 101.375 76.9434C102.09 76.4848 102.792 76.0212 103.478 75.5488L102.265 76.3682ZM24.6074 75.5488C24.9339 75.7732 25.2635 75.9963 25.5967 76.2178C25.2635 75.9963 24.9339 75.7732 24.6074 75.5488ZM21.998 73.6768C22.4941 74.0485 22.9984 74.4182 23.5117 74.7842C22.9984 74.4182 22.4941 74.0485 21.998 73.6768ZM105.813 73.874V73.875V73.874ZM64 14.5C31.2312 14.5 12.2419 39.8776 7.45312 47.1709L6.91113 47.9961L7.45508 48.8203C10.5299 53.4806 19.3398 65.2452 33.5938 73.3164L34.5869 73.8789L46.418 62.0469L45.6816 61.0137C43.0568 57.3312 41.5 52.8477 41.5 48C41.5001 35.5945 51.5945 25.5 64 25.5C68.8477 25.5 73.3311 27.0567 77.0137 29.6807L78.0469 30.417L88.7412 19.7227L86.6309 18.8779C80.001 16.2229 72.46 14.5 64 14.5ZM20.2188 72.3027C20.404 72.4498 20.5905 72.5967 20.7783 72.7432C20.5905 72.5967 20.404 72.4498 20.2188 72.3027ZM14 66.8389C15.7665 68.551 17.7072 70.2864 19.8232 71.9883C19.1179 71.421 18.4321 70.8499 17.7656 70.2773C17.5434 70.0864 17.3234 69.8953 17.1055 69.7041C16.0164 68.7484 14.9814 67.79 14 66.8389ZM44.46 61.8838L34.333 72.0117L33.6826 71.6377L34.333 72.0107L44.46 61.8838ZM32.54 70.958C32.8488 71.1456 33.1603 71.3315 33.4746 71.5156C33.1603 71.3315 32.8488 71.1456 32.54 70.958ZM58.5547 71.3486H58.5537H58.5547ZM31.4434 70.2773C31.8049 70.5065 32.1705 70.7334 32.54 70.958C32.1705 70.7334 31.8049 70.5065 31.4434 70.2773ZM86.2588 44.8311C86.4136 45.8691 86.5 46.9257 86.5 48C86.5 60.4056 76.4056 70.5 64 70.5C62.9257 70.5 61.8691 70.4136 60.8311 70.2588L65.752 65.3379C73.9892 64.5067 80.5073 57.9884 81.3379 49.751L86.2588 44.8311ZM113.953 66.9355C113.355 67.5154 112.737 68.098 112.099 68.6807C112.737 68.098 113.355 67.5154 113.953 66.9355ZM30.2168 69.4795C30.6208 69.7475 31.0289 70.0147 31.4434 70.2773C31.0289 70.0147 30.6208 69.7475 30.2168 69.4795ZM30.2168 69.4795C30.0478 69.3674 29.88 69.2546 29.7129 69.1416C29.88 69.2546 30.0478 69.3674 30.2168 69.4795ZM29.0986 68.7217C28.8895 68.5771 28.6818 68.4319 28.4756 68.2861C28.6818 68.4319 28.8895 68.5771 29.0986 68.7217ZM27.9336 67.9004C27.7426 67.7627 27.5536 67.6239 27.3652 67.4854C27.5536 67.6239 27.7426 67.7627 27.9336 67.9004ZM70.0176 62.749V62.75C69.9076 62.7949 69.7968 62.8384 69.6855 62.8809C68.2401 63.4331 66.6926 63.7815 65.0781 63.8916L61.4023 67.5664L65.0781 63.8906C66.8169 63.772 68.4779 63.3773 70.0176 62.749ZM26.8174 67.0791C26.6142 66.9267 26.413 66.7734 26.2129 66.6201C26.413 66.7734 26.6142 66.9267 26.8174 67.0791ZM10.6982 63.4609C11.3802 64.1972 12.0969 64.945 12.8477 65.7002C12.4724 65.3227 12.1051 64.9476 11.7471 64.5742L10.6982 63.4609ZM25.7559 66.2686C25.5378 66.0988 25.3217 65.9284 25.1074 65.7578C25.3217 65.9284 25.5378 66.0988 25.7559 66.2686ZM24.6475 65.3896C24.4861 65.2591 24.3261 65.128 24.167 64.9971C24.3261 65.128 24.4861 65.2591 24.6475 65.3896ZM23.5957 64.5234C23.4553 64.4056 23.3164 64.2869 23.1777 64.1689C23.3164 64.2869 23.4553 64.4056 23.5957 64.5234ZM22.6172 63.6885C22.452 63.5451 22.2885 63.4012 22.126 63.2578C22.2885 63.4012 22.452 63.5451 22.6172 63.6885ZM21.6357 62.8232C21.4872 62.69 21.3406 62.556 21.1943 62.4229C21.3406 62.556 21.4872 62.69 21.6357 62.8232ZM71.6191 61.9883V61.9893V61.9883ZM20.7197 61.9883C20.5609 61.8413 20.4041 61.6937 20.248 61.5469C20.4041 61.6937 20.5609 61.8413 20.7197 61.9883ZM43.2344 59.9834C43.3862 60.2447 43.5429 60.5028 43.7041 60.7578C43.5429 60.5028 43.3862 60.2447 43.2344 59.9834ZM19.8057 61.1289C19.6762 61.0053 19.5483 60.8812 19.4209 60.7578C19.5483 60.8812 19.6762 61.0053 19.8057 61.1289ZM121.805 58.2295C121.296 58.8757 120.754 59.5473 120.177 60.2373L119.503 61.0322C120.336 60.0604 121.102 59.1215 121.805 58.2295ZM18.9121 60.2627C18.7974 60.1498 18.6843 60.0364 18.5713 59.9238C18.6843 60.0364 18.7974 60.1498 18.9121 60.2627ZM3.03613 53.9297C4.05668 55.41 5.38403 57.2193 7.01855 59.2256C5.65664 57.5539 4.50772 56.0192 3.57227 54.6973L3.03613 53.9297ZM74.7559 59.7471C74.928 59.5894 75.0966 59.4278 75.2617 59.2627C75.0966 59.4278 74.928 59.5893 74.7559 59.7471ZM18.1445 59.4971C17.9704 59.3209 17.7989 59.1447 17.6289 58.9697C17.7989 59.1447 17.9704 59.3209 18.1445 59.4971ZM17.291 58.6201C17.1674 58.4913 17.0452 58.3625 16.9238 58.2344C17.0452 58.3625 17.1674 58.4913 17.291 58.6201ZM64 30.5C54.3497 30.5 46.5001 38.3497 46.5 48C46.5 51.2563 47.4503 54.2562 48.9756 56.8389L49.959 58.5049L74.5049 33.96L72.8389 32.9756C70.2561 31.4503 67.2564 30.5 64 30.5ZM122.502 57.333C122.277 57.6262 122.045 57.9249 121.805 58.2295C122.045 57.9249 122.277 57.6262 122.502 57.333ZM16.5293 57.8164C16.3804 57.6571 16.2341 57.4978 16.0889 57.3398C16.2341 57.4978 16.3804 57.6571 16.5293 57.8164ZM122.574 57.2393V57.2402V57.2393ZM15.7871 57.0117C15.6651 56.8776 15.5451 56.7433 15.4258 56.6104C15.5451 56.7433 15.6651 56.8776 15.7871 57.0117ZM77.4512 56.5303H77.4521H77.4512ZM15.0625 56.2051C14.9209 56.0452 14.7822 55.8854 14.6445 55.7275C14.7822 55.8854 14.9209 56.0452 15.0625 56.2051ZM49.1182 53.7451C49.2475 54.0689 49.3874 54.3875 49.5361 54.7012C49.3874 54.3875 49.2475 54.0689 49.1182 53.7451ZM41.1816 55.4111C41.0859 55.1193 40.9958 54.825 40.9111 54.5283C40.9958 54.825 41.0859 55.1193 41.1816 55.4111ZM13.7773 54.7188C13.5963 54.5042 13.4194 54.2917 13.2461 54.082C13.4194 54.2917 13.5963 54.5042 13.7773 54.7188ZM78.749 54.0176C78.7042 54.1275 78.6585 54.237 78.6113 54.3457L78.4658 54.6699C78.5153 54.5626 78.5632 54.4543 78.6104 54.3457L78.749 54.0176ZM13.1201 53.9297C13.0136 53.8002 12.9092 53.6714 12.8057 53.5439C12.9092 53.6714 13.0136 53.8002 13.1201 53.9297ZM0.387695 49.7178C0.423864 49.7938 0.462679 49.8692 0.503906 49.9434C0.628176 50.1671 1.16574 51.1107 2.11816 52.5635V52.5645C1.43771 51.5266 0.969353 50.7482 0.711914 50.3066C0.608874 50.1299 0.539379 50.0072 0.503906 49.9434C0.462634 49.8691 0.423897 49.7939 0.387695 49.7178ZM12.541 53.2178C12.407 53.051 12.2762 52.8855 12.1475 52.7227C12.2762 52.8855 12.407 53.0509 12.541 53.2178ZM11.0859 51.3496C10.7765 50.9394 10.4874 50.5466 10.2178 50.1738C10.4873 50.5466 10.7765 50.9394 11.0859 51.3496ZM79.5107 51.623V51.6221V51.623ZM79.5889 51.2676H79.5898H79.5889ZM9.83789 49.6396C9.9603 49.8124 10.0858 49.9913 10.2178 50.1738C10.0858 49.9913 9.9603 49.8124 9.83789 49.6396ZM9.33789 48.9287C9.49392 49.1553 9.66204 49.3915 9.83789 49.6396C9.40039 49.0223 9.02163 48.471 8.70703 47.9941L9.33789 48.9287ZM0.264648 49.4268C0.242984 49.3701 0.222116 49.3133 0.203125 49.2559C0.222122 49.3132 0.242979 49.3701 0.264648 49.4268ZM0.172852 49.1562C0.159779 49.113 0.146338 49.0699 0.134766 49.0264C0.146343 49.0699 0.159775 49.113 0.172852 49.1562ZM0.107422 48.9131C0.0955933 48.8627 0.0830849 48.8125 0.0732422 48.7617C0.0830907 48.8125 0.0955876 48.8627 0.107422 48.9131ZM0.0664062 48.7207C0.0553999 48.6606 0.0453406 48.6005 0.0371094 48.54C0.0453476 48.6005 0.0553929 48.6606 0.0664062 48.7207ZM0.0234375 48.4248C0.0194077 48.3871 0.0156484 48.3493 0.0126953 48.3115C0.0156528 48.3493 0.0194032 48.3871 0.0234375 48.4248ZM0.00585938 48.1875C0.00388886 48.1455 0.0025999 48.1035 0.00195312 48.0615C0.00260463 48.1035 0.00388402 48.1455 0.00585938 48.1875ZM127.992 47.75V47.749V47.75ZM0.00195312 47.9219C0.00258237 47.8896 0.00347413 47.8574 0.00488281 47.8252C0.00347756 47.8574 0.00257886 47.8896 0.00195312 47.9219ZM0.0117188 47.7041C0.0149803 47.6601 0.0187193 47.6162 0.0234375 47.5723C0.0187235 47.6162 0.0149758 47.6601 0.0117188 47.7041ZM0.0371094 47.459C0.0440596 47.408 0.052601 47.3573 0.0615234 47.3066C0.0526053 47.3573 0.0440549 47.408 0.0371094 47.459ZM127.007 45.2197C127.271 45.6586 127.435 45.9459 127.496 46.0566C127.664 46.3588 127.79 46.6775 127.874 47.0039V47.0049C127.832 46.8417 127.78 46.6806 127.717 46.5225C127.654 46.3641 127.58 46.2089 127.496 46.0576L127.007 45.2197ZM0.0751953 47.2305C0.08661 47.1722 0.100227 47.1144 0.114258 47.0566C0.100231 47.1144 0.0866052 47.1722 0.0751953 47.2305ZM0.130859 46.9834C0.144218 46.9326 0.160383 46.8824 0.175781 46.832C0.160386 46.8824 0.144215 46.9326 0.130859 46.9834ZM0.202148 46.7441C0.217646 46.6973 0.234674 46.6509 0.251953 46.6045C0.234676 46.6509 0.217643 46.6973 0.202148 46.7441ZM0.286133 46.5127C0.305933 46.4633 0.328735 46.415 0.350586 46.3662C0.328737 46.415 0.30593 46.4633 0.286133 46.5127ZM117.497 45.4277H117.496H117.497ZM0.503906 46.0566L0.385742 46.2861C0.373233 46.3125 0.362486 46.3396 0.350586 46.3662C0.397509 46.2614 0.447521 46.1571 0.503906 46.0557V46.0566ZM87.7793 44.8428C87.8387 45.2702 87.884 45.7014 87.9199 46.1357C87.8839 45.7014 87.8387 45.2702 87.7793 44.8428ZM87.3486 42.5547C87.2896 42.3046 87.2272 42.0559 87.1611 41.8086L83.4336 45.5352L87.1611 41.8076L87.3486 42.5547ZM48.3252 44.7793H48.3262H48.3252ZM125.908 43.4736V43.4727V43.4736ZM3.93945 40.7686C3.33771 41.6077 2.81458 42.3713 2.37012 43.042C2.81457 42.3713 3.3377 41.6077 3.93945 40.7686ZM114.9 42.0801V42.0791V42.0801ZM124.197 40.9736V40.9727V40.9736ZM49.9346 40.3799C50.0579 40.1532 50.1865 39.9299 50.3203 39.71C50.1865 39.9299 50.0579 40.1532 49.9346 40.3799ZM6.56543 37.3018C6.16573 37.8022 5.78591 38.2893 5.42578 38.7607C5.78591 38.2893 6.16573 37.8022 6.56543 37.3018ZM121.193 37.0244L121.194 37.0234L121.193 37.0244ZM53.248 36.1621C53.4377 35.9897 53.6313 35.8215 53.8291 35.6582C53.6313 35.8215 53.4377 35.9897 53.248 36.1621ZM72.0752 34.2666H72.0762H72.0752ZM117.227 32.4404H117.228H117.227ZM69.7451 33.1191L69.7441 33.1182L69.7451 33.1191ZM59.2471 32.7207H59.248H59.2471ZM101.486 29.0928C102.094 29.5544 102.688 30.02 103.267 30.4883C102.688 30.02 102.094 29.5544 101.486 29.0928ZM16.873 26.4463C16.4005 26.8644 15.9402 27.285 15.4883 27.7031C15.6254 27.5763 15.7614 27.4472 15.9004 27.3203L16.873 26.4463ZM83.6055 19.3428C84.4418 19.6366 85.2645 19.9457 86.0732 20.2695H86.0723C85.6683 20.1078 85.2605 19.9504 84.8496 19.7959L83.6055 19.3428ZM79.6074 18.0928C79.8743 18.166 80.14 18.2408 80.4043 18.3174C80.14 18.2408 79.8743 18.166 79.6074 18.0928ZM79.0879 17.9521V17.9531V17.9521ZM77.75 17.6152C77.9745 17.6691 78.1981 17.7241 78.4209 17.7803C78.1981 17.7241 77.9745 17.6691 77.75 17.6152ZM75.7041 17.1641C76.3938 17.3035 77.0759 17.4536 77.75 17.6152C77.0759 17.4536 76.3938 17.3035 75.7041 17.1641ZM90.7021 13.4512C90.9584 13.5607 91.2133 13.6713 91.4668 13.7832L92.2217 14.1221C91.7205 13.8938 91.214 13.6699 90.7021 13.4512ZM80.9102 10.1152H80.9111H80.9102ZM109.139 0.165039C109.262 0.201656 109.385 0.244147 109.505 0.292969C109.385 0.244139 109.262 0.201663 109.139 0.165039ZM22.5264 95.0996C22.4869 95.1319 22.4467 95.1628 22.4062 95.1934C22.4466 95.1628 22.4869 95.1319 22.5264 95.0996ZM22.377 95.2158C22.3352 95.2468 22.2927 95.2765 22.25 95.3057C22.2927 95.2765 22.3352 95.2468 22.377 95.2158ZM14.3848 55.4297C14.2249 55.2447 14.0684 55.0608 13.9141 54.8789C14.0684 55.0608 14.225 55.2447 14.3848 55.4297ZM0.364258 49.665C0.337101 49.6058 0.310245 49.5465 0.286133 49.4863C0.310249 49.5465 0.337097 49.6058 0.364258 49.665ZM11.9814 52.5137C11.8626 52.3623 11.747 52.2121 11.6328 52.0645C11.747 52.2121 11.8626 52.3623 11.9814 52.5137ZM11.4785 51.8662C11.3441 51.6912 11.2136 51.5188 11.0859 51.3496C11.2136 51.5188 11.3441 51.6912 11.4785 51.8662Z" fill="#182B54"/>
</svg>
