<svg width="170" height="170" viewBox="0 0 170 170" fill="none" xmlns="http://www.w3.org/2000/svg">
<path d="M105.685 32.1399C105.685 35.1299 108.115 37.5398 111.105 37.5498C117.225 37.5498 122.195 42.4999 122.205 48.6199C122.205 53.6299 118.855 58.0198 114.015 59.3298V61.8999C114.015 63.4599 112.745 64.73 111.185 64.73C109.625 64.73 108.355 63.4599 108.355 61.8999V59.3799C103.455 58.1199 100.025 53.6999 100.025 48.6399C100.025 47.0799 101.295 45.8098 102.855 45.8098C104.415 45.8098 105.685 47.0799 105.685 48.6399C105.685 51.6299 108.115 54.0598 111.105 54.0598C114.095 54.0598 116.525 51.6299 116.525 48.6399C116.525 45.6499 114.095 43.22 111.105 43.22C104.985 43.22 100.015 38.2499 100.015 32.1299C100.015 27.0699 103.445 22.6499 108.355 21.3899V18.8499C108.355 17.2899 109.625 16.0198 111.185 16.0198C112.745 16.0198 114.015 17.2899 114.015 18.8499V21.45C118.835 22.77 122.185 27.1499 122.185 32.1499C122.185 33.7099 120.915 34.98 119.355 34.98C117.795 34.98 116.525 33.7099 116.525 32.1499C116.445 29.1599 113.955 26.7899 110.965 26.8699C108.075 26.9399 105.755 29.2699 105.685 32.1499V32.1399ZM126.085 77.9199C127.545 77.3399 128.255 75.7 127.675 74.24C127.095 72.78 125.455 72.0699 123.995 72.6499C101.205 81.6799 76.4954 64.7799 76.4954 40.3799C76.5154 21.2199 92.0454 5.68992 111.205 5.66992C140.475 5.66992 156.555 39.8699 138.035 62.3999C137.035 63.5999 137.205 65.3899 138.405 66.3899C139.605 67.3899 141.395 67.2198 142.395 66.0198C142.395 66.0198 142.405 66.01 142.415 66C163.945 39.8 145.285 0 111.205 0C88.9154 0.03 70.8554 18.0899 70.8254 40.3799C70.8254 68.8099 99.6054 88.4199 126.075 77.9199H126.085ZM165.365 82.2698C159.685 76.7698 150.715 76.5999 144.825 81.8799L126.325 98.47C125.155 99.51 125.045 101.31 126.095 102.49C127.145 103.67 128.935 103.77 130.115 102.72L148.625 86.1199C152.445 82.6299 158.375 82.9 161.855 86.72C164.845 89.99 165.125 94.9198 162.535 98.5098L129.725 144.73C124.615 151.96 116.175 156.1 107.335 155.71L41.1054 152.95V130.22C41.1054 128.66 39.8354 127.39 38.2754 127.39C36.7154 127.39 35.4454 128.66 35.4454 130.22V155.84C35.4454 160.53 31.6354 164.34 26.9454 164.34H14.1954C9.50539 164.34 5.69539 160.53 5.69539 155.84V106.61C5.69539 101.92 9.50539 98.1099 14.1954 98.1099H26.9454C31.6354 98.1099 35.4454 101.92 35.4454 106.61V111.75C35.4554 113.31 36.7354 114.57 38.3054 114.56C38.5254 114.56 38.7554 114.53 38.9654 114.48C39.8754 114.25 38.3754 115.37 61.3554 95.7698C66.0254 91.7598 72.6754 90.9999 78.1254 93.8599L109.905 110.41C114.705 112.92 116.565 118.84 114.055 123.64C111.755 128.04 106.525 130.03 101.885 128.27L75.1154 118.07C73.6454 117.55 72.0254 118.32 71.4954 119.79C70.9854 121.22 71.6954 122.8 73.0954 123.37L99.8654 133.57C107.845 136.62 116.785 132.63 119.845 124.65C122.655 117.3 119.505 109.02 112.525 105.39L80.7354 88.8298C73.2354 84.8998 64.0954 85.93 57.6754 91.45L41.0654 105.62C40.5454 98.1999 34.3754 92.4399 26.9354 92.4399H14.1854C6.36538 92.4399 0.0153809 98.7799 0.0153809 106.61V155.84C0.0153809 163.66 6.35538 170.01 14.1854 170.01H26.9354C33.6854 170.01 39.4954 165.24 40.8254 158.63C112.015 161.59 107.445 161.41 108.445 161.41C118.745 161.42 128.405 156.43 134.355 148.01L167.165 101.76C171.485 95.7198 170.725 87.4298 165.375 82.2798L165.365 82.2698Z" fill="#182B54"/>
</svg>
