<svg width="170" height="170" viewBox="0 0 170 170" fill="none" xmlns="http://www.w3.org/2000/svg">
<path d="M16.1438 164.816C16.6838 166.276 15.9438 167.906 14.4838 168.456C5.8738 171.676 -2.51623 163.276 0.703768 154.676L27.9838 81.8761C30.0638 76.3361 36.2338 73.5261 41.7738 75.6061C43.2038 76.1461 44.5038 76.9761 45.5838 78.0561L54.4538 86.9261C55.5638 88.0361 55.5638 89.8261 54.4538 90.9361C53.3438 92.0461 51.5538 92.0461 50.4438 90.9361L41.5938 82.0661C39.6438 80.0961 36.4538 80.0761 34.4838 82.0261C33.9638 82.5461 33.5538 83.1661 33.3038 83.8661L6.03378 156.676C5.05378 159.276 6.36379 162.186 8.97379 163.166C10.1138 163.596 11.3838 163.596 12.5238 163.166C13.9838 162.626 15.6038 163.366 16.1538 164.826L16.1438 164.816ZM67.2938 99.7761C66.1938 98.6661 64.4038 98.6461 63.2838 99.7461C62.7138 100.306 62.4138 101.076 62.4438 101.876V127.346C62.4438 128.906 63.7138 130.176 65.2738 130.176C66.8338 130.176 68.1038 128.906 68.1038 127.346V108.606L87.0938 127.596C89.0638 129.556 89.0638 132.746 87.0938 134.716C86.5838 135.226 85.9638 135.626 85.2938 135.876L35.1538 154.646V123.186C35.1538 121.626 33.8838 120.356 32.3238 120.356C30.7638 120.356 29.4938 121.626 29.4938 123.186C29.4938 161.436 29.4238 159.026 29.6538 159.696C30.1738 161.176 31.7838 161.946 33.2638 161.436C33.2838 161.436 33.3038 161.426 33.3238 161.416L87.2938 141.196C92.8338 139.116 95.6438 132.946 93.5638 127.406C93.0238 125.976 92.1938 124.676 91.1138 123.596L67.2938 99.7861V99.7761ZM54.5138 68.0461L71.3238 51.5861C76.0638 46.8461 76.0638 39.1561 71.3238 34.4061C66.5838 29.6661 58.8938 29.6661 54.1438 34.4061C53.0338 35.5161 53.0338 37.3061 54.1438 38.4161C55.2538 39.5261 57.0438 39.5261 58.1538 38.4161C60.7338 35.9261 64.8338 36.0061 67.3138 38.5761C69.7338 41.0761 69.7438 45.0461 67.3338 47.5561L50.5338 63.9961C49.4138 65.0961 49.3938 66.8861 50.4938 68.0061C51.5938 69.1261 53.3838 69.1461 54.5038 68.0461H54.5138ZM129.124 79.4861L107.924 100.686C106.814 101.796 106.814 103.586 107.924 104.696C109.034 105.806 110.824 105.806 111.934 104.696L133.144 83.4861C135.654 80.9361 139.754 80.9061 142.304 83.4161C144.854 85.9261 144.884 90.0261 142.374 92.5761C142.344 92.6061 142.324 92.6261 142.294 92.6561C141.104 93.6661 140.954 95.4561 141.964 96.6461C142.974 97.8361 144.764 97.9861 145.954 96.9761C146.074 96.8761 146.184 96.7661 146.284 96.6461C151.024 91.9061 151.024 84.2161 146.284 79.4661C141.544 74.7261 133.854 74.7261 129.104 79.4661H129.124V79.4861ZM99.1738 32.3761C98.0438 31.2961 96.2438 31.3461 95.1638 32.4761C94.1238 33.5661 94.1238 35.2861 95.1638 36.3761C97.5538 38.7661 97.5538 42.6361 95.1638 45.0261L83.0038 57.1861C81.8938 58.2961 81.8938 60.0861 83.0038 61.1961C84.1138 62.3061 85.9038 62.3061 87.0138 61.1961L99.1638 49.0461C103.764 44.4361 103.764 36.9861 99.1638 32.3761H99.1738ZM91.6638 86.5361L84.3238 93.8761C83.2138 94.9861 83.2138 96.7761 84.3238 97.8861C85.4338 98.9961 87.2238 98.9961 88.3338 97.8861L95.6838 90.5361C96.7938 89.4261 96.7938 87.6361 95.6838 86.5261C94.5738 85.4161 92.7838 85.4161 91.6738 86.5261L91.6638 86.5361ZM109.344 72.8661C108.234 71.7561 106.444 71.7561 105.334 72.8661L101.534 76.6661C100.454 77.7961 100.504 79.5961 101.634 80.6761C102.724 81.7161 104.444 81.7161 105.534 80.6761L109.334 76.8761C110.444 75.7661 110.444 73.9761 109.334 72.8661H109.344ZM76.8638 70.5961L71.7938 75.6561C70.6838 76.7661 70.6838 78.5561 71.7938 79.6661C72.9038 80.7761 74.6938 80.7761 75.8038 79.6661L80.8638 74.5961C81.9138 73.4361 81.8238 71.6461 80.6638 70.5961C79.5838 69.6161 77.9338 69.6161 76.8638 70.5961ZM134.644 67.2461C133.914 67.5661 133.094 67.5661 132.364 67.2461C108.054 56.5861 110.894 36.4061 122.364 32.7461C125.994 31.5861 130.084 32.3661 133.504 34.7961C136.924 32.3761 141.014 31.5861 144.654 32.7461C156.114 36.4061 158.954 56.5761 134.644 67.2461ZM142.924 38.1461C140.604 37.4061 137.694 38.3261 135.484 40.4961C134.384 41.5861 132.604 41.5861 131.504 40.4961C126.304 35.3561 119.814 38.3461 119.484 44.7661C119.234 49.6261 122.814 56.5061 133.494 61.5461C150.844 53.3561 149.664 40.3061 142.914 38.1461H142.924ZM79.6938 0.326132C81.7138 -0.283868 83.8938 -0.0238769 85.7138 1.03612C90.9538 -1.87388 96.6738 1.68613 96.9738 7.47613C97.2438 12.5761 93.4538 17.3461 86.8538 20.2461C86.1238 20.5661 85.3038 20.5661 84.5738 20.2461C71.0938 14.3461 72.7338 2.54613 79.6938 0.326132ZM85.7138 14.5161C94.6038 9.97612 91.0838 3.22612 87.7038 6.56612C86.6038 7.65612 84.8238 7.65612 83.7238 6.56612C80.3438 3.24612 76.7938 9.97612 85.6938 14.5161H85.7138ZM159.864 23.8261C159.134 24.1461 158.314 24.1461 157.584 23.8261C150.984 20.9261 147.194 16.1661 147.464 11.0561C147.764 5.26613 153.484 1.70612 158.724 4.61612C163.964 1.70612 169.684 5.26613 169.984 11.0561C170.244 16.1661 166.454 20.9261 159.854 23.8261H159.864ZM160.724 10.1461C159.624 11.2361 157.844 11.2361 156.734 10.1461C153.364 6.80612 149.844 13.5561 158.724 18.0961C167.614 13.5461 164.074 6.81612 160.714 10.1461H160.724Z" fill="#182B54"/>
</svg>
