<svg width="171" height="135" viewBox="0 0 171 135" fill="none" xmlns="http://www.w3.org/2000/svg">
<path d="M165.93 134.575C165.874 134.571 165.819 134.565 165.764 134.559C165.819 134.565 165.874 134.571 165.93 134.575ZM165.666 134.546C165.616 134.539 165.567 134.532 165.518 134.523C165.567 134.532 165.616 134.539 165.666 134.546ZM167.31 134.466H167.311H167.31ZM165.424 134.506C165.364 134.494 165.304 134.482 165.245 134.468C165.304 134.482 165.364 134.494 165.424 134.506ZM165.183 134.453C165.126 134.439 165.069 134.423 165.013 134.406C165.069 134.423 165.126 134.439 165.183 134.453ZM164.922 134.379C164.87 134.362 164.818 134.344 164.767 134.326C164.818 134.344 164.87 134.362 164.922 134.379ZM164.212 134.089C164.367 134.168 164.526 134.238 164.688 134.299C164.609 134.269 164.53 134.238 164.453 134.204L164.212 134.089ZM168.58 133.903C168.385 134.033 168.18 134.145 167.968 134.239C168.074 134.192 168.178 134.14 168.28 134.084L168.58 133.903ZM169.02 133.585L168.864 133.696C168.922 133.657 168.978 133.615 169.033 133.573C169.028 133.577 169.024 133.581 169.02 133.585ZM169.176 133.459C169.161 133.471 169.147 133.483 169.132 133.495C169.147 133.483 169.161 133.471 169.176 133.459ZM169.345 133.312C169.318 133.336 169.292 133.359 169.265 133.383C169.292 133.359 169.318 133.336 169.345 133.312ZM162.766 132.924C162.87 133.051 162.982 133.171 163.099 133.286C163.045 133.234 162.992 133.181 162.941 133.126L162.766 132.924ZM169.481 133.18C169.459 133.202 169.436 133.225 169.413 133.247C169.436 133.225 169.459 133.202 169.481 133.18ZM139.431 1.89648C147.337 1.89651 154.92 5.0374 160.511 10.6279C166.101 16.2186 169.243 23.8016 169.243 31.708V85.3857C169.243 86.1742 168.93 86.9307 168.372 87.4883C167.815 88.0458 167.058 88.3593 166.27 88.3594C165.481 88.3593 164.725 88.0458 164.167 87.4883C163.61 86.9307 163.297 86.1741 163.297 85.3857V31.708C163.297 25.3787 160.782 19.3085 156.307 14.833C151.831 10.3574 145.76 7.8428 139.431 7.84277H32.0752C25.7458 7.8429 19.6758 10.3575 15.2002 14.833C10.7247 19.3085 8.21013 25.3787 8.20996 31.708V76.4395C8.20996 82.769 10.7246 88.8398 15.2002 93.3154C19.6758 97.791 25.7458 100.306 32.0752 100.306H117.781C132.849 100.306 145.347 106.994 154.244 113.912C162.99 120.712 168.15 127.649 168.725 128.405C168.947 128.715 169.105 129.067 169.19 129.438C169.276 129.813 169.286 130.2 169.221 130.578C169.155 130.956 169.015 131.318 168.808 131.641C168.6 131.964 168.331 132.242 168.015 132.46L167.971 132.489L167.931 132.522C167.462 132.895 166.88 133.096 166.281 133.091H166.277C165.797 133.089 165.323 132.973 164.896 132.754C164.468 132.535 164.097 132.218 163.814 131.829L161.102 128.1V128.593C160.873 128.338 160.63 128.071 160.374 127.794C158.172 125.41 154.96 122.233 150.914 119.053C142.846 112.712 131.319 106.252 117.781 106.252H32.0752C24.1688 106.252 16.5858 103.111 10.9951 97.5205C5.40435 91.9297 2.26367 84.346 2.26367 76.4395V31.708C2.26384 23.8016 5.40445 16.2186 10.9951 10.6279C16.5858 5.03728 24.1688 1.89661 32.0752 1.89648H139.431ZM169.614 133.04C169.601 133.054 169.589 133.069 169.576 133.083C169.589 133.069 169.601 133.054 169.614 133.04ZM169.766 132.867C169.744 132.894 169.721 132.92 169.698 132.946C169.721 132.92 169.744 132.894 169.766 132.867ZM169.833 132.785C169.831 132.788 169.828 132.789 169.826 132.792C169.868 132.739 169.908 132.686 169.947 132.632L169.833 132.785ZM159.344 128.891C161.442 131.168 162.583 132.687 162.602 132.712C162.59 132.696 161.448 131.175 159.344 128.891ZM170.07 132.451V132.45C170.105 132.396 170.139 132.342 170.171 132.286C170.139 132.342 170.105 132.397 170.07 132.451ZM170.359 131.92C170.349 131.943 170.337 131.967 170.326 131.99C170.337 131.967 170.349 131.943 170.359 131.92ZM170.452 131.703C170.435 131.745 170.418 131.787 170.4 131.829C170.418 131.787 170.435 131.745 170.452 131.703ZM170.518 131.526C170.505 131.564 170.492 131.601 170.479 131.638C170.492 131.601 170.505 131.564 170.518 131.526ZM170.656 131.05C170.672 130.979 170.687 130.908 170.699 130.836V130.835C170.687 130.907 170.672 130.979 170.656 131.05ZM157.72 127.182C158.235 127.708 158.712 128.211 159.15 128.683C158.712 128.211 158.235 127.708 157.72 127.182ZM166.665 123.536C168.062 125.119 169.033 126.345 169.545 127.01C169.033 126.346 168.062 125.119 166.665 123.536ZM157.502 126.958C157.576 127.033 157.648 127.108 157.72 127.182C157.648 127.108 157.576 127.033 157.502 126.958ZM156.475 125.935C156.523 125.982 156.571 126.031 156.619 126.078C156.571 126.031 156.523 125.982 156.475 125.935ZM155.361 124.865C155.48 124.978 155.596 125.091 155.713 125.202C155.596 125.091 155.48 124.978 155.361 124.865ZM154.43 124.002C154.749 124.293 155.059 124.581 155.361 124.865C155.059 124.581 154.749 124.293 154.43 124.002ZM154.113 123.713C154.22 123.809 154.325 123.906 154.43 124.002C154.325 123.906 154.22 123.809 154.113 123.713ZM152.224 122.06C152.276 122.104 152.327 122.147 152.379 122.191C152.327 122.147 152.276 122.104 152.224 122.06ZM151.489 121.443C151.615 121.547 151.739 121.652 151.862 121.756C151.739 121.652 151.615 121.547 151.489 121.443ZM150.745 120.836C150.914 120.972 151.082 121.109 151.248 121.245C151.082 121.109 150.914 120.972 150.745 120.836ZM150.053 120.284C150.214 120.411 150.374 120.539 150.532 120.666C150.374 120.539 150.214 120.411 150.053 120.284ZM161.227 117.926C161.67 118.344 162.098 118.756 162.51 119.16C162.098 118.756 161.67 118.344 161.227 117.926ZM149.343 119.732C149.451 119.815 149.557 119.899 149.664 119.981C149.557 119.899 149.451 119.815 149.343 119.732ZM148.584 119.156C148.666 119.218 148.747 119.28 148.829 119.342C148.747 119.28 148.666 119.218 148.584 119.156ZM147.75 118.541C147.882 118.637 148.014 118.735 148.145 118.831C148.014 118.735 147.882 118.637 147.75 118.541ZM146.941 117.963C147.102 118.076 147.262 118.191 147.421 118.305C147.262 118.191 147.102 118.076 146.941 117.963ZM146.155 117.417C146.29 117.509 146.424 117.602 146.557 117.694C146.424 117.602 146.29 117.509 146.155 117.417ZM145.264 116.815C145.426 116.923 145.586 117.032 145.746 117.14C145.586 117.032 145.426 116.923 145.264 116.815ZM144.442 116.279C144.614 116.389 144.784 116.5 144.953 116.611C144.784 116.5 144.614 116.389 144.442 116.279ZM156.817 114.048C157.621 114.706 158.391 115.363 159.126 116.011C158.391 115.363 157.621 114.706 156.817 114.048ZM143.592 115.743C143.718 115.821 143.843 115.9 143.968 115.979C143.843 115.9 143.718 115.821 143.592 115.743ZM142.742 115.225C142.816 115.269 142.89 115.315 142.964 115.359C142.89 115.315 142.816 115.269 142.742 115.225ZM141.787 114.664C141.907 114.733 142.026 114.803 142.146 114.873C142.026 114.803 141.907 114.733 141.787 114.664ZM140.869 114.146C141 114.219 141.13 114.291 141.26 114.364C141.13 114.291 141 114.219 140.869 114.146ZM139.939 113.642C140.065 113.708 140.19 113.776 140.314 113.844C140.19 113.776 140.065 113.708 139.939 113.642ZM138.938 113.122C139.095 113.201 139.251 113.283 139.406 113.363C139.251 113.283 139.095 113.201 138.938 113.122ZM137.984 112.65C138.152 112.731 138.318 112.813 138.484 112.896C138.318 112.813 138.152 112.731 137.984 112.65ZM137.008 112.189C137.156 112.257 137.303 112.326 137.449 112.396C137.303 112.326 137.156 112.257 137.008 112.189ZM135.975 111.728C136.147 111.802 136.318 111.879 136.488 111.955C136.318 111.879 136.147 111.802 135.975 111.728ZM134.998 111.313C135.158 111.379 135.317 111.447 135.477 111.515C135.317 111.447 135.158 111.379 134.998 111.313ZM133.998 110.914C134.117 110.96 134.235 111.007 134.354 111.054C134.235 111.007 134.117 110.96 133.998 110.914ZM132.927 110.512C133.071 110.564 133.214 110.617 133.357 110.671C133.214 110.617 133.071 110.564 132.927 110.512ZM131.87 110.142C132.008 110.188 132.144 110.236 132.281 110.283C132.144 110.236 132.008 110.188 131.87 110.142ZM130.742 109.776C130.926 109.833 131.109 109.892 131.291 109.951C131.109 109.892 130.926 109.833 130.742 109.776ZM129.707 109.468C129.868 109.514 130.028 109.561 130.188 109.608C130.028 109.561 129.868 109.514 129.707 109.468ZM128.604 109.166C128.756 109.206 128.907 109.247 129.059 109.288C128.907 109.247 128.756 109.206 128.604 109.166ZM127.473 108.888C127.638 108.926 127.804 108.966 127.969 109.007C127.804 108.966 127.639 108.926 127.473 108.888ZM126.506 108.672C126.538 108.679 126.571 108.685 126.604 108.692C126.571 108.685 126.538 108.679 126.506 108.672ZM124.884 108.362C125.429 108.456 125.969 108.559 126.506 108.672C125.969 108.559 125.429 108.456 124.884 108.362ZM124.742 108.339C124.789 108.347 124.837 108.354 124.884 108.362C124.837 108.354 124.789 108.347 124.742 108.339ZM124.024 108.225C124.264 108.261 124.504 108.299 124.742 108.339C124.504 108.299 124.264 108.261 124.024 108.225ZM123.678 108.174C123.691 108.176 123.705 108.177 123.719 108.179C123.705 108.177 123.691 108.176 123.678 108.174ZM119.783 107.802C121.102 107.866 122.401 107.992 123.678 108.174C122.401 107.992 121.102 107.866 119.783 107.802ZM119.165 107.776C119.372 107.783 119.578 107.792 119.783 107.802C119.578 107.792 119.372 107.783 119.165 107.776ZM118.392 107.757C118.65 107.761 118.908 107.768 119.165 107.776C119.108 107.774 119.051 107.772 118.994 107.771L118.392 107.757ZM30.5615 107.715C30.8066 107.727 31.052 107.736 31.2979 107.742C31.052 107.736 30.8066 107.727 30.5615 107.715ZM30.1787 107.692C30.0549 107.685 29.9312 107.678 29.8076 107.669C29.9312 107.678 30.0549 107.685 30.1787 107.692ZM29.4014 107.635C29.2906 107.625 29.1799 107.616 29.0693 107.605C29.1799 107.616 29.2906 107.625 29.4014 107.635ZM164.987 107.545V107.546V107.545ZM28.6641 107.563C28.5536 107.551 28.4432 107.54 28.333 107.526C28.4432 107.54 28.5536 107.551 28.6641 107.563ZM167.97 107.395C167.847 107.451 167.722 107.501 167.595 107.545C167.653 107.525 167.71 107.504 167.768 107.481L167.97 107.395ZM27.9141 107.472C27.805 107.457 27.6958 107.444 27.5869 107.428C27.6958 107.444 27.805 107.457 27.9141 107.472ZM27.1963 107.367C27.0774 107.348 26.9585 107.33 26.8398 107.31C26.9585 107.33 27.0774 107.348 27.1963 107.367ZM26.5088 107.251C26.3594 107.224 26.2104 107.196 26.0615 107.167C26.2104 107.196 26.3594 107.224 26.5088 107.251ZM25.7939 107.113C25.6427 107.082 25.4915 107.051 25.3408 107.018C25.4915 107.051 25.6427 107.082 25.7939 107.113ZM25.0596 106.954C24.9079 106.919 24.7566 106.883 24.6055 106.846C24.7566 106.883 24.9079 106.919 25.0596 106.954ZM24.3154 106.773C24.1944 106.742 24.0737 106.71 23.9531 106.678C24.0737 106.71 24.1944 106.742 24.3154 106.773ZM169.539 106.275C169.494 106.321 169.448 106.366 169.401 106.41C169.354 106.467 169.306 106.522 169.255 106.575C169.306 106.522 169.354 106.467 169.401 106.41C169.455 106.36 169.507 106.309 169.558 106.256L169.539 106.275ZM163.074 106.344V106.345V106.344ZM23.5488 106.567C23.4405 106.537 23.3326 106.504 23.2246 106.473C23.3326 106.504 23.4405 106.537 23.5488 106.567ZM22.8984 106.376C22.7286 106.324 22.5595 106.27 22.3906 106.215C22.5595 106.27 22.7286 106.324 22.8984 106.376ZM165.702 100.382C166.269 100.266 166.857 100.325 167.391 100.548L167.437 100.567L167.484 100.583C167.783 100.685 168.047 100.867 168.249 101.109L168.308 101.18L168.374 101.242C168.652 101.503 168.875 101.819 169.026 102.169C169.178 102.519 169.257 102.897 169.257 103.279C169.257 103.661 169.178 104.039 169.026 104.39C168.875 104.74 168.652 105.055 168.374 105.316L168.308 105.379L168.249 105.449C168.047 105.691 167.783 105.873 167.484 105.975L167.409 106.001L167.337 106.034C167.012 106.185 166.658 106.26 166.3 106.253H166.291C165.709 106.245 165.142 106.065 164.661 105.738C164.18 105.411 163.805 104.95 163.583 104.412C163.361 103.874 163.303 103.282 163.414 102.711C163.525 102.14 163.803 101.614 164.21 101.198L164.213 101.195C164.617 100.781 165.136 100.497 165.702 100.382ZM169.69 106.108C169.652 106.152 169.613 106.195 169.573 106.237C169.613 106.195 169.652 106.152 169.69 106.108ZM22.1914 106.149C22.0569 106.105 21.9229 106.058 21.7891 106.012C21.9229 106.058 22.0569 106.105 22.1914 106.149ZM169.838 105.933C169.797 105.985 169.754 106.036 169.71 106.086C169.754 106.036 169.797 105.985 169.838 105.933ZM169.942 105.793C169.918 105.827 169.892 105.861 169.866 105.895C169.892 105.861 169.918 105.827 169.942 105.793ZM21.4521 105.895C21.361 105.862 21.2706 105.827 21.1797 105.793C21.2706 105.827 21.361 105.862 21.4521 105.895ZM20.7578 105.635C20.8978 105.689 21.0389 105.741 21.1797 105.793C21.0537 105.746 20.9272 105.701 20.8018 105.652L20.7578 105.635ZM170.047 105.641C170.035 105.659 170.024 105.677 170.012 105.695C170.024 105.677 170.035 105.659 170.047 105.641ZM170.169 105.444C170.152 105.474 170.134 105.503 170.116 105.532C170.134 105.503 170.152 105.474 170.169 105.444ZM170.311 105.185C170.28 105.247 170.247 105.308 170.213 105.368C170.247 105.308 170.28 105.247 170.311 105.185ZM19.0449 104.909C18.9525 104.867 18.8596 104.825 18.7676 104.782C18.8596 104.825 18.9525 104.867 19.0449 104.909ZM170.476 104.808L170.403 104.985C170.431 104.921 170.456 104.856 170.48 104.791C170.478 104.796 170.478 104.802 170.476 104.808ZM162.196 104.982C162.157 104.887 162.121 104.79 162.089 104.692C162.121 104.79 162.157 104.887 162.196 104.982ZM170.551 104.59C170.534 104.643 170.515 104.696 170.496 104.749C170.515 104.696 170.534 104.643 170.551 104.59ZM18.4102 104.61C18.2921 104.553 18.1739 104.496 18.0566 104.438C18.1739 104.496 18.2921 104.553 18.4102 104.61ZM162.054 104.574C162.037 104.517 162.019 104.461 162.004 104.403C162.019 104.461 162.036 104.517 162.054 104.574ZM170.611 104.382C170.596 104.438 170.58 104.494 170.562 104.55C170.58 104.494 170.596 104.438 170.611 104.382ZM170.664 104.163C170.651 104.225 170.636 104.286 170.62 104.348C170.636 104.286 170.651 104.225 170.664 104.163ZM161.971 104.258C161.959 104.205 161.946 104.153 161.937 104.1C161.946 104.153 161.959 104.205 161.971 104.258ZM17.7061 104.258C17.6168 104.212 17.5273 104.166 17.4385 104.119C17.5273 104.166 17.6168 104.212 17.7061 104.258ZM170.703 103.948C170.693 104.011 170.682 104.073 170.669 104.135C170.682 104.073 170.693 104.011 170.703 103.948ZM161.917 103.981C161.906 103.914 161.896 103.846 161.889 103.777C161.896 103.846 161.906 103.914 161.917 103.981ZM170.727 103.771C170.72 103.825 170.714 103.879 170.706 103.933C170.714 103.879 170.72 103.825 170.727 103.771ZM17.0723 103.921C16.9742 103.867 16.8758 103.814 16.7783 103.76C16.8758 103.814 16.9742 103.867 17.0723 103.921ZM161.879 103.676C161.873 103.61 161.869 103.544 161.866 103.479C161.869 103.544 161.873 103.61 161.879 103.676ZM16.4277 103.56C16.3322 103.504 16.2365 103.45 16.1416 103.394C16.2365 103.45 16.3322 103.504 16.4277 103.56ZM161.861 103.353C161.861 103.302 161.861 103.252 161.862 103.202C161.861 103.252 161.861 103.302 161.861 103.353ZM15.7939 103.185C15.6889 103.121 15.5839 103.056 15.4795 102.991C15.5839 103.056 15.6889 103.121 15.7939 103.185ZM15.1855 102.805C15.074 102.733 14.9632 102.661 14.8525 102.588C14.9632 102.661 15.074 102.733 15.1855 102.805ZM14.582 102.407C14.4649 102.328 14.3485 102.248 14.2324 102.168C14.3485 102.248 14.4649 102.328 14.582 102.407ZM162.535 100.917C162.421 101.101 162.32 101.293 162.233 101.491C162.32 101.292 162.421 101.1 162.535 100.916V100.917ZM13.9658 101.981C13.8352 101.889 13.7055 101.795 13.5762 101.7C13.7055 101.795 13.8352 101.889 13.9658 101.981ZM13.3809 101.558C13.2603 101.468 13.1408 101.377 13.0215 101.285C13.1408 101.377 13.2603 101.468 13.3809 101.558ZM12.7461 101.072C12.6259 100.978 12.5066 100.882 12.3877 100.786C12.5066 100.882 12.6259 100.978 12.7461 101.072ZM169.976 100.81C170.024 100.879 170.07 100.95 170.114 101.021C170.07 100.95 170.024 100.879 169.976 100.81ZM163.63 99.7139C163.456 99.8456 163.292 99.9911 163.139 100.148C163.292 99.9911 163.456 99.8455 163.63 99.7139ZM12.1885 100.625C12.049 100.51 11.9111 100.394 11.7734 100.276C11.9111 100.394 12.049 100.51 12.1885 100.625ZM168.93 99.6885C168.987 99.7338 169.043 99.7809 169.097 99.8301C169.043 99.7809 168.987 99.7338 168.93 99.6885ZM168.376 99.334V99.335V99.334ZM29.917 98.7012C29.9108 98.7006 29.9046 98.6998 29.8984 98.6992C30.0703 98.716 30.2425 98.7313 30.415 98.7441L29.917 98.7012ZM29.6748 98.6748C29.5604 98.6625 29.4461 98.6498 29.332 98.6357C29.4461 98.6498 29.5604 98.6625 29.6748 98.6748ZM29.2119 98.6201C29.0766 98.6026 28.9415 98.5844 28.8066 98.5645C28.9415 98.5844 29.0766 98.6026 29.2119 98.6201ZM28.5986 98.5322C28.4901 98.5151 28.3816 98.4982 28.2734 98.4795C28.3816 98.4982 28.4901 98.5151 28.5986 98.5322ZM28.0889 98.4453C27.9696 98.4237 27.8503 98.4024 27.7314 98.3789C27.8503 98.4024 27.9696 98.4237 28.0889 98.4453ZM27.5674 98.3447C27.4444 98.3194 27.3216 98.294 27.1992 98.2666C27.3216 98.294 27.4444 98.3194 27.5674 98.3447ZM27.0176 98.2246C26.9096 98.1995 26.8018 98.1741 26.6943 98.1475C26.8018 98.1741 26.9096 98.1995 27.0176 98.2246ZM26.4414 98.082C26.356 98.0598 26.2706 98.0379 26.1855 98.0146C26.2706 98.0379 26.356 98.0598 26.4414 98.082ZM25.9209 97.9404C25.8332 97.9153 25.7455 97.8904 25.6582 97.8643C25.7455 97.8904 25.8332 97.9153 25.9209 97.9404ZM25.4277 97.793C25.3286 97.7621 25.2295 97.7314 25.1309 97.6992C25.2295 97.7314 25.3286 97.7621 25.4277 97.793ZM24.9287 97.6318C24.8272 97.5976 24.7259 97.563 24.625 97.5273C24.7259 97.563 24.8272 97.5976 24.9287 97.6318ZM24.4062 97.4482C24.3064 97.4118 24.2067 97.3748 24.1074 97.3369C24.2067 97.3748 24.3064 97.4118 24.4062 97.4482ZM23.9238 97.2656C23.8272 97.2278 23.7308 97.1895 23.6348 97.1504C23.7308 97.1895 23.8272 97.2278 23.9238 97.2656ZM23.3574 97.0352C23.2974 97.0097 23.2375 96.9839 23.1777 96.958C23.2375 96.9839 23.2974 97.0097 23.3574 97.0352ZM22.8789 96.8262C22.797 96.7892 22.7153 96.7518 22.6338 96.7139C22.7153 96.7518 22.797 96.7892 22.8789 96.8262ZM22.4492 96.627C22.3427 96.5761 22.2366 96.5242 22.1309 96.4717C22.2366 96.5242 22.3427 96.5761 22.4492 96.627ZM21.9316 96.3711C21.853 96.3311 21.7745 96.291 21.6963 96.25C21.7745 96.291 21.853 96.3311 21.9316 96.3711ZM21.4443 96.1162C21.376 96.0793 21.3082 96.0415 21.2402 96.0039C21.3082 96.0415 21.376 96.0793 21.4443 96.1162ZM20.9619 95.8477C20.891 95.8071 20.8205 95.766 20.75 95.7246C20.8205 95.766 20.891 95.8071 20.9619 95.8477ZM5.60645 93.1689C5.8794 93.6009 6.16353 94.0263 6.45801 94.4453C6.16354 94.0263 5.8794 93.6009 5.60645 93.1689ZM20.5352 95.5977C20.446 95.544 20.3579 95.4885 20.2695 95.4336C20.3579 95.4885 20.446 95.544 20.5352 95.5977ZM20.0547 95.2998C19.9833 95.2543 19.9127 95.2075 19.8418 95.1611C19.9127 95.2075 19.9833 95.2543 20.0547 95.2998ZM19.6064 95.0059C19.5361 94.9586 19.4663 94.9104 19.3965 94.8623C19.4663 94.9104 19.5361 94.9586 19.6064 95.0059ZM19.1572 94.6963C19.0764 94.6391 18.9962 94.5808 18.916 94.5225C18.9962 94.5808 19.0763 94.6391 19.1572 94.6963ZM18.7334 94.3896C18.6393 94.3197 18.5462 94.2483 18.4531 94.1768C18.5462 94.2483 18.6393 94.3197 18.7334 94.3896ZM18.29 94.0518C18.2191 93.9963 18.1494 93.9392 18.0791 93.8828C18.1494 93.9392 18.2191 93.9963 18.29 94.0518ZM17.8789 93.7227C17.8033 93.6605 17.7292 93.5964 17.6543 93.5332C17.7292 93.5964 17.8033 93.6605 17.8789 93.7227ZM15.5166 91.4727C15.758 91.7385 16.0056 91.9998 16.2607 92.2549C16.0056 91.9998 15.758 91.7385 15.5166 91.4727ZM15.2607 91.1846C15.2258 91.1447 15.1899 91.1055 15.1553 91.0654C15.1899 91.1055 15.2258 91.1447 15.2607 91.1846ZM14.457 90.2158C14.6402 90.4501 14.8285 90.6808 15.0215 90.9082C14.8285 90.6808 14.6402 90.4501 14.457 90.2158ZM14.3193 90.0371C14.252 89.9492 14.1851 89.8612 14.1191 89.7725C14.1851 89.8612 14.252 89.9492 14.3193 90.0371ZM166.048 89.8535C165.978 89.85 165.908 89.8446 165.839 89.8379C165.908 89.8446 165.978 89.85 166.048 89.8535ZM167.359 89.7246C167.218 89.7601 167.075 89.7889 166.93 89.8105C167.075 89.7889 167.218 89.7602 167.359 89.7246ZM165.738 89.8262C165.699 89.8215 165.66 89.8172 165.621 89.8115C165.66 89.8172 165.699 89.8215 165.738 89.8262ZM165.534 89.7969C165.494 89.7901 165.453 89.7832 165.413 89.7754C165.453 89.7832 165.494 89.7901 165.534 89.7969ZM165.32 89.7559C165.283 89.7477 165.245 89.7396 165.208 89.7305C165.245 89.7396 165.283 89.7477 165.32 89.7559ZM165.115 89.7061C165.076 89.6955 165.036 89.6854 164.997 89.6738C165.036 89.6854 165.076 89.6955 165.115 89.7061ZM164.897 89.6416C164.869 89.6326 164.841 89.6238 164.813 89.6143C164.841 89.6238 164.869 89.6326 164.897 89.6416ZM13.9912 89.5977C13.927 89.5094 13.8627 89.4212 13.7998 89.332C13.8627 89.4212 13.927 89.5094 13.9912 89.5977ZM164.679 89.5654C164.658 89.5576 164.638 89.5492 164.617 89.541C164.638 89.5492 164.658 89.5576 164.679 89.5654ZM164.506 89.4951C164.474 89.4813 164.441 89.4677 164.409 89.4531C164.441 89.4678 164.474 89.4813 164.506 89.4951ZM169.922 87.9658C169.776 88.1722 169.614 88.3688 169.433 88.5498C169.066 88.9168 168.641 89.2131 168.181 89.4307C168.641 89.213 169.066 88.9159 169.433 88.5488C169.614 88.3679 169.776 88.1721 169.922 87.9658ZM164.306 89.4043C164.282 89.3928 164.259 89.3811 164.235 89.3691C164.259 89.3811 164.282 89.3928 164.306 89.4043ZM163.963 89.2178C163.919 89.1916 163.877 89.1644 163.834 89.1367C163.877 89.1644 163.919 89.1916 163.963 89.2178ZM163.764 89.0908C163.725 89.0648 163.687 89.038 163.649 89.0107C163.687 89.038 163.725 89.0648 163.764 89.0908ZM13.624 89.0771C13.5847 89.0198 13.5446 88.963 13.5059 88.9053C13.5446 88.963 13.5847 89.0198 13.624 89.0771ZM163.599 88.9736C163.568 88.9508 163.538 88.927 163.508 88.9033C163.538 88.927 163.568 88.9508 163.599 88.9736ZM163.021 88.46C163.05 88.4897 163.077 88.5198 163.106 88.5488C163.135 88.5772 163.164 88.6043 163.193 88.6318C163.164 88.6045 163.135 88.578 163.106 88.5498C163.077 88.5206 163.05 88.4898 163.021 88.46ZM13.3857 88.7217C13.3205 88.6223 13.255 88.5231 13.1914 88.4229C13.255 88.5231 13.3205 88.6223 13.3857 88.7217ZM13.0791 88.2422C13.0244 88.1541 12.9695 88.0663 12.916 87.9775C12.9695 88.0663 13.0244 88.1541 13.0791 88.2422ZM162.678 88.0527C162.638 87.9986 162.599 87.9434 162.562 87.8877C162.599 87.9434 162.638 87.9986 162.678 88.0527ZM162.513 87.8125C162.486 87.7706 162.459 87.7283 162.434 87.6855C162.459 87.7283 162.486 87.7706 162.513 87.8125ZM12.8086 87.7959C12.7484 87.6938 12.6893 87.5912 12.6309 87.4883C12.6893 87.5912 12.7484 87.6938 12.8086 87.7959ZM170.089 87.7129C170.075 87.7356 170.06 87.7578 170.046 87.7803C170.06 87.7578 170.075 87.7356 170.089 87.7129ZM162.392 87.6133C162.374 87.5833 162.356 87.5538 162.34 87.5234C162.356 87.5538 162.374 87.5833 162.392 87.6133ZM170.193 87.5322C170.178 87.5595 170.163 87.5863 170.147 87.6133C170.163 87.5863 170.178 87.5595 170.193 87.5322ZM162.301 87.4492C162.279 87.407 162.258 87.3642 162.237 87.3213C162.258 87.3642 162.279 87.407 162.301 87.4492ZM12.5244 87.2979C12.4759 87.2105 12.4272 87.1232 12.3799 87.0352C12.4272 87.1232 12.4759 87.2105 12.5244 87.2979ZM162.21 87.2637C162.193 87.2265 162.176 87.189 162.16 87.1514C162.176 87.189 162.193 87.2265 162.21 87.2637ZM170.374 87.1611C170.364 87.1833 170.355 87.2055 170.345 87.2275C170.355 87.2055 170.364 87.1833 170.374 87.1611ZM162.112 87.0352C162.1 87.0047 162.089 86.9741 162.077 86.9434C162.089 86.9741 162.1 87.0047 162.112 87.0352ZM170.451 86.9717C170.443 86.9929 170.435 87.0141 170.427 87.0352C170.435 87.0141 170.443 86.9929 170.451 86.9717ZM162.05 86.8701C162.033 86.822 162.017 86.7733 162.002 86.7246C162.017 86.7733 162.033 86.822 162.05 86.8701ZM170.521 86.7725C170.514 86.7957 170.506 86.8187 170.498 86.8418C170.506 86.8187 170.514 86.7957 170.521 86.7725ZM12.2646 86.8174C12.2259 86.7433 12.1874 86.6692 12.1494 86.5947C12.1874 86.6692 12.2259 86.7433 12.2646 86.8174ZM161.983 86.6641C161.968 86.6116 161.953 86.5589 161.939 86.5059C161.953 86.5589 161.968 86.6116 161.983 86.6641ZM161.797 85.3857C161.797 85.7534 161.842 86.1169 161.93 86.4678C161.86 86.1878 161.816 85.9001 161.802 85.6084L161.797 85.3857ZM170.64 86.335C170.632 86.3715 170.624 86.4081 170.615 86.4443C170.624 86.4081 170.632 86.3715 170.64 86.335ZM12.0195 86.3359C11.9821 86.2601 11.9457 86.1837 11.9092 86.1074C11.9457 86.1837 11.9821 86.2601 12.0195 86.3359ZM170.673 86.165C170.668 86.1908 170.664 86.2166 170.659 86.2422C170.664 86.2166 170.668 86.1908 170.673 86.165ZM170.721 85.8281C170.709 85.9413 170.693 86.0535 170.673 86.165C170.693 86.0494 170.71 85.9329 170.722 85.8154L170.721 85.8281ZM11.7715 85.8154C11.7397 85.7465 11.7079 85.6776 11.6768 85.6084C11.7079 85.6776 11.7397 85.7465 11.7715 85.8154ZM11.5566 85.3369C11.5326 85.2814 11.509 85.2256 11.4854 85.1699C11.509 85.2256 11.5326 85.2814 11.5566 85.3369ZM11.3369 84.8115C11.3159 84.7595 11.295 84.7075 11.2744 84.6553C11.295 84.7075 11.3159 84.7595 11.3369 84.8115ZM11.1719 84.3906C11.1316 84.2848 11.0923 84.1787 11.0537 84.0723C11.0923 84.1787 11.1316 84.2848 11.1719 84.3906ZM10.9766 83.8584C10.9499 83.7825 10.9243 83.7061 10.8984 83.6299C10.9243 83.7061 10.9499 83.7825 10.9766 83.8584ZM10.8135 83.376C10.7821 83.2799 10.7517 83.1835 10.7217 83.0869C10.7517 83.1835 10.7821 83.2799 10.8135 83.376ZM10.6406 82.8213C10.6165 82.7401 10.5936 82.6586 10.5703 82.5771C10.5936 82.6586 10.6165 82.7401 10.6406 82.8213ZM10.5 82.3291C10.4768 82.244 10.4548 82.1586 10.4326 82.0732C10.4548 82.1586 10.4768 82.244 10.5 82.3291ZM10.3672 81.8203C10.3405 81.7128 10.3151 81.605 10.29 81.4971C10.3151 81.605 10.3405 81.7128 10.3672 81.8203ZM10.248 81.3154C10.2225 81.2011 10.1986 81.0864 10.1748 80.9717C10.1986 81.0864 10.2225 81.2011 10.248 81.3154ZM10.1338 80.7744C10.112 80.664 10.0924 80.5532 10.0723 80.4424C10.0924 80.5532 10.112 80.664 10.1338 80.7744ZM10.0352 80.2412C10.0176 80.1392 10.0015 80.0369 9.98535 79.9346C10.0015 80.0369 10.0176 80.1392 10.0352 80.2412ZM9.87988 79.1924C9.86365 79.0615 9.84987 78.9302 9.83594 78.7988C9.84986 78.9302 9.86365 79.0615 9.87988 79.1924ZM9.80273 78.4648C9.77507 78.1605 9.7525 77.8551 9.7373 77.5488L9.73633 77.5312C9.75157 77.8434 9.77454 78.1546 9.80273 78.4648ZM80.0273 76.083V76.082L80.2061 76.1709V76.1719L80.0273 76.083ZM80.4619 76.1504C80.3824 76.159 80.3027 76.1654 80.2227 76.1699C80.3027 76.1654 80.3824 76.159 80.4619 76.1504ZM80.7061 76.1162C80.6473 76.1258 80.5884 76.1343 80.5293 76.1416C80.5884 76.1343 80.6473 76.1258 80.7061 76.1162ZM80.9502 76.0693C80.9042 76.0795 80.8579 76.088 80.8115 76.0967C80.8579 76.088 80.9042 76.0795 80.9502 76.0693ZM81.2051 76.0049C81.158 76.0181 81.111 76.0312 81.0635 76.043C81.1109 76.0312 81.158 76.0182 81.2051 76.0049ZM81.4434 75.9307C81.3954 75.947 81.3473 75.9628 81.2988 75.9775C81.3473 75.9628 81.3954 75.9471 81.4434 75.9307ZM78.7705 75.9043V75.9053V75.9043ZM81.6562 75.8516C81.6211 75.8656 81.5863 75.8804 81.5508 75.8936C81.5863 75.8804 81.6211 75.8656 81.6562 75.8516ZM82.2422 75.5703L82.2412 75.5713C82.1636 75.6159 82.0848 75.6584 82.0049 75.6982C81.9323 75.7344 81.8584 75.7676 81.7842 75.7998C81.9404 75.732 82.0938 75.6557 82.2422 75.5703ZM77.623 75.3584V75.3594V75.3584ZM76.9062 74.7441C77.0058 74.8509 77.1098 74.9531 77.2197 75.0488C77.1098 74.9532 77.0058 74.8508 76.9062 74.7441ZM101.806 34.9434C102.588 34.7869 103.401 34.9421 104.071 35.376C104.719 35.812 105.17 36.4855 105.325 37.251C105.481 38.0176 105.327 38.8152 104.899 39.4697L82.5342 73.2871L82.5293 73.293C82.2657 73.6954 81.9111 74.0307 81.4941 74.2705C81.181 74.4505 80.8385 74.5731 80.4844 74.6338L80.374 74.5781L80.0107 74.583C79.5715 74.5879 79.137 74.4856 78.7461 74.2852C78.3552 74.0847 78.019 73.7912 77.7666 73.4316L77.7461 73.4033L77.7256 73.376L67.1016 59.6279C66.645 58.9877 66.4524 58.1959 66.5635 57.417C66.6751 56.6353 67.0837 55.9256 67.7051 55.4385C68.3278 54.9613 69.1153 54.7506 69.8936 54.8506C70.6706 54.9506 71.3767 55.3531 71.8584 55.9707L79.8379 66.6104L99.875 36.2217C100.326 35.5595 101.02 35.1006 101.806 34.9434ZM76.5391 74.293C76.5879 74.3626 76.6386 74.4307 76.6914 74.4971C76.6385 74.4306 76.5871 74.3627 76.5381 74.293L65.8926 60.5156L76.5391 74.293ZM71.9219 54.0293C72.35 54.3027 72.7327 54.6495 73.0498 55.0586H73.0488C72.9581 54.9416 72.8627 54.8292 72.7617 54.7227C72.5099 54.4568 72.2274 54.2245 71.9219 54.0293ZM98.9043 35.0215C98.8095 35.135 98.7197 35.2537 98.6357 35.377L79.7598 64.0049L79.7588 64.0039L98.6357 35.377C98.7146 35.2613 98.7984 35.1491 98.8867 35.042L98.9043 35.0215ZM65.5654 59.9883C65.5379 59.9364 65.5118 59.8839 65.4863 59.8311C65.5118 59.8838 65.5379 59.9364 65.5654 59.9883ZM65.4209 59.6895C65.4043 59.6518 65.3876 59.6142 65.3721 59.5762C65.3876 59.6142 65.4043 59.6518 65.4209 59.6895ZM65.3516 59.5244C65.3328 59.4769 65.315 59.429 65.2979 59.3809C65.315 59.429 65.3328 59.4769 65.3516 59.5244ZM65.2734 59.3115C65.2574 59.2643 65.2429 59.2166 65.2285 59.1689C65.2429 59.2166 65.2575 59.2643 65.2734 59.3115ZM65.2139 59.1211C65.1983 59.0676 65.1835 59.014 65.1699 58.96C65.1835 59.014 65.1983 59.0676 65.2139 59.1211ZM65.1602 58.9209C65.1464 58.8642 65.1346 58.8072 65.123 58.75C65.1346 58.8072 65.1465 58.8642 65.1602 58.9209ZM65.1152 58.7139C65.1048 58.6597 65.0954 58.6053 65.0869 58.5508C65.0954 58.6053 65.1048 58.6597 65.1152 58.7139ZM65.0781 58.4912C65.0698 58.4328 65.0627 58.3742 65.0566 58.3154C65.0627 58.3742 65.0698 58.4328 65.0781 58.4912ZM65.041 58.123C65.0449 58.1873 65.0501 58.2515 65.0566 58.3154C65.05 58.2515 65.0449 58.1873 65.041 58.123ZM65.0518 57.4238C65.0385 57.5655 65.0323 57.7073 65.0322 57.8486C65.0322 57.7073 65.0385 57.5655 65.0518 57.4238ZM65.1211 56.958C65.1317 56.9047 65.1428 56.8516 65.1553 56.7988L65.1621 56.7725C65.1472 56.8339 65.1335 56.8958 65.1211 56.958ZM65.3945 56.0723C65.4089 56.0383 65.4233 56.0043 65.4385 55.9707C65.4233 56.0043 65.4089 56.0383 65.3945 56.0723ZM66.0283 55.0049C66.0563 54.9698 66.0853 54.9356 66.1143 54.9014C66.0853 54.9356 66.0563 54.9698 66.0283 55.0049ZM66.6162 54.3936C66.5071 54.4876 66.4028 54.5863 66.3037 54.6895C66.4028 54.5863 66.5071 54.4876 66.6162 54.3936ZM66.7871 54.2539V54.2529V54.2539ZM67.3398 53.8906H67.3389H67.3398ZM71.2871 53.6934C71.3572 53.7236 71.4267 53.7553 71.4951 53.7891C71.4267 53.7552 71.3572 53.7237 71.2871 53.6934ZM70.9951 53.5791C71.0939 53.6138 71.1912 53.6519 71.2871 53.6934C71.1912 53.652 71.0939 53.6138 70.9951 53.5791ZM70.876 53.5391C70.9159 53.5518 70.9556 53.5652 70.9951 53.5791C70.9556 53.5652 70.9159 53.5518 70.876 53.5391ZM68.5586 53.4287C69.0482 53.3215 69.5568 53.2967 70.0635 53.3594C69.5569 53.2967 69.0482 53.3216 68.5586 53.4287ZM70.085 53.3623C70.0961 53.3637 70.1071 53.3657 70.1182 53.3672L70.0635 53.3594C70.0706 53.3603 70.0778 53.3614 70.085 53.3623ZM106.449 35.916V35.917V35.916ZM105.079 34.251C105.374 34.4698 105.638 34.7221 105.868 35.002C105.684 34.7782 105.478 34.5723 105.252 34.3867L105.079 34.251ZM99.0674 34.8359C99.1092 34.7911 99.1519 34.7472 99.1953 34.7041C99.1518 34.7471 99.1092 34.7911 99.0674 34.8359ZM104.112 33.7139C104.317 33.7963 104.517 33.8935 104.709 34.0059L104.898 34.124C104.711 34.0017 104.516 33.8943 104.314 33.8018L104.112 33.7139ZM99.918 34.1221C99.9605 34.0944 100.003 34.0673 100.047 34.041C100.003 34.0673 99.9605 34.0944 99.918 34.1221ZM100.086 34.0176C100.14 33.9856 100.195 33.9545 100.25 33.9248C100.195 33.9545 100.14 33.9856 100.086 34.0176ZM100.273 33.9131C100.323 33.887 100.373 33.8622 100.423 33.8379C100.373 33.8622 100.323 33.887 100.273 33.9131ZM100.478 33.8115C100.52 33.7918 100.563 33.7733 100.605 33.7549C100.563 33.7733 100.52 33.7918 100.478 33.8115ZM101.293 33.5215C101.083 33.5743 100.878 33.6415 100.68 33.7227C100.878 33.6415 101.083 33.5743 101.293 33.5215ZM101.511 33.4727L101.512 33.4717L101.511 33.4727ZM0.763672 31.709V31.708V31.709ZM9.70996 31.6777C9.71031 31.4233 9.71563 31.1694 9.72461 30.916C9.71563 31.1694 9.71031 31.4233 9.70996 31.6777ZM161.796 31.6777C161.795 31.1682 161.777 30.6604 161.742 30.1553C161.777 30.6604 161.795 31.1682 161.796 31.6777ZM9.77051 30.0635C9.75724 30.2435 9.74525 30.4238 9.73633 30.6045C9.74525 30.4238 9.75724 30.2435 9.77051 30.0635ZM161.736 30.0664C161.739 30.096 161.74 30.1257 161.742 30.1553C161.74 30.1257 161.739 30.096 161.736 30.0664ZM9.83594 29.3438C9.8489 29.2219 9.86201 29.1 9.87695 28.9785C9.86201 29.1 9.8489 29.2219 9.83594 29.3438ZM161.629 28.9785C161.644 29.1 161.657 29.2218 161.67 29.3438C161.657 29.2218 161.644 29.1 161.629 28.9785ZM9.90625 28.7617C9.91937 28.663 9.93186 28.5643 9.94629 28.4658C9.93186 28.5643 9.91937 28.663 9.90625 28.7617ZM161.56 28.4658C161.574 28.5643 161.587 28.663 161.601 28.7617C161.587 28.663 161.574 28.5643 161.56 28.4658ZM9.99121 28.1836C10.0062 28.0898 10.02 27.9959 10.0361 27.9023C10.02 27.9959 10.0062 28.0898 9.99121 28.1836ZM161.47 27.9023C161.486 27.9959 161.501 28.0898 161.516 28.1836C161.501 28.0898 161.486 27.9959 161.47 27.9023ZM10.0908 27.6055C10.1043 27.5332 10.1167 27.4608 10.1309 27.3887C10.1167 27.4608 10.1043 27.5332 10.0908 27.6055ZM161.375 27.3887C161.389 27.4608 161.403 27.5331 161.416 27.6055C161.403 27.5331 161.389 27.4608 161.375 27.3887ZM10.1943 27.085C10.2093 27.0143 10.2236 26.9435 10.2393 26.873C10.2236 26.9435 10.2093 27.0143 10.1943 27.085ZM161.267 26.873C161.282 26.9436 161.298 27.0142 161.312 27.085C161.298 27.0142 161.282 26.9436 161.267 26.873ZM10.3066 26.584C10.327 26.4977 10.3468 26.4112 10.3682 26.3252C10.3468 26.4112 10.327 26.4977 10.3066 26.584ZM161.139 26.3252C161.16 26.4112 161.18 26.4977 161.2 26.584C161.18 26.4977 161.16 26.4112 161.139 26.3252ZM10.4199 26.123C10.4486 26.0119 10.4774 25.9007 10.5078 25.79C10.4774 25.9007 10.4486 26.0119 10.4199 26.123ZM160.998 25.79C161.028 25.9007 161.057 26.0118 161.086 26.123C161.057 26.0118 161.028 25.9007 160.998 25.79ZM10.5586 25.6074C10.5887 25.5014 10.6197 25.3956 10.6514 25.29C10.6197 25.3956 10.5887 25.5014 10.5586 25.6074ZM160.854 25.29C160.886 25.3956 160.917 25.5014 160.947 25.6074C160.917 25.5014 160.886 25.3956 160.854 25.29ZM10.7256 25.0488C10.7549 24.9549 10.7849 24.8611 10.8154 24.7676C10.7849 24.8611 10.7549 24.9549 10.7256 25.0488ZM160.691 24.7676C160.722 24.861 160.751 24.955 160.78 25.0488C160.751 24.955 160.722 24.861 160.691 24.7676ZM10.8936 24.5322C10.9222 24.4478 10.9509 24.3634 10.9805 24.2793C10.9509 24.3634 10.9222 24.4478 10.8936 24.5322ZM160.525 24.2793C160.555 24.3634 160.584 24.4478 160.612 24.5322C160.584 24.4478 160.555 24.3634 160.525 24.2793ZM1.90332 23.3359V23.3369V23.3359ZM11.0674 24.0361C11.1002 23.9463 11.134 23.8569 11.168 23.7676C11.134 23.8569 11.1002 23.9463 11.0674 24.0361ZM160.338 23.7676C160.372 23.8569 160.406 23.9463 160.438 24.0361C160.406 23.9463 160.372 23.8569 160.338 23.7676ZM160.13 23.2393C160.172 23.3421 160.213 23.4453 160.254 23.5488C160.213 23.4453 160.172 23.3421 160.13 23.2393ZM11.2588 23.5322C11.2903 23.452 11.3221 23.3719 11.3545 23.292C11.3221 23.3719 11.2903 23.452 11.2588 23.5322ZM159.92 22.7441C159.967 22.8518 160.013 22.9599 160.059 23.0684C160.013 22.9599 159.967 22.8518 159.92 22.7441ZM11.4746 23.0029C11.5009 22.9406 11.5278 22.8785 11.5547 22.8164C11.5278 22.8785 11.5009 22.9406 11.4746 23.0029ZM159.714 22.2881C159.755 22.3774 159.797 22.4668 159.837 22.5566C159.797 22.4668 159.755 22.3774 159.714 22.2881ZM11.6914 22.5068C11.7206 22.4422 11.7505 22.3779 11.7803 22.3135C11.7505 22.3779 11.7206 22.4422 11.6914 22.5068ZM11.8994 22.0586C11.9458 21.9615 11.9932 21.8649 12.041 21.7686C11.9932 21.8649 11.9458 21.9615 11.8994 22.0586ZM159.465 21.7686C159.513 21.8649 159.56 21.9615 159.606 22.0586C159.56 21.9615 159.513 21.8649 159.465 21.7686ZM12.127 21.5977C12.173 21.5069 12.2194 21.4163 12.2666 21.3262C12.2194 21.4163 12.173 21.5069 12.127 21.5977ZM159.239 21.3262C159.287 21.4163 159.333 21.5069 159.379 21.5977C159.333 21.5069 159.287 21.4163 159.239 21.3262ZM12.4043 21.0674C12.4424 20.997 12.4817 20.9274 12.5205 20.8574C12.4817 20.9274 12.4424 20.997 12.4043 21.0674ZM158.986 20.8574C159.025 20.9272 159.064 20.9972 159.102 21.0674C159.064 20.9972 159.025 20.9272 158.986 20.8574ZM12.6377 20.6475C12.6896 20.5562 12.7427 20.4656 12.7959 20.375C12.7427 20.4656 12.6896 20.5562 12.6377 20.6475ZM158.71 20.375C158.763 20.4656 158.816 20.5562 158.868 20.6475C158.816 20.5562 158.763 20.4656 158.71 20.375ZM12.9326 20.1445C12.9814 20.0637 13.0312 19.9835 13.0811 19.9033C13.0312 19.9835 12.9814 20.0637 12.9326 20.1445ZM158.425 19.9033C158.475 19.9835 158.524 20.0637 158.573 20.1445C158.524 20.0637 158.475 19.9835 158.425 19.9033ZM13.1924 19.7236C13.2581 19.6201 13.3252 19.5175 13.3926 19.415C13.3252 19.5175 13.2581 19.6201 13.1924 19.7236ZM158.14 19.4551C158.198 19.5443 158.256 19.6336 158.313 19.7236C158.256 19.6336 158.198 19.5443 158.14 19.4551ZM13.4922 19.2627C13.5519 19.1736 13.6128 19.0854 13.6738 18.9971C13.6128 19.0854 13.5519 19.1736 13.4922 19.2627ZM157.85 19.0234C157.897 19.0927 157.945 19.1617 157.992 19.2314C157.945 19.1617 157.897 19.0927 157.85 19.0234ZM13.8115 18.7998C13.8581 18.7339 13.9058 18.6689 13.9531 18.6035C13.9058 18.6689 13.8581 18.7339 13.8115 18.7998ZM157.553 18.6035C157.599 18.668 157.646 18.732 157.692 18.7969C157.646 18.732 157.599 18.668 157.553 18.6035ZM14.7773 17.5312C14.6372 17.7022 14.4999 17.8751 14.3652 18.0498C14.4999 17.8751 14.6372 17.7022 14.7773 17.5312ZM157.068 17.957C156.957 17.8141 156.845 17.6717 156.729 17.5312C156.845 17.6717 156.957 17.8141 157.068 17.957ZM15.5078 16.6846C15.3316 16.8788 15.16 17.0766 14.9912 17.2764C15.1563 17.081 15.3239 16.8874 15.4961 16.6973L15.5078 16.6846ZM156.011 16.6973C156.183 16.8872 156.35 17.0812 156.515 17.2764C156.346 17.0768 156.175 16.8787 155.999 16.6846L156.011 16.6973ZM154.464 15.1494C154.658 15.3259 154.849 15.5066 155.038 15.6904C154.849 15.5066 154.658 15.3259 154.464 15.1494ZM154.058 14.7891C154.097 14.8234 154.136 14.8589 154.176 14.8936C154.136 14.8589 154.097 14.8234 154.058 14.7891ZM153.618 14.4189C153.677 14.4672 153.735 14.5166 153.793 14.5654C153.735 14.5166 153.677 14.4672 153.618 14.4189ZM153.114 14.0176C153.246 14.1193 153.376 14.2234 153.505 14.3281C153.376 14.2234 153.246 14.1193 153.114 14.0176ZM152.349 13.4512C152.421 13.5023 152.493 13.5544 152.564 13.6064C152.493 13.5544 152.421 13.5023 152.349 13.4512ZM151.899 13.1416C151.952 13.1767 152.004 13.2125 152.056 13.248C152.004 13.2125 151.952 13.1767 151.899 13.1416ZM164.599 13.0801C164.294 12.6679 163.978 12.2622 163.652 11.8643C163.978 12.2622 164.294 12.6679 164.599 13.0801ZM151.422 12.8291C151.514 12.8878 151.606 12.9478 151.697 13.0078C151.606 12.9478 151.514 12.8878 151.422 12.8291ZM150.999 12.5674C151.082 12.6178 151.165 12.6692 151.248 12.7207C151.165 12.6692 151.082 12.6178 150.999 12.5674ZM150.51 12.2812C150.592 12.3282 150.674 12.3758 150.756 12.4238C150.674 12.3758 150.592 12.3282 150.51 12.2812ZM150.073 12.0381C150.146 12.0772 150.217 12.1173 150.289 12.1572C150.217 12.1173 150.146 12.0772 150.073 12.0381ZM149.562 11.7705C149.645 11.8126 149.728 11.8553 149.811 11.8984C149.728 11.8553 149.645 11.8126 149.562 11.7705ZM149.083 11.5342C149.174 11.5776 149.264 11.6214 149.354 11.666C149.264 11.6214 149.174 11.5776 149.083 11.5342ZM148.577 11.2998C148.674 11.3431 148.77 11.387 148.866 11.4316C148.77 11.387 148.674 11.3431 148.577 11.2998ZM148.095 11.0908C148.197 11.1338 148.299 11.1772 148.4 11.2217C148.299 11.1772 148.197 11.1338 148.095 11.0908ZM147.62 10.8975C147.704 10.9305 147.788 10.964 147.871 10.998C147.788 10.964 147.704 10.9305 147.62 10.8975ZM147.103 10.7002C147.197 10.7348 147.292 10.7698 147.386 10.8057C147.292 10.7698 147.197 10.7348 147.103 10.7002ZM146.634 10.5361C146.705 10.5604 146.777 10.5844 146.848 10.6094C146.777 10.5844 146.705 10.5604 146.634 10.5361ZM146.078 10.3545C146.173 10.3841 146.268 10.4144 146.363 10.4453C146.268 10.4144 146.173 10.3841 146.078 10.3545ZM145.586 10.208C145.673 10.233 145.761 10.2572 145.848 10.2832C145.761 10.2572 145.673 10.233 145.586 10.208ZM145.064 10.0654C145.148 10.0872 145.232 10.1091 145.315 10.1318C145.232 10.1091 145.148 10.0872 145.064 10.0654ZM144.547 9.9375C144.635 9.95824 144.724 9.9782 144.812 10C144.724 9.9782 144.635 9.95824 144.547 9.9375ZM32.0762 9.34277C30.5934 9.34277 29.1253 9.48998 27.6924 9.77637H27.6914C28.0497 9.70474 28.4102 9.64199 28.7725 9.58789C29.1346 9.53381 29.4987 9.48846 29.8643 9.45215C30.5958 9.37949 31.3336 9.34279 32.0752 9.34277H32.0762ZM144.093 9.83496C144.149 9.8469 144.205 9.85873 144.261 9.87109C144.205 9.85873 144.149 9.8469 144.093 9.83496ZM143.539 9.72461C143.602 9.73629 143.664 9.74755 143.727 9.75977C143.664 9.74755 143.602 9.73629 143.539 9.72461ZM142.907 9.61523C143.014 9.63201 143.12 9.64966 143.227 9.66797C143.12 9.64967 143.014 9.63201 142.907 9.61523ZM142.287 9.52637C142.425 9.54408 142.562 9.56276 142.699 9.58301C142.562 9.56276 142.425 9.54408 142.287 9.52637ZM141.834 9.47363C141.947 9.48585 142.06 9.49779 142.173 9.51172C142.06 9.49779 141.947 9.48585 141.834 9.47363ZM141.445 9.43457C141.499 9.43942 141.553 9.443 141.606 9.44824C141.553 9.443 141.499 9.43942 141.445 9.43457ZM140.955 9.39551C141.119 9.40668 141.282 9.41982 141.445 9.43457C141.282 9.41982 141.119 9.40668 140.955 9.39551ZM158.06 6.54102C158.678 6.99871 159.281 7.47964 159.867 7.98438C159.281 7.47964 158.678 6.99872 158.06 6.54102ZM14.7031 5.65723C14.0649 6.08283 13.4417 6.53342 12.834 7.00684V7.00586C13.0363 6.84826 13.2405 6.69336 13.4463 6.54102C13.8585 6.23586 14.2775 5.94103 14.7031 5.65723ZM152.811 3.39941L152.81 3.39844L152.811 3.39941ZM18.0098 3.7334C17.5546 3.96226 17.1051 4.20301 16.6611 4.4541C16.8831 4.32855 17.1062 4.20498 17.3311 4.08496L18.0098 3.7334ZM20.0928 2.78027C19.6223 2.97514 19.1568 3.18178 18.6963 3.39941C19.1568 3.18179 19.6223 2.97513 20.0928 2.78027ZM26.6924 0.862305H26.6934H26.6924ZM32.0752 0.396484C31.5561 0.396493 31.0384 0.40994 30.5225 0.435547C31.0384 0.409942 31.5561 0.396492 32.0752 0.396484ZM170.326 131.99C170.307 132.03 170.287 132.069 170.267 132.108C170.287 132.069 170.307 132.03 170.326 131.99ZM170.599 131.271C170.583 131.328 170.566 131.384 170.548 131.439C170.566 131.384 170.583 131.328 170.599 131.271ZM159.281 128.822C159.302 128.845 159.323 128.868 159.344 128.891C159.323 128.868 159.302 128.845 159.281 128.822ZM152.896 122.635C153.025 122.747 153.154 122.861 153.281 122.973C153.154 122.861 153.025 122.747 152.896 122.635ZM153.473 123.141C153.663 123.309 153.85 123.477 154.035 123.644C153.85 123.477 153.663 123.309 153.473 123.141ZM19.9717 105.316C19.7782 105.235 19.5854 105.152 19.3936 105.067C19.5854 105.152 19.7782 105.235 19.9717 105.316ZM11.0234 99.6191L10.4912 99.124C10.677 99.3008 10.8651 99.4747 11.0547 99.6465C11.0444 99.6372 11.0337 99.6284 11.0234 99.6191ZM30.9189 98.7744C30.7507 98.7657 30.5827 98.7566 30.415 98.7441C30.5827 98.7566 30.7507 98.7657 30.9189 98.7744ZM17.3984 93.3154C17.4132 93.3283 17.4276 93.3417 17.4424 93.3545C17.4276 93.3417 17.4132 93.3283 17.3984 93.3154ZM16.6582 92.6426C16.7847 92.7629 16.913 92.8809 17.042 92.998C16.913 92.8809 16.7847 92.7629 16.6582 92.6426ZM170.046 87.7803C170.019 87.8233 169.991 87.866 169.962 87.9082C169.991 87.866 170.019 87.8233 170.046 87.7803ZM164.119 89.3076C164.076 89.284 164.034 89.2594 163.991 89.2344C164.034 89.2594 164.076 89.284 164.119 89.3076ZM163.508 88.9033C163.476 88.8784 163.444 88.8539 163.413 88.8281C163.444 88.8539 163.476 88.8784 163.508 88.9033ZM163.413 88.8281C163.362 88.7855 163.311 88.7414 163.262 88.6963C163.311 88.7414 163.362 88.7855 163.413 88.8281ZM162.825 88.2393C162.853 88.2725 162.882 88.3045 162.91 88.3369C162.882 88.3045 162.853 88.2725 162.825 88.2393ZM162.74 88.1328C162.719 88.1061 162.698 88.0799 162.678 88.0527C162.698 88.0799 162.719 88.1061 162.74 88.1328ZM170.345 87.2275C170.323 87.2758 170.3 87.3236 170.276 87.3711C170.3 87.3236 170.323 87.2758 170.345 87.2275ZM170.615 86.4443C170.603 86.4948 170.589 86.5448 170.575 86.5947C170.589 86.5448 170.603 86.4948 170.615 86.4443ZM9.94922 79.7031C9.93216 79.5875 9.91662 79.4715 9.90137 79.3555C9.91662 79.4715 9.93216 79.5875 9.94922 79.7031ZM9.83594 78.7988C9.82952 78.7383 9.82233 78.6778 9.81641 78.6172C9.82233 78.6778 9.82952 78.7383 9.83594 78.7988ZM9.79199 29.8066C9.8 29.7128 9.80723 29.619 9.81641 29.5254C9.80723 29.619 9.8 29.7128 9.79199 29.8066ZM161.689 29.5254C161.703 29.6625 161.715 29.7999 161.726 29.9375C161.715 29.7999 161.703 29.6625 161.689 29.5254ZM14.1279 18.3633C14.2061 18.2582 14.2851 18.1536 14.3652 18.0498C14.2851 18.1536 14.2061 18.2582 14.1279 18.3633ZM14.7773 17.5312C14.8476 17.4455 14.9196 17.3611 14.9912 17.2764C14.9196 17.3611 14.8476 17.4455 14.7773 17.5312ZM156.515 17.2764C156.586 17.3613 156.659 17.4454 156.729 17.5312C156.659 17.4454 156.586 17.3613 156.515 17.2764ZM157.105 18.0049C157.197 18.1236 157.288 18.2429 157.378 18.3633C157.288 18.2429 157.197 18.1236 157.105 18.0049ZM152.77 13.7559C152.885 13.8419 153 13.9293 153.114 14.0176C153 13.9293 152.885 13.8419 152.77 13.7559ZM140.535 9.36914C140.675 9.37606 140.815 9.38596 140.955 9.39551C140.815 9.38596 140.675 9.37607 140.535 9.36914Z" fill="#182B54"/>
</svg>
