<?xml version="1.0" encoding="UTF-8"?>
<svg id="Capa_1" xmlns="http://www.w3.org/2000/svg" viewBox="0 0 800 798.52">
  <defs>
    <style>
      .cls-1 {
        fill: #182b54;
      }
    </style>
  </defs>
  <g id="_44._Thumb">
    <path class="cls-1" d="M799.7,351.47c-.68,7.35-7.19,12.76-14.54,12.08-7.35-.68-12.76-7.19-12.08-14.54,2.27-24.07-15.4-45.41-39.46-47.68-1.36-.13-2.73-.19-4.1-.19h-197.64c-7.35,0-13.31-5.96-13.31-13.31s5.96-13.31,13.31-13.31h197.64c38.92,0,70.47,31.53,70.48,70.45,0,2.17-.1,4.34-.3,6.5ZM307.5,312.21l27.71-39.76c33.44-47.88,51.33-104.89,51.22-163.29v-55.06c-.07-15.03,12.06-27.27,27.09-27.34,3.13-.01,6.24.51,9.19,1.55,57.45,20.98,95.71,75.56,95.85,136.72v34.62c0,7.35,5.96,13.31,13.31,13.31s13.31-5.96,13.31-13.31v-34.62c-.14-72.36-45.41-136.95-113.39-161.78-35.52-12.89-71.98,14.12-71.98,50.84v55.06c.06,52.96-16.21,104.66-46.58,148.05l-27.56,39.77c-10.52,15.11-27.78,24.12-46.2,24.1h-16.64c-7.35,0-13.31,5.96-13.31,13.31v400.01c-.02,20.69-16.78,37.47-37.48,37.5h-107.95c-20.7-.02-37.48-16.79-37.5-37.5v-400.01c.03-20.69,16.8-37.46,37.5-37.48h65.61c7.35,0,13.31-5.96,13.31-13.31s-5.96-13.31-13.31-13.31h-65.61c-35.39.04-64.07,28.71-64.11,64.1v400.01c.04,35.39,28.72,64.08,64.11,64.11h107.95c35.39-.05,64.06-28.73,64.1-64.11v-386.7h3.33c27.09-.02,52.47-13.27,67.95-35.5h.07ZM714.81,388.73h-73.48c-7.35-.01-13.32,5.94-13.33,13.29s5.94,13.32,13.29,13.33h73.45c13.39-.06,26.18,5.59,35.15,15.54,27.41,30.11,6.65,79.58-35.17,79.58h-73.06c-7.35,0-13.31,5.96-13.31,13.31s5.96,13.31,13.31,13.31h61.7c13.39-.06,26.18,5.59,35.15,15.54,27.43,30.11,6.65,79.58-35.15,79.58h-104.35c-18.48,0-18.45,26.62,0,26.62h71.18c10.45-.05,20.43,4.36,27.43,12.13,21.43,23.52,5.16,62.05-27.36,62.1l-368.24.77c-7.35,0-13.31,5.96-13.31,13.31s5.96,13.31,13.31,13.31l368.22-.77c53.53-.08,82.28-61.47,50.19-102.81,59.57-13.92,77-90.2,30.43-129.09,41.79-23.29,50.7-79.62,18.65-114.78-14.05-15.4-33.92-24.2-54.76-24.24l.07-.02Z"/>
  </g>
</svg>