<svg width="128" height="81" viewBox="0 0 128 81" fill="none" xmlns="http://www.w3.org/2000/svg">
<path d="M64.9609 80.0283C64.6419 80.0326 64.3216 80.0352 64 80.0352C64.3216 80.0352 64.6419 80.0326 64.9609 80.0283ZM65.8691 80.0098C65.6526 80.0154 65.4355 80.0197 65.2178 80.0234C65.4355 80.0197 65.6526 80.0154 65.8691 80.0098ZM66.8018 79.9795C66.6513 79.9854 66.5006 79.9901 66.3496 79.9951C66.5006 79.9901 66.6513 79.9854 66.8018 79.9795ZM60.1367 79.9307H60.1357H60.1367ZM67.748 79.9355C67.5853 79.9442 67.4222 79.9515 67.2588 79.959C67.4222 79.9515 67.5853 79.9442 67.748 79.9355ZM59.1895 79.873V79.8721V79.873ZM68.6787 79.8799C68.5114 79.891 68.3438 79.9012 68.1758 79.9111C68.3438 79.9012 68.5114 79.891 68.6787 79.8799ZM69.6348 79.8096C69.4257 79.8263 69.2161 79.8425 69.0059 79.8574C69.2161 79.8425 69.4257 79.8263 69.6348 79.8096ZM70.4531 79.7393C70.2933 79.754 70.1331 79.7676 69.9727 79.7812C70.1331 79.7676 70.2933 79.754 70.4531 79.7393ZM71.3965 79.6455C71.2383 79.6623 71.0798 79.6786 70.9209 79.6943C71.0798 79.6786 71.2383 79.6623 71.3965 79.6455ZM72.3096 79.542C72.131 79.5634 71.952 79.5844 71.7725 79.6045C71.952 79.5844 72.131 79.5634 72.3096 79.542ZM73.1152 79.4414C72.9759 79.4598 72.8362 79.4776 72.6963 79.4951C72.8362 79.4776 72.9759 79.4598 73.1152 79.4414ZM74.0459 79.3125C73.8877 79.3356 73.7292 79.3578 73.5703 79.3799C73.7292 79.3578 73.8877 79.3356 74.0459 79.3125ZM75.002 79.166C74.8136 79.1962 74.6249 79.2261 74.4355 79.2549C74.6249 79.2261 74.8136 79.1962 75.002 79.166ZM75.873 79.0195C75.6743 79.0541 75.4753 79.0891 75.2754 79.1221C75.4753 79.0891 75.6743 79.0541 75.873 79.0195ZM78.6885 78.4688C77.8549 78.6507 77.0105 78.8181 76.1553 78.9707C77.0105 78.8181 77.8549 78.6507 78.6885 78.4688ZM50.3193 78.6797C50.787 78.7743 51.258 78.8647 51.7324 78.9502C51.258 78.8647 50.787 78.7743 50.3193 78.6797ZM40.6426 75.9541C43.6915 77.0645 46.9167 77.9913 50.3193 78.6797C46.9167 77.9913 43.6915 77.0645 40.6426 75.9541ZM64 1.53516C84.4674 1.53516 99.7869 10.449 110.133 19.6045C120.487 28.7673 125.795 38.1196 126.185 38.8203V38.8213C126.605 39.577 126.604 40.4943 126.185 41.25C125.797 41.9462 120.49 51.3009 110.133 60.4658C99.7869 69.6212 84.4675 78.5352 64 78.5352C43.5325 78.5352 28.2131 69.6213 17.8672 60.4658C7.51239 51.3024 2.20422 41.9495 1.81543 41.25V41.249L1.74121 41.1055C1.39691 40.3793 1.42177 39.5287 1.81543 38.8203C2.20325 38.1229 7.5111 28.7689 17.8672 19.6045C28.2131 10.4492 43.5326 1.53516 64 1.53516ZM79.5 78.2861C79.3688 78.3165 79.2372 78.3463 79.1055 78.376C79.2372 78.3463 79.3688 78.3165 79.5 78.2861ZM80.3643 78.0801C80.1975 78.121 80.03 78.1604 79.8623 78.2002C80.03 78.1604 80.1975 78.121 80.3643 78.0801ZM81.1387 77.8857C80.9758 77.9278 80.8122 77.9679 80.6484 78.0088C80.8122 77.9679 80.9758 77.9278 81.1387 77.8857ZM81.9629 77.667C81.8171 77.7066 81.6709 77.7454 81.5244 77.7842C81.6709 77.7454 81.8171 77.7066 81.9629 77.667ZM82.7627 77.4443C82.6205 77.4849 82.4779 77.5247 82.335 77.5645C82.4779 77.5247 82.6205 77.4849 82.7627 77.4443ZM83.6133 77.1953C83.4435 77.2461 83.2734 77.297 83.1025 77.3467C83.2734 77.297 83.4435 77.2461 83.6133 77.1953ZM84.4062 76.9531C84.2217 77.0109 84.0364 77.0677 83.8506 77.124C84.0364 77.0677 84.2217 77.0109 84.4062 76.9531ZM85.1875 76.7031C85.0058 76.7624 84.8235 76.821 84.6406 76.8789C84.8235 76.821 85.0058 76.7624 85.1875 76.7031ZM85.8633 76.4785C85.7314 76.5231 85.5993 76.5675 85.4668 76.6113C85.5993 76.5675 85.7314 76.5231 85.8633 76.4785ZM86.6221 76.2168C86.5027 76.2587 86.3835 76.3014 86.2637 76.3428C86.3835 76.3014 86.5027 76.2587 86.6221 76.2168ZM87.4004 75.9385C87.2783 75.983 87.1559 76.0273 87.0332 76.0713C87.1559 76.0273 87.2783 75.983 87.4004 75.9385ZM39.0752 75.3613C39.5924 75.5642 40.1148 75.7619 40.6426 75.9541C40.1148 75.7619 39.5924 75.5642 39.0752 75.3613ZM88.1406 75.6631C88.0148 75.7106 87.8891 75.7587 87.7627 75.8057C87.8891 75.7587 88.0148 75.7106 88.1406 75.6631ZM88.9248 75.3613C88.7942 75.4126 88.6635 75.4641 88.5322 75.5146C88.6635 75.4641 88.7942 75.4126 88.9248 75.3613ZM38.4717 75.1211C38.6721 75.2019 38.8732 75.2821 39.0752 75.3613C38.8732 75.2821 38.6721 75.2019 38.4717 75.1211ZM89.9785 74.9395C89.7334 75.0403 89.4869 75.1397 89.2393 75.2383C89.4869 75.1397 89.7334 75.0403 89.9785 74.9395ZM36.8555 74.4453C37.3883 74.6761 37.927 74.9014 38.4717 75.1211C37.927 74.9014 37.3883 74.6761 36.8555 74.4453ZM91.1895 74.4268C90.7891 74.6005 90.3856 74.7719 89.9785 74.9395C90.3856 74.7719 90.7891 74.6005 91.1895 74.4268ZM36.168 74.1436C36.396 74.2453 36.6252 74.3456 36.8555 74.4453C36.6252 74.3456 36.396 74.2453 36.168 74.1436ZM91.4072 74.332C91.3348 74.3638 91.2621 74.3952 91.1895 74.4268C91.2621 74.3952 91.3348 74.3638 91.4072 74.332ZM92.1533 73.999C91.9859 74.0747 91.818 74.15 91.6494 74.2246C91.818 74.15 91.9859 74.0747 92.1533 73.999ZM34.6865 73.4619C35.175 73.6937 35.6688 73.9209 36.168 74.1436C35.6688 73.9209 35.175 73.6936 34.6865 73.4619ZM93.5283 73.3594C93.3672 73.4365 93.2053 73.5127 93.043 73.5889C93.2053 73.5127 93.3672 73.4365 93.5283 73.3594ZM64 6.53516C31.2314 6.53516 12.242 31.9127 7.45312 39.2061L6.91113 40.0312L7.45508 40.8555C12.2602 48.1378 31.3327 73.5352 64 73.5352C96.7688 73.5352 115.758 48.1575 120.547 40.8643L121.089 40.0391L120.545 39.2148C115.74 31.9323 96.6672 6.53516 64 6.53516ZM33.0908 72.6807C33.6162 72.9463 34.1482 73.2066 34.6865 73.4619C34.1482 73.2066 33.6162 72.9463 33.0908 72.6807ZM94.1504 73.0586C94.0796 73.0933 94.0085 73.1276 93.9375 73.1621C94.0085 73.1276 94.0796 73.0933 94.1504 73.0586ZM94.9717 72.6484C94.8292 72.7207 94.6864 72.7928 94.543 72.8643C94.6864 72.7928 94.8292 72.7207 94.9717 72.6484ZM29.6533 70.8232C30.7668 71.4643 31.9126 72.085 33.0908 72.6807C31.9126 72.085 30.7668 71.4643 29.6533 70.8232ZM95.5107 72.3721C95.3899 72.4346 95.269 72.4975 95.1475 72.5596C95.269 72.4975 95.3899 72.4346 95.5107 72.3721ZM96.7803 71.6982C96.7223 71.7297 96.6646 71.7616 96.6064 71.793C96.6646 71.7616 96.7223 71.7297 96.7803 71.6982ZM98.0557 70.9883C97.9906 71.0253 97.9256 71.0627 97.8604 71.0996C97.9256 71.0627 97.9906 71.0253 98.0557 70.9883ZM100.388 69.6045C99.6269 70.0758 98.8489 70.5364 98.0557 70.9883C98.8489 70.5364 99.6269 70.0758 100.388 69.6045ZM28.3496 70.0547C28.7791 70.3139 29.2137 70.5701 29.6533 70.8232C29.2137 70.5701 28.7791 70.3139 28.3496 70.0547ZM51.3447 70.6826H51.3457H51.3447ZM27.998 69.8408C28.1149 69.9122 28.232 69.9837 28.3496 70.0547C28.232 69.9837 28.1149 69.9122 27.998 69.8408ZM27.125 69.2988C27.4137 69.4807 27.7046 69.6615 27.998 69.8408C27.7046 69.6615 27.4137 69.4807 27.125 69.2988ZM25.8818 68.498C26.2912 68.7674 26.7056 69.0345 27.125 69.2988C26.7056 69.0345 26.2913 68.7674 25.8818 68.498ZM101.953 68.6035C101.72 68.7561 101.486 68.9086 101.249 69.0596C101.486 68.9086 101.72 68.7561 101.953 68.6035ZM24.5176 67.5811C24.9657 67.8899 25.421 68.1949 25.8818 68.498C25.421 68.1949 24.9657 67.8899 24.5176 67.5811ZM103.122 67.8232C102.915 67.9645 102.706 68.106 102.496 68.2461C102.706 68.106 102.915 67.9645 103.122 67.8232ZM86.627 67.585H86.6279H86.627ZM104.245 67.0439C104.054 67.1793 103.862 67.3148 103.668 67.4492C103.862 67.3148 104.054 67.1793 104.245 67.0439ZM21.9297 65.7148C22.5494 66.1804 23.1831 66.6413 23.8301 67.0977C23.1831 66.6413 22.5494 66.1804 21.9297 65.7148ZM105.438 66.1846C105.232 66.336 105.025 66.4882 104.816 66.6387C105.025 66.4882 105.232 66.336 105.438 66.1846ZM38.0186 66.0645H38.0195H38.0186ZM106.582 65.3252C106.361 65.4942 106.14 65.6651 105.915 65.833C106.14 65.6651 106.361 65.4942 106.582 65.3252ZM20.7676 64.8252C21.1495 65.1232 21.5369 65.4198 21.9297 65.7148C21.5369 65.4198 21.1495 65.1232 20.7676 64.8252ZM107.575 64.5547C107.386 64.7042 107.196 64.855 107.004 65.0039C107.196 64.855 107.386 64.7042 107.575 64.5547ZM19.3105 63.6602C19.7872 64.0501 20.2726 64.4389 20.7676 64.8252C20.2726 64.4389 19.7872 64.0501 19.3105 63.6602ZM108.029 64.1982C107.88 64.3182 107.727 64.4351 107.575 64.5547C107.75 64.4171 107.925 64.2816 108.097 64.1436L108.029 64.1982ZM31.75 62.6006H31.751H31.75ZM14.915 59.8008C16.2815 61.0886 17.7478 62.3815 19.3105 63.6602C17.7478 62.3815 16.2815 61.0886 14.915 59.8008ZM110.106 62.4756C109.854 62.6919 109.598 62.9074 109.34 63.123C109.598 62.9074 109.854 62.6919 110.106 62.4756ZM72.2432 62.5771H72.2441H72.2432ZM64 17.5352C76.4055 17.5352 86.4999 27.6297 86.5 40.0352C86.5 52.4407 76.4056 62.5352 64 62.5352C51.5944 62.5352 41.5 52.4407 41.5 40.0352C41.5001 27.6297 51.5945 17.5352 64 17.5352ZM111.04 61.665C110.918 61.7724 110.795 61.8781 110.672 61.9854C110.795 61.8781 110.918 61.7723 111.04 61.665ZM111.986 60.8154C111.869 60.922 111.751 61.0282 111.633 61.1348C111.751 61.0282 111.869 60.922 111.986 60.8154ZM112.922 59.9512C112.772 60.0919 112.62 60.2322 112.468 60.373C112.62 60.2322 112.772 60.0919 112.922 59.9512ZM13.4443 58.3789C13.9217 58.8507 14.4111 59.3258 14.915 59.8008C14.4111 59.3258 13.9217 58.8507 13.4443 58.3789ZM113.788 59.1279C113.647 59.2644 113.503 59.4004 113.359 59.5371C113.503 59.4004 113.647 59.2644 113.788 59.1279ZM114.71 58.2266C114.555 58.38 114.399 58.5336 114.242 58.6875C114.399 58.5336 114.555 58.38 114.71 58.2266ZM10.0615 54.8438C11.1032 55.9954 12.2311 57.1798 13.4443 58.3789C12.2311 57.1798 11.1032 55.9954 10.0615 54.8438ZM115.544 57.3857C115.38 57.5536 115.214 57.7221 115.046 57.8906C115.214 57.7221 115.38 57.5536 115.544 57.3857ZM64 22.5352C54.3497 22.5352 46.5001 30.3848 46.5 40.0352C46.5 49.6856 54.3496 57.5352 64 57.5352C73.6504 57.5352 81.5 49.6856 81.5 40.0352C81.4999 30.3848 73.6503 22.5352 64 22.5352ZM24.499 57.3965L24.498 57.3955L24.499 57.3965ZM116.243 56.6641C116.137 56.7752 116.03 56.8865 115.922 56.998C116.03 56.8865 116.137 56.7752 116.243 56.6641ZM117.075 55.7832C116.97 55.8961 116.864 56.0087 116.757 56.1221C116.864 56.0087 116.97 55.8961 117.075 55.7832ZM117.819 54.9727C117.706 55.0973 117.593 55.2232 117.478 55.3486C117.593 55.2232 117.706 55.0973 117.819 54.9727ZM19.5186 52.9619C20.2378 53.659 20.9894 54.3606 21.7725 55.0625C20.9894 54.3606 20.2378 53.659 19.5186 52.9619ZM9.71289 54.4551C9.82817 54.5841 9.94407 54.7139 10.0615 54.8438C9.94407 54.7139 9.82817 54.5841 9.71289 54.4551ZM118.541 54.168C118.439 54.2835 118.337 54.4003 118.232 54.5166C118.337 54.4003 118.439 54.2835 118.541 54.168ZM6.14941 50.207C7.19222 51.5338 8.38004 52.9639 9.71289 54.4551C8.38003 52.9639 7.19223 51.5338 6.14941 50.207ZM119.315 53.2822C119.174 53.4466 119.03 53.6122 118.885 53.7783C119.03 53.6122 119.174 53.4466 119.315 53.2822ZM120.009 52.4707C119.872 52.6333 119.733 52.7973 119.593 52.9619C119.733 52.7973 119.872 52.6333 120.009 52.4707ZM120.83 51.4814C120.635 51.7206 120.434 51.9618 120.23 52.2061C120.434 51.9618 120.635 51.7206 120.83 51.4814ZM52.1611 50.7881H52.1621H52.1611ZM75.8379 50.7881H75.8389H75.8379ZM121.989 50.0303C122.271 49.6703 122.541 49.3179 122.801 48.9746C122.55 49.3059 122.29 49.6463 122.02 49.9932L121.989 50.0303ZM5.02148 48.7393C5.37658 49.2119 5.75243 49.702 6.14941 50.207C5.75243 49.702 5.37658 49.2119 5.02148 48.7393ZM123.518 48.0137C123.289 48.3255 123.05 48.646 122.801 48.9746C123.05 48.646 123.289 48.3255 123.518 48.0137ZM3.32617 46.3945C3.82572 47.1117 4.38969 47.8984 5.02148 48.7393C4.38969 47.8984 3.82572 47.1116 3.32617 46.3945ZM113.683 47.4648V47.4658V47.4648ZM124.679 46.3867C124.523 46.6104 124.362 46.8415 124.193 47.0781C124.362 46.8415 124.523 46.6104 124.679 46.3867ZM12.8467 45.6611C13.1895 46.0853 13.5493 46.5205 13.9248 46.9658C13.5493 46.5205 13.1895 46.0853 12.8467 45.6611ZM1.44727 43.5576C1.9082 44.2961 2.53503 45.2588 3.32617 46.3945C2.53504 45.2588 1.9082 44.2961 1.44727 43.5576ZM125.37 45.377C125.249 45.5577 125.123 45.7452 124.991 45.9375C125.123 45.7452 125.249 45.5577 125.37 45.377ZM126.01 44.4102C125.919 44.5502 125.825 44.6956 125.726 44.8457C125.825 44.6956 125.919 44.5502 126.01 44.4102ZM11.1426 43.4746V43.4756V43.4746ZM126.615 43.457C126.514 43.6206 126.405 43.7968 126.286 43.9834C126.405 43.7968 126.514 43.6206 126.615 43.457ZM0.503906 41.9785C0.595171 42.1427 0.909935 42.6968 1.44727 43.5576C1.22791 43.2062 1.04429 42.9067 0.899414 42.6631L0.503906 41.9785ZM126.728 43.2783C126.692 43.3365 126.653 43.3955 126.615 43.457C126.663 43.3803 126.71 43.3068 126.754 43.2354L126.728 43.2783ZM9.19336 40.7559H9.19434H9.19336ZM118.238 38.4932C118.441 38.7822 118.631 39.0569 118.807 39.3154H118.806C118.63 39.0569 118.44 38.7822 118.237 38.4932H118.238ZM122.83 31.1357C125.723 34.9627 127.273 37.6897 127.496 38.0918V38.0928C127.273 37.692 125.724 34.964 122.83 31.1357ZM1.58008 36.3008C0.961311 37.2824 0.602411 37.9146 0.503906 38.0918C0.461927 38.1673 0.422475 38.2438 0.385742 38.3213V38.3203C0.422422 38.243 0.461999 38.1662 0.503906 38.0908C0.602696 37.9132 0.961741 37.2817 1.58008 36.3008ZM3.65039 33.2148C2.78205 34.4422 2.09119 35.49 1.58008 36.3008C2.09119 35.4899 2.78206 34.4422 3.65039 33.2148ZM12.8311 34.3965H12.832H12.8311ZM4.77734 31.6572C4.3722 32.2019 3.99805 32.7235 3.65039 33.2148C3.99805 32.7235 4.3722 32.2019 4.77734 31.6572ZM113.126 31.998H113.125H113.126ZM16.5791 30.0654H16.5801C16.3781 30.2828 16.1796 30.4991 15.9844 30.7139C15.5937 31.1437 15.2164 31.5679 14.8525 31.9854C15.3981 31.3594 15.9732 30.7176 16.5791 30.0654ZM5.25293 31.0244C5.09027 31.2388 4.93165 31.4498 4.77734 31.6572C4.93165 31.4498 5.09027 31.2388 5.25293 31.0244ZM121.585 29.5283C122.025 30.0821 122.439 30.619 122.83 31.1357C122.439 30.619 122.025 30.0821 121.585 29.5283ZM5.81641 30.29C5.62332 30.5389 5.43548 30.7838 5.25293 31.0244C5.43548 30.7838 5.62332 30.5389 5.81641 30.29ZM6.96289 28.8447C6.56206 29.3392 6.17987 29.8216 5.81641 30.29C6.17987 29.8216 6.56206 29.3392 6.96289 28.8447ZM120.941 28.7275C121.161 28.9981 121.376 29.2651 121.585 29.5283C121.376 29.2651 121.161 28.9981 120.941 28.7275ZM8.50781 26.9912C7.96507 27.6243 7.45028 28.2435 6.96289 28.8447C7.45028 28.2435 7.96507 27.6243 8.50781 26.9912ZM120.57 28.2744C120.696 28.4265 120.819 28.5776 120.941 28.7275C120.819 28.5776 120.696 28.4265 120.57 28.2744ZM118.21 25.5283C119.055 26.471 119.841 27.3903 120.57 28.2744C119.841 27.3903 119.055 26.471 118.21 25.5283ZM9.79004 25.5283C9.40313 25.96 9.02864 26.3869 8.66602 26.8076C9.02864 26.3869 9.40313 25.96 9.79004 25.5283ZM10.3467 24.915C10.1588 25.1208 9.97256 25.3247 9.79004 25.5283C9.97256 25.3247 10.1588 25.1208 10.3467 24.915ZM117.653 24.915C117.841 25.1208 118.027 25.3247 118.21 25.5283C118.027 25.3247 117.841 25.1208 117.653 24.915ZM16.0527 19.2197C13.9324 21.1462 12.031 23.0709 10.3467 24.915C12.031 23.0709 13.9324 21.1462 16.0527 19.2197ZM111.947 19.2197C114.068 21.1462 115.969 23.0708 117.653 24.915C115.969 23.0708 114.068 21.1462 111.947 19.2197ZM102.664 22.002C103.229 22.449 103.78 22.8991 104.318 23.3506C103.78 22.8991 103.229 22.449 102.664 22.002ZM100.034 20.0146C100.559 20.3931 101.074 20.7763 101.579 21.1611C101.074 20.7763 100.559 20.3931 100.034 20.0146ZM18.0479 17.4639C17.3625 18.0479 16.6976 18.6339 16.0527 19.2197C16.6975 18.6338 17.3626 18.0479 18.0479 17.4639ZM109.953 17.4639C110.638 18.0477 111.303 18.634 111.947 19.2197C111.303 18.634 110.638 18.0477 109.953 17.4639ZM97.2256 18.0918V18.0928V18.0918ZM94.2393 16.2607C94.9227 16.6557 95.5928 17.0597 96.25 17.4707H96.249C95.5919 17.0597 94.9218 16.6557 94.2383 16.2607H94.2393ZM22.7871 13.7217C21.1123 14.9448 19.5322 16.199 18.0479 17.4639C19.5322 16.199 21.1123 14.9448 22.7871 13.7217ZM105.213 13.7217C106.888 14.945 108.469 16.1988 109.953 17.4639C108.469 16.1988 106.888 14.945 105.213 13.7217ZM93.2041 15.6758V15.6748V15.6758ZM89.9805 14.0059H89.9814H89.9805ZM24.2988 12.6436C23.7863 12.9994 23.2829 13.3596 22.7871 13.7217C23.2829 13.3596 23.7863 12.9994 24.2988 12.6436ZM103.701 12.6436C104.214 12.9994 104.717 13.3596 105.213 13.7217C104.717 13.3596 104.214 12.9994 103.701 12.6436ZM25.2139 12.0195C24.9062 12.2266 24.6007 12.434 24.2988 12.6436C24.6007 12.434 24.9062 12.2266 25.2139 12.0195ZM102.786 12.0195C103.094 12.2266 103.399 12.434 103.701 12.6436C103.399 12.434 103.094 12.2266 102.786 12.0195ZM26.8027 10.9766C26.2644 11.3196 25.7355 11.6684 25.2139 12.0195C25.7355 11.6684 26.2644 11.3196 26.8027 10.9766ZM101.197 10.9766C101.736 11.3196 102.265 11.6684 102.786 12.0195C102.265 11.6684 101.736 11.3196 101.197 10.9766ZM28.8379 9.72363C28.1465 10.1336 27.4685 10.5523 26.8027 10.9766C27.4685 10.5523 28.1465 10.1336 28.8379 9.72363ZM99.1621 9.72363C99.8535 10.1336 100.531 10.5523 101.197 10.9766C100.531 10.5523 99.8535 10.1336 99.1621 9.72363ZM29.2139 9.50293C29.0882 9.57643 28.9627 9.64963 28.8379 9.72363C28.9627 9.64963 29.0882 9.57643 29.2139 9.50293ZM98.1719 9.14746C98.5047 9.33788 98.835 9.52965 99.1621 9.72363C98.835 9.52965 98.5047 9.33788 98.1719 9.14746ZM30.5479 8.74121C30.0981 8.99178 29.6534 9.24578 29.2139 9.50293C29.6534 9.24578 30.0981 8.99178 30.5479 8.74121ZM97.4521 8.74121C97.6935 8.87568 97.9334 9.01106 98.1719 9.14746C97.9334 9.01106 97.6935 8.87568 97.4521 8.74121ZM31.2617 8.34766C31.0222 8.47758 30.7846 8.60935 30.5479 8.74121C30.7846 8.60935 31.0222 8.47758 31.2617 8.34766ZM96.7383 8.34766C96.9778 8.47758 97.2154 8.60935 97.4521 8.74121C97.2154 8.60935 96.9778 8.47758 96.7383 8.34766ZM32.0645 7.91992C31.7953 8.06154 31.5274 8.20355 31.2617 8.34766C31.5274 8.20355 31.7953 8.06154 32.0645 7.91992ZM93.2461 6.57715C94.4417 7.14276 95.6061 7.73356 96.7383 8.34766C95.6061 7.73356 94.4417 7.14276 93.2461 6.57715ZM32.8506 7.51172C32.5868 7.64635 32.325 7.78286 32.0645 7.91992C32.325 7.78286 32.5868 7.64635 32.8506 7.51172ZM34.7539 6.57715C34.1104 6.88157 33.4757 7.19268 32.8506 7.51172C33.4757 7.19269 34.1104 6.88157 34.7539 6.57715ZM36.167 5.92773C35.6911 6.14002 35.2201 6.35659 34.7539 6.57715C35.2201 6.35659 35.6911 6.14002 36.167 5.92773ZM92.4775 6.21875C92.7352 6.33686 92.9913 6.4566 93.2461 6.57715C92.9913 6.4566 92.7352 6.33686 92.4775 6.21875ZM91.0449 5.58105C91.5274 5.78913 92.0048 6.00207 92.4775 6.21875C92.0048 6.00207 91.5274 5.78913 91.0449 5.58105ZM36.9551 5.58105C36.6908 5.69503 36.4284 5.81114 36.167 5.92773C36.4284 5.81114 36.6908 5.69503 36.9551 5.58105ZM38.3271 5.00684C37.8655 5.19422 37.4081 5.38566 36.9551 5.58105C37.4081 5.38566 37.8655 5.19422 38.3271 5.00684ZM89.6729 5.00684C90.1345 5.19422 90.5919 5.38565 91.0449 5.58105C90.5919 5.38566 90.1345 5.19422 89.6729 5.00684ZM39.2412 4.64355C38.9347 4.76288 38.63 4.88391 38.3271 5.00684C38.63 4.88392 38.9347 4.76288 39.2412 4.64355ZM88.7588 4.64355C89.0653 4.76288 89.37 4.88391 89.6729 5.00684C89.37 4.88391 89.0653 4.76288 88.7588 4.64355ZM44.5146 2.83594C42.6998 3.3752 40.9422 3.98142 39.2412 4.64355C40.9422 3.98142 42.6998 3.37521 44.5146 2.83594ZM83.4854 2.83594C85.3002 3.37521 87.0578 3.98141 88.7588 4.64355C87.0578 3.98142 85.3002 3.37521 83.4854 2.83594ZM45.0898 2.66797C44.8975 2.72326 44.7057 2.77916 44.5146 2.83594C44.9774 2.69843 45.4439 2.56521 45.9141 2.43652L45.0898 2.66797ZM82.3164 2.50098C82.7086 2.60982 83.0984 2.72095 83.4854 2.83594C83.0984 2.72095 82.7086 2.60982 82.3164 2.50098ZM79.4111 1.76367C80.395 1.98988 81.3633 2.23645 82.3164 2.50098C81.3633 2.23645 80.395 1.98988 79.4111 1.76367ZM48.5879 1.76367C47.7074 1.96613 46.8393 2.1847 45.9834 2.41797C46.8393 2.1847 47.7074 1.96614 48.5879 1.76367ZM50.8447 1.28516C50.0837 1.43282 49.3314 1.5927 48.5879 1.76367C49.3314 1.5927 50.0837 1.43282 50.8447 1.28516ZM77.1553 1.28516C77.916 1.43276 78.6679 1.59278 79.4111 1.76367C78.6679 1.59278 77.916 1.43276 77.1553 1.28516ZM51.8945 1.08984C51.5427 1.15232 51.1928 1.21761 50.8447 1.28516C51.1928 1.21761 51.5427 1.15232 51.8945 1.08984ZM76.1055 1.08984C76.4573 1.15232 76.8072 1.21761 77.1553 1.28516C76.8072 1.21761 76.4573 1.15232 76.1055 1.08984ZM53.6719 0.798828C53.1177 0.882079 52.5679 0.971603 52.0225 1.06738C52.2738 1.02324 52.5261 0.979984 52.7793 0.938477L53.6719 0.798828ZM74.3281 0.798828C74.882 0.882031 75.4315 0.971665 75.9766 1.06738C75.7256 1.02331 75.4736 0.980901 75.2207 0.939453L74.3281 0.798828ZM56.3955 0.445312C56.0892 0.478755 55.7842 0.514445 55.4805 0.551758C55.7842 0.514445 56.0892 0.478755 56.3955 0.445312ZM67.8633 0.140625H67.8643H67.8633ZM92.8789 73.666C92.6592 73.7684 92.4386 73.8701 92.2168 73.9707C92.4386 73.8701 92.6592 73.7684 92.8789 73.666Z" fill="#182B54"/>
</svg>
