<?xml version="1.0" encoding="UTF-8"?>
<svg id="Capa_1" xmlns="http://www.w3.org/2000/svg" viewBox="0 0 800 796.03">
  <defs>
    <style>
      .cls-1 {
        fill: #182b54;
      }
    </style>
  </defs>
  <g id="_45._Heart_and_Ñonfetti">
    <path class="cls-1" d="M75.97,775.6c2.55,6.88-.94,14.54-7.82,17.12-40.5,15.17-80-24.38-64.85-64.85l128.38-342.58c9.77-26.06,38.82-39.27,64.88-29.51,6.73,2.52,12.85,6.46,17.93,11.54l41.75,41.75c5.21,5.21,5.21,13.66,0,18.87-5.21,5.21-13.66,5.21-18.87,0l-41.66-41.75c-9.19-9.29-24.17-9.38-33.47-.19-2.46,2.44-4.36,5.39-5.56,8.64L28.36,737.27c-4.61,12.25,1.57,25.92,13.82,30.53,5.38,2.03,11.32,2.03,16.71,0,6.87-2.53,14.5.95,17.08,7.8h0ZM316.68,469.51c-5.17-5.24-13.61-5.3-18.85-.13-2.67,2.63-4.11,6.27-3.96,10.01v119.86c0,7.36,5.97,13.33,13.33,13.33s13.33-5.97,13.33-13.33v-88.2l89.36,89.35c9.27,9.24,9.29,24.25.04,33.52-2.4,2.41-5.3,4.28-8.49,5.47l-235.94,88.33v-148.06c0-7.36-5.97-13.33-13.33-13.33s-13.33,5.97-13.33,13.33c0,179.99-.33,168.68.75,171.81,2.43,6.95,10.04,10.61,16.99,8.18.09-.03.17-.06.26-.09l253.96-95.16c26.06-9.77,39.27-38.82,29.51-64.88-2.52-6.73-6.46-12.85-11.54-17.93l-112.08-112.06ZM256.51,320.2l79.11-77.46c22.32-22.32,22.32-58.51,0-80.83-22.32-22.32-58.51-22.32-80.83,0h0c-5.21,5.21-5.2,13.65,0,18.86,5.21,5.21,13.65,5.2,18.86,0,12.12-11.7,31.43-11.36,43.12.76,11.37,11.78,11.41,30.44.09,42.27l-79.08,77.38c-5.26,5.15-5.35,13.6-.19,18.86,5.15,5.26,13.6,5.35,18.86.19l.05-.02ZM607.62,374.03l-99.78,99.78c-5.22,5.2-5.24,13.65-.04,18.87,5.2,5.22,13.65,5.24,18.87.04h0l99.8-99.8c11.81-12,31.11-12.15,43.11-.35,12,11.81,12.15,31.11.35,43.11-.12.12-.25.25-.37.37-5.62,4.76-6.32,13.17-1.57,18.79,4.76,5.62,13.17,6.32,18.79,1.57.56-.48,1.08-1,1.56-1.56,22.32-22.32,22.32-58.51,0-80.83-22.32-22.32-58.51-22.32-80.83,0h.12ZM466.67,152.36c-5.34-5.07-13.78-4.86-18.85.48-4.89,5.15-4.89,13.22,0,18.37,11.25,11.25,11.25,29.48,0,40.73,0,0,0,0,0,0l-57.21,57.21c-5.21,5.21-5.2,13.65,0,18.86,5.21,5.21,13.65,5.2,18.86,0h0l57.2-57.2c21.63-21.68,21.63-56.77,0-78.45ZM431.34,407.25l-34.55,34.55c-5.21,5.21-5.21,13.65,0,18.86,5.21,5.21,13.65,5.21,18.86,0l34.57-34.6c5.21-5.21,5.2-13.65,0-18.86-5.21-5.21-13.65-5.2-18.86,0v.03ZM514.55,342.89c-5.21-5.2-13.64-5.2-18.85,0l-17.88,17.88c-5.07,5.34-4.86,13.78.48,18.85,5.15,4.89,13.22,4.89,18.37,0l17.87-17.88c5.21-5.2,5.21-13.64.02-18.85ZM361.68,332.24l-23.87,23.83c-5.21,5.21-5.21,13.66,0,18.87,5.21,5.21,13.66,5.21,18.87,0h0l23.83-23.87c4.94-5.46,4.53-13.89-.93-18.83-5.08-4.6-12.82-4.6-17.9,0ZM633.58,316.45c-3.41,1.5-7.3,1.5-10.72,0-114.41-50.16-101.05-145.11-47.08-162.34,17.1-5.47,36.35-1.77,52.43,9.63,16.1-11.38,35.35-15.1,52.45-9.63,53.91,17.23,67.31,112.16-47.11,162.34h.03ZM672.55,179.51c-10.92-3.5-24.63.85-35,11.07-5.19,5.14-13.55,5.14-18.75,0-24.45-24.2-55-10.13-56.56,20.08-1.2,22.88,15.65,55.25,65.93,78.95,81.65-38.53,76.11-99.95,44.35-110.09h.03ZM375.01,1.55c9.5-2.87,19.76-1.67,28.33,3.33,24.68-13.72,51.58,3.07,53,30.32,1.25,24-16.55,46.46-47.63,60.1-3.41,1.5-7.3,1.5-10.72,0-63.41-27.78-55.73-83.3-22.98-93.75h0ZM403.34,68.31c41.83-21.37,25.25-53.13,9.38-37.43-5.19,5.14-13.55,5.14-18.75,0-15.9-15.63-32.6,16.05,9.27,37.43h.1ZM752.29,112.13c-3.41,1.5-7.3,1.5-10.72,0-31.07-13.63-48.88-36.05-47.63-60.11,1.42-27.25,28.33-44.01,53-30.3,24.67-13.72,51.56,3.05,53,30.32,1.23,24.05-16.62,46.46-47.65,60.1ZM756.33,47.75c-5.2,5.15-13.57,5.15-18.77,0-15.87-15.7-32.43,16.07,9.38,37.43,41.85-21.4,25.18-53.1,9.38-37.43Z"/>
  </g>
</svg>