<?xml version="1.0" encoding="UTF-8"?>
<svg id="Capa_1" xmlns="http://www.w3.org/2000/svg" viewBox="0 0 132.04 169">
  <defs>
    <style>
      .cls-1 {
        fill: #182b54;
      }
    </style>
  </defs>
  <path class="cls-1" d="M84,66.02c0-1.76-1.43-3.2-3.2-3.2s-3.2,1.43-3.2,3.2v44.35c0,1.76,1.43,3.2,3.2,3.2s3.2-1.43,3.2-3.2v-44.35Z"/>
  <path class="cls-1" d="M54.44,66.02c0-1.76-1.43-3.2-3.2-3.2s-3.2,1.43-3.2,3.2v44.35c0,1.76,1.43,3.2,3.2,3.2s3.2-1.43,3.2-3.2v-44.35Z"/>
  <path class="cls-1" d="M128.85,36.96h-7.89v-8.39h7.89c1.76,0,3.2-1.43,3.2-3.2s-1.43-3.2-3.2-3.2h-37.46v-4.2c0-9.91-8.07-17.98-17.98-17.98h-14.78c-9.91,0-17.98,8.07-17.98,17.98v4.2H3.2c-1.76,0-3.2,1.43-3.2,3.2s1.43,3.2,3.2,3.2h7.89v8.39H3.2c-1.76,0-3.2,1.43-3.2,3.2s1.43,3.2,3.2,3.2h7.89v92.89c0,18.06,14.7,32.76,32.76,32.76h44.35c18.06,0,32.76-14.7,32.76-32.76V43.35h7.89c1.76,0,3.2-1.43,3.2-3.2s-1.43-3.2-3.2-3.2ZM47.04,17.98c0-6.39,5.2-11.59,11.59-11.59h14.78c6.39,0,11.59,5.2,11.59,11.59v4.2h-37.96v-4.2ZM114.57,136.24c0,14.54-11.83,26.37-26.37,26.37h-44.35c-11.56-.01-21.94-7.76-25.24-18.83l-.19-.64h80.87c1.76,0,3.2-1.43,3.2-3.2s-1.43-3.2-3.2-3.2H17.48V43.35h97.09v92.89ZM114.57,36.96H17.48v-8.39h97.09v8.39Z"/>
</svg>