<?xml version="1.0" encoding="UTF-8"?>
<svg id="Capa_1" xmlns="http://www.w3.org/2000/svg" viewBox="0 0 170 169.52">
  <defs>
    <style>
      .cls-1 {
        fill: #182b54;
      }
    </style>
  </defs>
  <g id="_18._Dollar_coin">
    <path class="cls-1" d="M167.17,32.21c1.56,0,2.83-1.26,2.83-2.83v-12.16c-.01-9.51-7.72-17.22-17.23-17.23h-72.48c-9.51,0-17.22,7.72-17.23,17.23v12.16c0,5.81,2.93,11.23,7.79,14.41-4.86,3.18-7.79,8.6-7.79,14.41v5.02C25.06,56.3-7.5,91.15,1.52,128.31c.37,1.52,1.9,2.45,3.41,2.08,1.52-.37,2.45-1.9,2.08-3.41C-1.37,92.45,30.04,60.81,64.93,69.38c.19.07.38.12.58.14,20.57,5.35,35.82,24.07,35.82,46.31,0,42.23-50.77,63.57-81.01,34.29-1.1-1.11-2.89-1.12-4-.02-1.11,1.1-1.12,2.89-.02,4,.03.03.05.05.08.08,20.81,20.15,53.87,20.38,74.87-.61,6.93-6.89,11.83-15.54,14.18-25.03,33.84,0,9.21-.17,47.32-.17,6.39,0,11.57,5.19,11.58,11.58v12.32c0,6.39-5.18,11.56-11.57,11.58h-55.31c-1.56,0-2.83,1.26-2.83,2.83s1.26,2.83,2.83,2.83h55.31c9.51-.01,17.22-7.72,17.23-17.23v-12.32c0-9.51-7.72-17.22-17.23-17.23h-14.13c2.8-3.14,4.34-7.21,4.34-11.41v-12.16c0-4.28-1.59-8.41-4.47-11.58h14.26c9.51-.01,17.22-7.72,17.23-17.23v-12.16c-.01-9.51-7.72-17.22-17.23-17.23h-72.48c-6.39,0-11.58-5.19-11.58-11.58v-12.16c0-6.39,5.19-11.57,11.58-11.58h72.48c6.39,0,11.57,5.19,11.58,11.58v12.16c0,1.56,1.26,2.83,2.83,2.83h0ZM152.77,46.62c6.39,0,11.57,5.19,11.58,11.58v12.16c0,6.39-5.19,11.57-11.58,11.58h-40.21c-1.56,0-2.83,1.26-2.83,2.83s1.26,2.83,2.83,2.83h13.21c6.39,0,11.57,5.19,11.58,11.58v12.16c0,5.64-4.07,10.46-9.63,11.41h-21.19c3.5-26.88-13.69-50.96-37.82-58.17v-6.36c0-6.4,5.18-11.58,11.58-11.59h72.48ZM48.83,108.33c0,2.58,2.09,4.68,4.67,4.69h0c5.7,0,10.32,4.63,10.32,10.33,0,4.61-3.06,8.66-7.49,9.92v2.12c0,1.56-1.26,2.83-2.83,2.83s-2.83-1.26-2.83-2.83v-2.12c-4.43-1.27-7.49-5.32-7.5-9.93,0-1.56,1.26-2.83,2.83-2.83s2.83,1.26,2.83,2.83c0,2.58,2.09,4.67,4.67,4.67s4.67-2.09,4.67-4.67c0-2.58-2.09-4.67-4.67-4.67-5.7,0-10.32-4.63-10.32-10.33,0-4.61,3.06-8.66,7.49-9.92v-2.12c0-1.56,1.26-2.83,2.83-2.83s2.83,1.26,2.83,2.83v2.12c4.43,1.27,7.49,5.31,7.5,9.91,0,1.56-1.26,2.83-2.83,2.83s-2.83-1.26-2.83-2.83c0-2.58-2.09-4.67-4.67-4.68-2.58,0-4.67,2.09-4.68,4.67h0ZM70.68,89.46c-20.76-13.48-48.53,1.44-48.53,26.38.02,17.35,14.08,31.41,31.43,31.43,22.84,0,38.12-23.76,28.58-44.53-.62-1.43.03-3.1,1.46-3.72,1.39-.61,3.01,0,3.67,1.36,11.24,24.5-6.76,52.54-33.72,52.54-20.47-.02-37.06-16.61-37.08-37.08,0-29.44,32.79-47.02,57.26-31.12,1.31.85,1.68,2.6.83,3.91-.85,1.31-2.6,1.68-3.91.83h0Z"/>
  </g>
</svg>