<?xml version="1.0" encoding="UTF-8"?>
<svg id="Capa_1" xmlns="http://www.w3.org/2000/svg" viewBox="0 0 800 799.99">
  <defs>
    <style>
      .cls-1 {
        fill: #182b54;
      }
    </style>
  </defs>
  <g id="_19._Long_bill">
    <path class="cls-1" d="M538.83,294.67c-.02-13.16-10.68-23.81-23.83-23.83-27.89-.08-50.43-22.76-50.35-50.65.07-22.64,15.2-42.47,37.02-48.52v-11.03c0-7.36,5.97-13.33,13.33-13.33s13.33,5.97,13.33,13.33v11.03c21.93,6.03,37.14,25.96,37.17,48.7,0,7.36-5.97,13.33-13.33,13.33s-13.33-5.97-13.33-13.33c.02-13.16-10.64-23.85-23.8-23.87-13.16-.02-23.85,10.64-23.87,23.8-.02,13.16,10.64,23.85,23.8,23.87.01,0,.02,0,.03,0,27.89.08,50.43,22.76,50.35,50.65-.07,22.64-15.2,42.47-37.02,48.52v11.03c0,7.36-5.97,13.33-13.33,13.33s-13.33-5.97-13.33-13.33v-11.03c-21.93-6.03-37.14-25.96-37.17-48.7,0-7.36,5.97-13.33,13.33-13.33s13.33,5.97,13.33,13.33c0,13.16,10.67,23.83,23.83,23.83s23.83-10.67,23.83-23.83h0v.03ZM796.03,777.18l-67.5-66.67c-5.19-5.13-13.54-5.13-18.73,0l-58.13,57.42-58.13-57.42c-5.19-5.13-13.54-5.13-18.73,0l-58.13,57.42-58.13-57.42c-5.19-5.13-13.54-5.13-18.73,0l-58.13,57.42-58.13-57.42c-5.19-5.13-13.54-5.13-18.73,0l-44.8,44.23V71.67C260,32.09,227.91,0,188.33,0s-71.67,32.09-71.67,71.67v431.67c0,24.85-20.15,45-45,45s-45-20.15-45-45v-198.33h45c7.36,0,13.33-5.97,13.33-13.33s-5.97-13.33-13.33-13.33H13.33c-7.36,0-13.33,5.97-13.33,13.33v211.67c0,39.58,32.09,71.67,71.67,71.67h108.33c7.36,0,13.33-5.97,13.33-13.33s-5.97-13.33-13.33-13.33h-52.62c10.33-12.72,15.96-28.61,15.95-45V71.67c0-24.85,20.15-45,45-45s45,20.15,45,45v715c0,7.36,5.98,13.33,13.34,13.33,3.5,0,6.87-1.38,9.36-3.84l58.13-57.42,58.13,57.42c5.19,5.13,13.54,5.13,18.73,0l58.13-57.42,58.13,57.42c5.19,5.13,13.54,5.13,18.73,0l58.13-57.42,58.13,57.42c5.19,5.13,13.54,5.13,18.73,0l58.13-57.42,58.13,57.42c5.37,5.04,13.8,4.78,18.85-.59,4.87-5.18,4.82-13.26-.11-18.38ZM325,26.67h403.33c24.85,0,45,20.15,45,45h0v566.67c0,7.36,5.97,13.33,13.33,13.33s13.33-5.97,13.33-13.33V71.67c0-39.58-32.09-71.67-71.67-71.67h-403.33c-7.36,0-13.33,5.97-13.33,13.33s5.97,13.33,13.33,13.33ZM633.33,443.33h-160.83c-7.36,0-13.33,5.97-13.33,13.33s5.97,13.33,13.33,13.33h160.83c7.36,0,13.33-5.97,13.33-13.33s-5.97-13.33-13.33-13.33ZM403.33,443.33h-6.67c-7.36,0-13.33,5.97-13.33,13.33s5.97,13.33,13.33,13.33h6.67c7.36,0,13.33-5.97,13.33-13.33s-5.97-13.33-13.33-13.33ZM633.33,543.33h-160.83c-7.36,0-13.33,5.97-13.33,13.33s5.97,13.33,13.33,13.33h160.83c7.36,0,13.33-5.97,13.33-13.33s-5.97-13.33-13.33-13.33ZM403.33,543.33h-6.67c-7.36,0-13.33,5.97-13.33,13.33s5.97,13.33,13.33,13.33h6.67c7.36,0,13.33-5.97,13.33-13.33s-5.97-13.33-13.33-13.33Z"/>
  </g>
</svg>